<?xml version="1.0" encoding="UTF-8"?>
<svg xmlns="http://www.w3.org/2000/svg" xmlns:xlink="http://www.w3.org/1999/xlink" width="1152pt" height="711pt" viewBox="0 0 1152 711">
<defs>
<g>
<g id="glyph-0-0">
<path d="M 1.0625 0 L 1.0625 -10.308594 L 8.128906 -10.308594 L 8.128906 -8.5625 L 3.144531 -8.5625 L 3.144531 -6.125 L 7.445312 -6.125 L 7.445312 -4.378906 L 3.144531 -4.378906 L 3.144531 0 Z M 1.0625 0 "/>
</g>
<g id="glyph-0-1">
<path d="M 2.511719 -5.1875 L 0.71875 -5.511719 C 0.917969 -6.234375 1.265625 -6.769531 1.757812 -7.117188 C 2.25 -7.460938 2.980469 -7.636719 3.953125 -7.636719 C 4.832031 -7.636719 5.488281 -7.53125 5.921875 -7.324219 C 6.351562 -7.113281 6.65625 -6.847656 6.832031 -6.527344 C 7.007812 -6.207031 7.09375 -5.617188 7.09375 -4.761719 L 7.074219 -2.453125 C 7.074219 -1.796875 7.105469 -1.3125 7.167969 -1 C 7.230469 -0.691406 7.351562 -0.355469 7.523438 0 L 5.570312 0 C 5.515625 -0.132812 5.453125 -0.324219 5.378906 -0.582031 C 5.347656 -0.699219 5.324219 -0.777344 5.308594 -0.816406 C 4.972656 -0.488281 4.609375 -0.242188 4.226562 -0.078125 C 3.839844 0.0859375 3.429688 0.167969 2.996094 0.167969 C 2.226562 0.167969 1.621094 -0.0390625 1.175781 -0.457031 C 0.734375 -0.875 0.511719 -1.402344 0.511719 -2.039062 C 0.511719 -2.460938 0.613281 -2.835938 0.816406 -3.167969 C 1.015625 -3.496094 1.300781 -3.75 1.664062 -3.925781 C 2.027344 -4.101562 2.550781 -4.257812 3.234375 -4.386719 C 4.15625 -4.5625 4.796875 -4.722656 5.152344 -4.871094 L 5.152344 -5.070312 C 5.152344 -5.449219 5.058594 -5.71875 4.871094 -5.882812 C 4.683594 -6.042969 4.332031 -6.125 3.8125 -6.125 C 3.460938 -6.125 3.183594 -6.054688 2.988281 -5.917969 C 2.792969 -5.777344 2.632812 -5.535156 2.511719 -5.1875 M 5.152344 -3.585938 C 4.902344 -3.5 4.5 -3.402344 3.953125 -3.285156 C 3.402344 -3.167969 3.042969 -3.050781 2.875 -2.9375 C 2.617188 -2.757812 2.488281 -2.523438 2.488281 -2.242188 C 2.488281 -1.964844 2.59375 -1.726562 2.796875 -1.527344 C 3.003906 -1.324219 3.265625 -1.222656 3.585938 -1.222656 C 3.941406 -1.222656 4.28125 -1.339844 4.605469 -1.574219 C 4.84375 -1.753906 5 -1.972656 5.078125 -2.230469 C 5.128906 -2.398438 5.152344 -2.71875 5.152344 -3.191406 Z M 5.152344 -3.585938 "/>
</g>
<g id="glyph-0-2">
<path d="M 7.542969 -5.257812 L 5.597656 -4.90625 C 5.53125 -5.296875 5.382812 -5.589844 5.148438 -5.785156 C 4.917969 -5.984375 4.617188 -6.082031 4.246094 -6.082031 C 3.753906 -6.082031 3.363281 -5.910156 3.070312 -5.570312 C 2.777344 -5.230469 2.628906 -4.664062 2.628906 -3.867188 C 2.628906 -2.980469 2.777344 -2.355469 3.074219 -1.988281 C 3.375 -1.625 3.773438 -1.441406 4.273438 -1.441406 C 4.648438 -1.441406 4.957031 -1.546875 5.195312 -1.761719 C 5.433594 -1.972656 5.605469 -2.339844 5.703125 -2.863281 L 7.644531 -2.53125 C 7.441406 -1.640625 7.054688 -0.96875 6.484375 -0.511719 C 5.910156 -0.0585938 5.144531 0.167969 4.183594 0.167969 C 3.089844 0.167969 2.21875 -0.175781 1.570312 -0.863281 C 0.921875 -1.554688 0.597656 -2.507812 0.597656 -3.726562 C 0.597656 -4.960938 0.921875 -5.917969 1.574219 -6.605469 C 2.226562 -7.292969 3.109375 -7.636719 4.21875 -7.636719 C 5.128906 -7.636719 5.851562 -7.441406 6.386719 -7.046875 C 6.925781 -6.65625 7.308594 -6.0625 7.542969 -5.257812 Z M 7.542969 -5.257812 "/>
</g>
<g id="glyph-0-3">
<path d="M 4.457031 -7.46875 L 4.457031 -5.890625 L 3.109375 -5.890625 L 3.109375 -2.882812 C 3.109375 -2.273438 3.121094 -1.917969 3.144531 -1.816406 C 3.171875 -1.714844 3.230469 -1.632812 3.320312 -1.566406 C 3.414062 -1.503906 3.523438 -1.46875 3.65625 -1.46875 C 3.839844 -1.46875 4.105469 -1.53125 4.449219 -1.660156 L 4.621094 -0.125 C 4.160156 0.0703125 3.640625 0.167969 3.058594 0.167969 C 2.703125 0.167969 2.382812 0.109375 2.09375 -0.0117188 C 1.808594 -0.128906 1.597656 -0.285156 1.464844 -0.472656 C 1.332031 -0.664062 1.238281 -0.921875 1.1875 -1.246094 C 1.144531 -1.472656 1.125 -1.9375 1.125 -2.636719 L 1.125 -5.890625 L 0.21875 -5.890625 L 0.21875 -7.46875 L 1.125 -7.46875 L 1.125 -8.949219 L 3.109375 -10.105469 L 3.109375 -7.46875 Z M 4.457031 -7.46875 "/>
</g>
<g id="glyph-0-4">
<path d="M 0.578125 -3.839844 C 0.578125 -4.496094 0.738281 -5.128906 1.0625 -5.746094 C 1.386719 -6.359375 1.84375 -6.828125 2.4375 -7.152344 C 3.027344 -7.472656 3.691406 -7.636719 4.421875 -7.636719 C 5.550781 -7.636719 6.476562 -7.269531 7.199219 -6.535156 C 7.921875 -5.800781 8.28125 -4.875 8.28125 -3.753906 C 8.28125 -2.625 7.917969 -1.6875 7.1875 -0.945312 C 6.460938 -0.203125 5.542969 0.167969 4.4375 0.167969 C 3.753906 0.167969 3.097656 0.015625 2.476562 -0.296875 C 1.855469 -0.605469 1.386719 -1.058594 1.0625 -1.65625 C 0.738281 -2.253906 0.578125 -2.980469 0.578125 -3.839844 M 2.601562 -3.734375 C 2.601562 -2.992188 2.777344 -2.425781 3.128906 -2.03125 C 3.480469 -1.636719 3.914062 -1.441406 4.429688 -1.441406 C 4.945312 -1.441406 5.378906 -1.636719 5.726562 -2.03125 C 6.074219 -2.425781 6.25 -2.996094 6.25 -3.746094 C 6.25 -4.480469 6.074219 -5.042969 5.726562 -5.433594 C 5.378906 -5.828125 4.945312 -6.027344 4.429688 -6.027344 C 3.914062 -6.027344 3.480469 -5.828125 3.128906 -5.433594 C 2.777344 -5.042969 2.601562 -4.472656 2.601562 -3.734375 Z M 2.601562 -3.734375 "/>
</g>
<g id="glyph-0-5">
<path d="M 2.925781 0 L 0.949219 0 L 0.949219 -7.46875 L 2.785156 -7.46875 L 2.785156 -6.40625 C 3.097656 -6.90625 3.378906 -7.238281 3.632812 -7.398438 C 3.882812 -7.554688 4.167969 -7.636719 4.484375 -7.636719 C 4.9375 -7.636719 5.371094 -7.511719 5.785156 -7.261719 L 5.175781 -5.539062 C 4.84375 -5.757812 4.53125 -5.863281 4.246094 -5.863281 C 3.96875 -5.863281 3.734375 -5.789062 3.542969 -5.636719 C 3.351562 -5.484375 3.199219 -5.207031 3.089844 -4.808594 C 2.980469 -4.410156 2.925781 -3.578125 2.925781 -2.304688 Z M 2.925781 0 "/>
</g>
<g id="glyph-0-6">
</g>
<g id="glyph-0-7">
<path d="M 10.34375 0 L 8.078125 0 L 7.179688 -2.339844 L 3.058594 -2.339844 L 2.207031 0 L 0 0 L 4.015625 -10.308594 L 6.214844 -10.308594 L 10.34375 0 M 6.511719 -4.078125 L 5.089844 -7.902344 L 3.699219 -4.078125 Z M 6.511719 -4.078125 "/>
</g>
<g id="glyph-0-8">
<path d="M 7.824219 0 L 5.851562 0 L 5.851562 -3.8125 C 5.851562 -4.617188 5.808594 -5.136719 5.722656 -5.375 C 5.640625 -5.613281 5.5 -5.796875 5.3125 -5.925781 C 5.121094 -6.058594 4.894531 -6.125 4.625 -6.125 C 4.285156 -6.125 3.976562 -6.03125 3.707031 -5.84375 C 3.433594 -5.65625 3.246094 -5.40625 3.144531 -5.097656 C 3.046875 -4.789062 2.996094 -4.214844 2.996094 -3.382812 L 2.996094 0 L 1.019531 0 L 1.019531 -7.46875 L 2.855469 -7.46875 L 2.855469 -6.371094 C 3.507812 -7.214844 4.328125 -7.636719 5.316406 -7.636719 C 5.75 -7.636719 6.148438 -7.558594 6.511719 -7.398438 C 6.871094 -7.242188 7.144531 -7.042969 7.328125 -6.800781 C 7.515625 -6.554688 7.644531 -6.277344 7.714844 -5.96875 C 7.789062 -5.660156 7.824219 -5.21875 7.824219 -4.640625 Z M 7.824219 0 "/>
</g>
<g id="glyph-0-9">
<path d="M 1.035156 0 L 1.035156 -10.308594 L 3.007812 -10.308594 L 3.007812 0 Z M 1.035156 0 "/>
</g>
<g id="glyph-0-10">
<path d="M 0.0976562 -7.46875 L 2.199219 -7.46875 L 3.988281 -2.164062 L 5.730469 -7.46875 L 7.777344 -7.46875 L 5.140625 -0.28125 L 4.667969 1.019531 C 4.496094 1.457031 4.328125 1.789062 4.171875 2.019531 C 4.015625 2.246094 3.835938 2.433594 3.632812 2.578125 C 3.425781 2.71875 3.175781 2.832031 2.878906 2.910156 C 2.582031 2.992188 2.246094 3.03125 1.871094 3.03125 C 1.492188 3.03125 1.117188 2.992188 0.753906 2.910156 L 0.578125 1.363281 C 0.886719 1.425781 1.164062 1.457031 1.414062 1.457031 C 1.871094 1.457031 2.210938 1.320312 2.433594 1.050781 C 2.652344 0.78125 2.820312 0.4375 2.9375 0.0195312 Z M 0.0976562 -7.46875 "/>
</g>
<g id="glyph-0-11">
<path d="M 0.335938 -2.128906 L 2.320312 -2.433594 C 2.40625 -2.046875 2.574219 -1.757812 2.832031 -1.558594 C 3.089844 -1.359375 3.453125 -1.257812 3.917969 -1.257812 C 4.425781 -1.257812 4.8125 -1.351562 5.070312 -1.539062 C 5.242188 -1.671875 5.328125 -1.847656 5.328125 -2.066406 C 5.328125 -2.21875 5.28125 -2.339844 5.1875 -2.441406 C 5.089844 -2.535156 4.871094 -2.621094 4.527344 -2.699219 C 2.933594 -3.050781 1.925781 -3.371094 1.496094 -3.664062 C 0.90625 -4.066406 0.613281 -4.625 0.613281 -5.34375 C 0.613281 -5.992188 0.867188 -6.535156 1.378906 -6.976562 C 1.890625 -7.414062 2.679688 -7.636719 3.753906 -7.636719 C 4.777344 -7.636719 5.535156 -7.46875 6.03125 -7.136719 C 6.53125 -6.804688 6.871094 -6.3125 7.058594 -5.660156 L 5.195312 -5.316406 C 5.117188 -5.605469 4.964844 -5.828125 4.742188 -5.984375 C 4.519531 -6.136719 4.203125 -6.214844 3.789062 -6.214844 C 3.269531 -6.214844 2.898438 -6.144531 2.671875 -5.996094 C 2.523438 -5.894531 2.445312 -5.761719 2.445312 -5.597656 C 2.445312 -5.457031 2.511719 -5.335938 2.644531 -5.238281 C 2.820312 -5.105469 3.4375 -4.921875 4.488281 -4.683594 C 5.542969 -4.445312 6.277344 -4.152344 6.695312 -3.804688 C 7.105469 -3.453125 7.3125 -2.960938 7.3125 -2.335938 C 7.3125 -1.648438 7.027344 -1.0625 6.453125 -0.570312 C 5.882812 -0.078125 5.035156 0.167969 3.917969 0.167969 C 2.898438 0.167969 2.09375 -0.0390625 1.5 -0.449219 C 0.910156 -0.863281 0.519531 -1.421875 0.335938 -2.128906 Z M 0.335938 -2.128906 "/>
</g>
<g id="glyph-0-12">
<path d="M 1.035156 -8.480469 L 1.035156 -10.308594 L 3.007812 -10.308594 L 3.007812 -8.480469 L 1.035156 -8.480469 M 1.035156 0 L 1.035156 -7.46875 L 3.007812 -7.46875 L 3.007812 0 Z M 1.035156 0 "/>
</g>
<g id="glyph-1-0">
<path d="M 3.109375 0 L 3.109375 -7.578125 L 0.28125 -7.578125 L 0.28125 -8.589844 L 7.089844 -8.589844 L 7.089844 -7.578125 L 4.25 -7.578125 L 4.25 0 Z M 3.109375 0 "/>
</g>
<g id="glyph-1-1">
<path d="M 5.050781 -2.003906 L 6.140625 -1.867188 C 5.96875 -1.230469 5.648438 -0.738281 5.1875 -0.386719 C 4.71875 -0.0351562 4.125 0.140625 3.40625 0.140625 C 2.492188 0.140625 1.773438 -0.140625 1.238281 -0.699219 C 0.707031 -1.261719 0.4375 -2.046875 0.4375 -3.058594 C 0.4375 -4.105469 0.710938 -4.917969 1.25 -5.496094 C 1.789062 -6.074219 2.484375 -6.363281 3.34375 -6.363281 C 4.179688 -6.363281 4.859375 -6.078125 5.382812 -5.515625 C 5.914062 -4.945312 6.175781 -4.148438 6.175781 -3.125 C 6.175781 -3.058594 6.171875 -2.964844 6.171875 -2.84375 L 1.53125 -2.84375 C 1.566406 -2.15625 1.761719 -1.632812 2.109375 -1.273438 C 2.457031 -0.90625 2.890625 -0.726562 3.410156 -0.726562 C 3.796875 -0.726562 4.125 -0.828125 4.398438 -1.03125 C 4.671875 -1.234375 4.890625 -1.558594 5.050781 -2.003906 M 1.585938 -3.710938 L 5.0625 -3.710938 C 5.015625 -4.230469 4.882812 -4.625 4.664062 -4.886719 C 4.328125 -5.292969 3.890625 -5.496094 3.359375 -5.496094 C 2.871094 -5.496094 2.464844 -5.332031 2.136719 -5.007812 C 1.804688 -4.683594 1.625 -4.25 1.585938 -3.710938 Z M 1.585938 -3.710938 "/>
</g>
<g id="glyph-1-2">
<path d="M 0.367188 -1.859375 L 1.414062 -2.023438 C 1.46875 -1.601562 1.632812 -1.28125 1.902344 -1.0625 C 2.167969 -0.835938 2.542969 -0.726562 3.023438 -0.726562 C 3.507812 -0.726562 3.867188 -0.824219 4.101562 -1.023438 C 4.335938 -1.21875 4.453125 -1.449219 4.453125 -1.71875 C 4.453125 -1.953125 4.347656 -2.140625 4.140625 -2.28125 C 3.996094 -2.375 3.640625 -2.492188 3.0625 -2.636719 C 2.289062 -2.832031 1.753906 -3 1.457031 -3.144531 C 1.15625 -3.285156 0.929688 -3.484375 0.777344 -3.734375 C 0.621094 -3.988281 0.546875 -4.265625 0.546875 -4.570312 C 0.546875 -4.847656 0.609375 -5.105469 0.734375 -5.339844 C 0.863281 -5.578125 1.035156 -5.773438 1.253906 -5.929688 C 1.417969 -6.050781 1.640625 -6.152344 1.925781 -6.238281 C 2.207031 -6.320312 2.511719 -6.363281 2.835938 -6.363281 C 3.324219 -6.363281 3.753906 -6.292969 4.121094 -6.152344 C 4.492188 -6.011719 4.761719 -5.820312 4.9375 -5.582031 C 5.113281 -5.339844 5.234375 -5.019531 5.304688 -4.617188 L 4.273438 -4.476562 C 4.226562 -4.796875 4.089844 -5.046875 3.863281 -5.226562 C 3.640625 -5.40625 3.320312 -5.496094 2.914062 -5.496094 C 2.425781 -5.496094 2.082031 -5.414062 1.875 -5.257812 C 1.667969 -5.09375 1.5625 -4.90625 1.5625 -4.695312 C 1.5625 -4.554688 1.605469 -4.433594 1.695312 -4.324219 C 1.777344 -4.210938 1.914062 -4.117188 2.097656 -4.042969 C 2.203125 -4.003906 2.515625 -3.914062 3.03125 -3.773438 C 3.773438 -3.574219 4.296875 -3.410156 4.589844 -3.285156 C 4.886719 -3.15625 5.117188 -2.972656 5.285156 -2.730469 C 5.453125 -2.488281 5.535156 -2.1875 5.539062 -1.828125 C 5.535156 -1.476562 5.433594 -1.144531 5.230469 -0.835938 C 5.023438 -0.523438 4.726562 -0.285156 4.34375 -0.113281 C 3.953125 0.0546875 3.515625 0.140625 3.03125 0.140625 C 2.21875 0.140625 1.605469 -0.0273438 1.179688 -0.363281 C 0.757812 -0.699219 0.484375 -1.199219 0.367188 -1.859375 Z M 0.367188 -1.859375 "/>
</g>
<g id="glyph-1-3">
<path d="M 3.09375 -0.945312 L 3.246094 -0.0117188 C 2.949219 0.0507812 2.683594 0.0820312 2.449219 0.0820312 C 2.066406 0.0820312 1.769531 0.0195312 1.558594 -0.101562 C 1.347656 -0.21875 1.199219 -0.378906 1.113281 -0.578125 C 1.027344 -0.773438 0.984375 -1.1875 0.984375 -1.820312 L 0.984375 -5.402344 L 0.210938 -5.402344 L 0.210938 -6.222656 L 0.984375 -6.222656 L 0.984375 -7.765625 L 2.03125 -8.398438 L 2.03125 -6.222656 L 3.09375 -6.222656 L 3.09375 -5.402344 L 2.03125 -5.402344 L 2.03125 -1.765625 C 2.03125 -1.460938 2.050781 -1.269531 2.089844 -1.183594 C 2.125 -1.097656 2.1875 -1.027344 2.269531 -0.976562 C 2.355469 -0.925781 2.472656 -0.902344 2.632812 -0.902344 C 2.75 -0.902344 2.902344 -0.914062 3.09375 -0.945312 Z M 3.09375 -0.945312 "/>
</g>
<g id="glyph-1-4">
<path d="M 3.878906 0 L 3.878906 -2.054688 L 0.152344 -2.054688 L 0.152344 -3.023438 L 4.070312 -8.589844 L 4.933594 -8.589844 L 4.933594 -3.023438 L 6.09375 -3.023438 L 6.09375 -2.054688 L 4.933594 -2.054688 L 4.933594 0 L 3.878906 0 M 3.878906 -3.023438 L 3.878906 -6.898438 L 1.1875 -3.023438 Z M 3.878906 -3.023438 "/>
</g>
<g id="glyph-1-5">
<path d="M 0.5 -2.25 L 1.605469 -2.34375 C 1.6875 -1.804688 1.878906 -1.398438 2.175781 -1.128906 C 2.476562 -0.855469 2.835938 -0.71875 3.257812 -0.71875 C 3.765625 -0.71875 4.195312 -0.910156 4.546875 -1.296875 C 4.898438 -1.675781 5.074219 -2.1875 5.074219 -2.820312 C 5.074219 -3.417969 4.90625 -3.894531 4.566406 -4.242188 C 4.230469 -4.589844 3.785156 -4.761719 3.242188 -4.765625 C 2.898438 -4.761719 2.59375 -4.6875 2.320312 -4.53125 C 2.046875 -4.378906 1.832031 -4.179688 1.675781 -3.929688 L 0.6875 -4.0625 L 1.515625 -8.472656 L 5.789062 -8.472656 L 5.789062 -7.464844 L 2.359375 -7.464844 L 1.898438 -5.15625 C 2.414062 -5.515625 2.953125 -5.695312 3.523438 -5.695312 C 4.273438 -5.695312 4.90625 -5.433594 5.421875 -4.914062 C 5.9375 -4.394531 6.195312 -3.726562 6.195312 -2.914062 C 6.195312 -2.132812 5.964844 -1.460938 5.515625 -0.898438 C 4.960938 -0.203125 4.210938 0.148438 3.257812 0.148438 C 2.476562 0.148438 1.839844 -0.0742188 1.34375 -0.507812 C 0.851562 -0.945312 0.570312 -1.527344 0.5 -2.25 Z M 0.5 -2.25 "/>
</g>
<g id="glyph-1-6">
<path d="M 6.039062 -1.015625 L 6.039062 0 L 0.363281 0 C 0.355469 -0.253906 0.394531 -0.5 0.484375 -0.734375 C 0.628906 -1.117188 0.863281 -1.5 1.179688 -1.875 C 1.5 -2.25 1.957031 -2.683594 2.5625 -3.175781 C 3.492188 -3.941406 4.125 -4.546875 4.453125 -4.996094 C 4.78125 -5.441406 4.945312 -5.867188 4.945312 -6.265625 C 4.945312 -6.679688 4.796875 -7.035156 4.496094 -7.320312 C 4.199219 -7.609375 3.808594 -7.75 3.328125 -7.75 C 2.820312 -7.75 2.414062 -7.601562 2.109375 -7.296875 C 1.804688 -6.992188 1.648438 -6.570312 1.648438 -6.03125 L 0.5625 -6.140625 C 0.636719 -6.949219 0.917969 -7.566406 1.398438 -7.988281 C 1.882812 -8.414062 2.535156 -8.625 3.351562 -8.625 C 4.175781 -8.625 4.828125 -8.398438 5.308594 -7.9375 C 5.789062 -7.484375 6.03125 -6.914062 6.03125 -6.242188 C 6.03125 -5.894531 5.957031 -5.558594 5.820312 -5.226562 C 5.675781 -4.894531 5.445312 -4.542969 5.117188 -4.179688 C 4.792969 -3.808594 4.25 -3.304688 3.492188 -2.664062 C 2.859375 -2.132812 2.453125 -1.773438 2.273438 -1.585938 C 2.09375 -1.394531 1.945312 -1.203125 1.828125 -1.015625 Z M 6.039062 -1.015625 "/>
</g>
<g id="glyph-1-7">
<path d="M 0.503906 -2.265625 L 1.558594 -2.40625 C 1.679688 -1.8125 1.886719 -1.378906 2.175781 -1.117188 C 2.46875 -0.851562 2.820312 -0.71875 3.242188 -0.71875 C 3.734375 -0.71875 4.15625 -0.890625 4.496094 -1.234375 C 4.839844 -1.578125 5.007812 -2.003906 5.007812 -2.515625 C 5.007812 -2.996094 4.851562 -3.398438 4.535156 -3.710938 C 4.21875 -4.027344 3.816406 -4.183594 3.328125 -4.183594 C 3.128906 -4.183594 2.878906 -4.144531 2.585938 -4.066406 L 2.703125 -4.992188 C 2.773438 -4.984375 2.828125 -4.980469 2.871094 -4.980469 C 3.320312 -4.980469 3.722656 -5.097656 4.085938 -5.332031 C 4.441406 -5.566406 4.621094 -5.925781 4.625 -6.414062 C 4.621094 -6.804688 4.492188 -7.121094 4.230469 -7.375 C 3.96875 -7.628906 3.628906 -7.757812 3.21875 -7.757812 C 2.804688 -7.757812 2.464844 -7.628906 2.191406 -7.371094 C 1.917969 -7.113281 1.742188 -6.726562 1.664062 -6.210938 L 0.609375 -6.398438 C 0.738281 -7.105469 1.03125 -7.652344 1.488281 -8.042969 C 1.945312 -8.429688 2.515625 -8.625 3.195312 -8.625 C 3.664062 -8.625 4.09375 -8.523438 4.488281 -8.324219 C 4.882812 -8.121094 5.183594 -7.847656 5.394531 -7.5 C 5.601562 -7.152344 5.707031 -6.78125 5.707031 -6.390625 C 5.707031 -6.019531 5.609375 -5.683594 5.40625 -5.378906 C 5.210938 -5.074219 4.914062 -4.832031 4.523438 -4.652344 C 5.03125 -4.535156 5.425781 -4.292969 5.707031 -3.921875 C 5.988281 -3.554688 6.128906 -3.089844 6.128906 -2.539062 C 6.128906 -1.789062 5.855469 -1.152344 5.308594 -0.628906 C 4.761719 -0.109375 4.070312 0.152344 3.234375 0.152344 C 2.480469 0.152344 1.855469 -0.0742188 1.355469 -0.523438 C 0.859375 -0.96875 0.574219 -1.554688 0.503906 -2.265625 Z M 0.503906 -2.265625 "/>
</g>
<g id="glyph-1-8">
</g>
<g id="glyph-1-9">
<path d="M 4.46875 0 L 3.414062 0 L 3.414062 -6.71875 C 3.160156 -6.476562 2.828125 -6.234375 2.417969 -5.992188 C 2.003906 -5.75 1.632812 -5.570312 1.304688 -5.449219 L 1.304688 -6.46875 C 1.894531 -6.746094 2.410156 -7.082031 2.851562 -7.476562 C 3.292969 -7.871094 3.605469 -8.253906 3.789062 -8.625 L 4.46875 -8.625 Z M 4.46875 0 "/>
</g>
<g id="glyph-1-10">
<path d="M 0.890625 0 L 0.890625 -8.589844 L 2.601562 -8.589844 L 4.632812 -2.507812 C 4.820312 -1.941406 4.957031 -1.515625 5.046875 -1.234375 C 5.140625 -1.546875 5.292969 -2.007812 5.5 -2.613281 L 7.558594 -8.589844 L 9.085938 -8.589844 L 9.085938 0 L 7.992188 0 L 7.992188 -7.1875 L 5.496094 0 L 4.46875 0 L 1.984375 -7.3125 L 1.984375 0 Z M 0.890625 0 "/>
</g>
<g id="glyph-1-11">
<path d="M 0.878906 0 L 0.878906 -8.589844 L 2.015625 -8.589844 L 2.015625 -1.015625 L 6.246094 -1.015625 L 6.246094 0 Z M 0.878906 0 "/>
</g>
<g id="glyph-1-12">
<path d="M 0.5 -4.234375 C 0.5 -5.25 0.601562 -6.070312 0.8125 -6.6875 C 1.019531 -7.308594 1.332031 -7.785156 1.742188 -8.121094 C 2.15625 -8.457031 2.671875 -8.625 3.296875 -8.625 C 3.757812 -8.625 4.164062 -8.53125 4.511719 -8.347656 C 4.859375 -8.160156 5.144531 -7.894531 5.375 -7.542969 C 5.597656 -7.195312 5.777344 -6.769531 5.90625 -6.265625 C 6.035156 -5.765625 6.101562 -5.085938 6.101562 -4.234375 C 6.101562 -3.226562 5.996094 -2.414062 5.789062 -1.796875 C 5.582031 -1.175781 5.273438 -0.699219 4.859375 -0.359375 C 4.449219 -0.0234375 3.925781 0.148438 3.296875 0.148438 C 2.46875 0.148438 1.820312 -0.152344 1.347656 -0.742188 C 0.78125 -1.460938 0.5 -2.621094 0.5 -4.234375 M 1.582031 -4.234375 C 1.582031 -2.824219 1.746094 -1.886719 2.078125 -1.421875 C 2.40625 -0.953125 2.8125 -0.71875 3.296875 -0.71875 C 3.78125 -0.71875 4.191406 -0.953125 4.519531 -1.421875 C 4.851562 -1.890625 5.015625 -2.828125 5.015625 -4.234375 C 5.015625 -5.648438 4.851562 -6.589844 4.519531 -7.054688 C 4.191406 -7.519531 3.78125 -7.75 3.289062 -7.75 C 2.800781 -7.75 2.414062 -7.546875 2.125 -7.136719 C 1.765625 -6.613281 1.582031 -5.644531 1.582031 -4.234375 Z M 1.582031 -4.234375 "/>
</g>
<g id="glyph-1-13">
<path d="M 1.089844 0 L 1.089844 -1.203125 L 2.289062 -1.203125 L 2.289062 0 Z M 1.089844 0 "/>
</g>
<g id="glyph-1-14">
<path d="M 0.570312 -7.464844 L 0.570312 -8.476562 L 6.128906 -8.476562 L 6.128906 -7.65625 C 5.582031 -7.074219 5.039062 -6.300781 4.503906 -5.335938 C 3.964844 -4.371094 3.550781 -3.382812 3.257812 -2.359375 C 3.046875 -1.640625 2.914062 -0.855469 2.851562 0 L 1.769531 0 C 1.78125 -0.675781 1.914062 -1.492188 2.167969 -2.449219 C 2.421875 -3.40625 2.785156 -4.328125 3.261719 -5.21875 C 3.734375 -6.105469 4.238281 -6.855469 4.773438 -7.464844 Z M 0.570312 -7.464844 "/>
</g>
<g id="glyph-1-15">
<path d="M 5.96875 -6.484375 L 4.921875 -6.40625 C 4.828125 -6.816406 4.695312 -7.117188 4.523438 -7.304688 C 4.238281 -7.605469 3.886719 -7.757812 3.46875 -7.757812 C 3.132812 -7.757812 2.835938 -7.664062 2.585938 -7.476562 C 2.25 -7.234375 1.988281 -6.878906 1.796875 -6.414062 C 1.605469 -5.949219 1.507812 -5.289062 1.5 -4.429688 C 1.753906 -4.816406 2.0625 -5.101562 2.429688 -5.289062 C 2.796875 -5.476562 3.183594 -5.570312 3.585938 -5.570312 C 4.289062 -5.570312 4.886719 -5.3125 5.382812 -4.796875 C 5.875 -4.277344 6.125 -3.609375 6.125 -2.789062 C 6.125 -2.25 6.007812 -1.75 5.773438 -1.285156 C 5.542969 -0.824219 5.222656 -0.46875 4.816406 -0.222656 C 4.410156 0.0234375 3.949219 0.148438 3.433594 0.148438 C 2.554688 0.148438 1.835938 -0.175781 1.28125 -0.824219 C 0.726562 -1.46875 0.453125 -2.535156 0.453125 -4.019531 C 0.453125 -5.679688 0.757812 -6.886719 1.371094 -7.640625 C 1.90625 -8.296875 2.625 -8.625 3.53125 -8.625 C 4.207031 -8.625 4.761719 -8.433594 5.195312 -8.054688 C 5.625 -7.675781 5.882812 -7.15625 5.96875 -6.484375 M 1.664062 -2.78125 C 1.664062 -2.421875 1.742188 -2.070312 1.894531 -1.742188 C 2.050781 -1.40625 2.265625 -1.15625 2.542969 -0.980469 C 2.820312 -0.808594 3.109375 -0.71875 3.414062 -0.71875 C 3.859375 -0.71875 4.242188 -0.898438 4.5625 -1.257812 C 4.882812 -1.617188 5.042969 -2.105469 5.046875 -2.726562 C 5.042969 -3.316406 4.886719 -3.785156 4.570312 -4.128906 C 4.253906 -4.46875 3.855469 -4.640625 3.375 -4.640625 C 2.898438 -4.640625 2.492188 -4.46875 2.164062 -4.128906 C 1.828125 -3.785156 1.664062 -3.335938 1.664062 -2.78125 Z M 1.664062 -2.78125 "/>
</g>
<g id="glyph-1-16">
<path d="M 0.382812 -2.578125 L 0.382812 -3.640625 L 3.621094 -3.640625 L 3.621094 -2.578125 Z M 0.382812 -2.578125 "/>
</g>
</g>
</defs>
<rect x="-115.2" y="-71.1" width="1382.4" height="853.2" fill="rgb(100%, 100%, 100%)" fill-opacity="1"/>
<g fill="rgb(0%, 0%, 0%)" fill-opacity="1">
<use xlink:href="#glyph-0-0" x="522.378906" y="12.855469"/>
<use xlink:href="#glyph-0-1" x="531.175" y="12.855469"/>
<use xlink:href="#glyph-0-2" x="539.183594" y="12.855469"/>
<use xlink:href="#glyph-0-3" x="547.192188" y="12.855469"/>
<use xlink:href="#glyph-0-4" x="551.9875" y="12.855469"/>
<use xlink:href="#glyph-0-5" x="560.783594" y="12.855469"/>
<use xlink:href="#glyph-0-6" x="566.3875" y="12.855469"/>
<use xlink:href="#glyph-0-7" x="570.388281" y="12.855469"/>
<use xlink:href="#glyph-0-8" x="580.7875" y="12.855469"/>
<use xlink:href="#glyph-0-1" x="589.583594" y="12.855469"/>
<use xlink:href="#glyph-0-9" x="597.592188" y="12.855469"/>
<use xlink:href="#glyph-0-10" x="601.592969" y="12.855469"/>
<use xlink:href="#glyph-0-11" x="609.601563" y="12.855469"/>
<use xlink:href="#glyph-0-12" x="617.610156" y="12.855469"/>
<use xlink:href="#glyph-0-11" x="621.610938" y="12.855469"/>
</g>
<g fill="rgb(0%, 0%, 0%)" fill-opacity="1">
<use xlink:href="#glyph-1-0" x="91.140625" y="150.546875"/>
<use xlink:href="#glyph-1-1" x="98.470703" y="150.546875"/>
<use xlink:href="#glyph-1-2" x="105.144531" y="150.546875"/>
<use xlink:href="#glyph-1-3" x="111.144531" y="150.546875"/>
<use xlink:href="#glyph-1-4" x="114.478516" y="150.546875"/>
</g>
<g fill="rgb(0%, 0%, 0%)" fill-opacity="1">
<use xlink:href="#glyph-1-0" x="91.140625" y="256.933594"/>
<use xlink:href="#glyph-1-1" x="98.470703" y="256.933594"/>
<use xlink:href="#glyph-1-2" x="105.144531" y="256.933594"/>
<use xlink:href="#glyph-1-3" x="111.144531" y="256.933594"/>
<use xlink:href="#glyph-1-5" x="114.478516" y="256.933594"/>
</g>
<g fill="rgb(0%, 0%, 0%)" fill-opacity="1">
<use xlink:href="#glyph-1-0" x="91.140625" y="363.34375"/>
<use xlink:href="#glyph-1-1" x="98.470703" y="363.34375"/>
<use xlink:href="#glyph-1-2" x="105.144531" y="363.34375"/>
<use xlink:href="#glyph-1-3" x="111.144531" y="363.34375"/>
<use xlink:href="#glyph-1-6" x="114.478516" y="363.34375"/>
</g>
<g fill="rgb(0%, 0%, 0%)" fill-opacity="1">
<use xlink:href="#glyph-1-0" x="91.140625" y="469.726562"/>
<use xlink:href="#glyph-1-1" x="98.470703" y="469.726562"/>
<use xlink:href="#glyph-1-2" x="105.144531" y="469.726562"/>
<use xlink:href="#glyph-1-3" x="111.144531" y="469.726562"/>
<use xlink:href="#glyph-1-7" x="114.478516" y="469.726562"/>
</g>
<g fill="rgb(0%, 0%, 0%)" fill-opacity="1">
<use xlink:href="#glyph-1-0" x="87.625" y="576.121094"/>
<use xlink:href="#glyph-1-1" x="94.955078" y="576.121094"/>
<use xlink:href="#glyph-1-2" x="101.628906" y="576.121094"/>
<use xlink:href="#glyph-1-3" x="107.628906" y="576.121094"/>
<use xlink:href="#glyph-1-8" x="110.962891" y="576.121094"/>
<use xlink:href="#glyph-1-9" x="114.296875" y="576.121094"/>
</g>
<path fill="none" stroke-width="0.75" stroke-linecap="round" stroke-linejoin="round" stroke="rgb(0%, 0%, 0%)" stroke-opacity="1" stroke-miterlimit="10" d="M 89.476562 155.910156 L 122.824219 155.910156 L 122.824219 136.730469 L 89.476562 136.730469 Z M 89.476562 155.910156 "/>
<path fill="none" stroke-width="0.75" stroke-linecap="round" stroke-linejoin="round" stroke="rgb(0%, 0%, 0%)" stroke-opacity="1" stroke-miterlimit="10" d="M 89.476562 262.300781 L 122.824219 262.300781 L 122.824219 243.121094 L 89.476562 243.121094 Z M 89.476562 262.300781 "/>
<path fill="none" stroke-width="0.75" stroke-linecap="round" stroke-linejoin="round" stroke="rgb(0%, 0%, 0%)" stroke-opacity="1" stroke-miterlimit="10" d="M 89.476562 368.691406 L 122.824219 368.691406 L 122.824219 349.511719 L 89.476562 349.511719 Z M 89.476562 368.691406 "/>
<path fill="none" stroke-width="0.75" stroke-linecap="round" stroke-linejoin="round" stroke="rgb(0%, 0%, 0%)" stroke-opacity="1" stroke-miterlimit="10" d="M 89.476562 475.078125 L 122.824219 475.078125 L 122.824219 455.898438 L 89.476562 455.898438 Z M 89.476562 475.078125 "/>
<path fill="none" stroke-width="0.75" stroke-linecap="round" stroke-linejoin="round" stroke="rgb(0%, 0%, 0%)" stroke-opacity="1" stroke-miterlimit="10" d="M 85.769531 581.46875 L 122.820312 581.46875 L 122.820312 562.289062 L 85.769531 562.289062 Z M 85.769531 581.46875 "/>
<g fill="rgb(0%, 0%, 0%)" fill-opacity="1">
<use xlink:href="#glyph-1-10" x="601.074219" y="257.023438"/>
<use xlink:href="#glyph-1-11" x="611.070312" y="257.023438"/>
<use xlink:href="#glyph-1-9" x="617.744141" y="257.023438"/>
</g>
<g fill="rgb(0%, 0%, 0%)" fill-opacity="1">
<use xlink:href="#glyph-1-10" x="601.074219" y="469.800781"/>
<use xlink:href="#glyph-1-11" x="611.070312" y="469.800781"/>
<use xlink:href="#glyph-1-6" x="617.744141" y="469.800781"/>
</g>
<path fill="none" stroke-width="0.75" stroke-linecap="round" stroke-linejoin="round" stroke="rgb(0%, 0%, 0%)" stroke-opacity="1" stroke-miterlimit="10" d="M 626.75 252.710938 L 626.644531 251.53125 L 626.328125 250.371094 L 625.804688 249.246094 L 625.082031 248.175781 L 624.175781 247.171875 L 623.09375 246.25 L 621.855469 245.429688 L 620.480469 244.71875 L 618.988281 244.125 L 617.398438 243.667969 L 615.742188 243.34375 L 614.035156 243.164062 L 612.3125 243.125 L 610.597656 243.234375 L 608.910156 243.488281 L 607.285156 243.878906 L 605.742188 244.40625 L 604.304688 245.058594 L 602.992188 245.828125 L 601.832031 246.699219 L 600.835938 247.664062 L 600.019531 248.703125 L 599.398438 249.804688 L 598.976562 250.949219 L 598.765625 252.121094 L 598.765625 253.300781 L 598.976562 254.472656 L 599.398438 255.617188 L 600.019531 256.71875 L 600.835938 257.757812 L 601.832031 258.722656 L 602.992188 259.597656 L 604.304688 260.363281 L 605.742188 261.015625 L 607.285156 261.542969 L 608.910156 261.933594 L 610.597656 262.1875 L 612.3125 262.296875 L 614.035156 262.261719 L 615.742188 262.078125 L 617.398438 261.753906 L 618.988281 261.296875 L 620.480469 260.707031 L 621.855469 259.992188 L 623.09375 259.171875 L 624.175781 258.25 L 625.082031 257.246094 L 625.804688 256.175781 L 626.328125 255.050781 L 626.644531 253.890625 L 626.75 252.710938 "/>
<path fill="none" stroke-width="0.75" stroke-linecap="round" stroke-linejoin="round" stroke="rgb(0%, 0%, 0%)" stroke-opacity="1" stroke-miterlimit="10" d="M 626.75 465.488281 L 626.644531 464.308594 L 626.328125 463.148438 L 625.804688 462.023438 L 625.082031 460.953125 L 624.175781 459.949219 L 623.09375 459.027344 L 621.855469 458.207031 L 620.480469 457.496094 L 618.988281 456.90625 L 617.398438 456.445312 L 615.742188 456.121094 L 614.035156 455.941406 L 612.3125 455.902344 L 610.597656 456.011719 L 608.910156 456.265625 L 607.285156 456.65625 L 605.742188 457.183594 L 604.304688 457.835938 L 602.992188 458.605469 L 601.832031 459.476562 L 600.835938 460.441406 L 600.019531 461.480469 L 599.398438 462.582031 L 598.976562 463.726562 L 598.765625 464.898438 L 598.765625 466.078125 L 598.976562 467.25 L 599.398438 468.394531 L 600.019531 469.496094 L 600.835938 470.539062 L 601.832031 471.5 L 602.992188 472.375 L 604.304688 473.140625 L 605.742188 473.792969 L 607.285156 474.320312 L 608.910156 474.710938 L 610.597656 474.964844 L 612.3125 475.074219 L 614.035156 475.039062 L 615.742188 474.855469 L 617.398438 474.535156 L 618.988281 474.074219 L 620.480469 473.484375 L 621.855469 472.769531 L 623.09375 471.949219 L 624.175781 471.03125 L 625.082031 470.027344 L 625.804688 468.953125 L 626.328125 467.828125 L 626.644531 466.667969 L 626.75 465.488281 "/>
<g fill="rgb(0%, 0%, 0%)" fill-opacity="1">
<use xlink:href="#glyph-1-12" x="236.960938" y="177.160156"/>
<use xlink:href="#glyph-1-13" x="243.634766" y="177.160156"/>
<use xlink:href="#glyph-1-14" x="246.96875" y="177.160156"/>
</g>
<g fill="rgb(0%, 0%, 0%)" fill-opacity="1">
<use xlink:href="#glyph-1-12" x="236.960938" y="256.949219"/>
<use xlink:href="#glyph-1-13" x="243.634766" y="256.949219"/>
<use xlink:href="#glyph-1-15" x="246.96875" y="256.949219"/>
</g>
<g fill="rgb(0%, 0%, 0%)" fill-opacity="1">
<use xlink:href="#glyph-1-12" x="236.960938" y="389.9375"/>
<use xlink:href="#glyph-1-13" x="243.634766" y="389.9375"/>
<use xlink:href="#glyph-1-5" x="246.96875" y="389.9375"/>
</g>
<g fill="rgb(0%, 0%, 0%)" fill-opacity="1">
<use xlink:href="#glyph-1-12" x="236.960938" y="469.726562"/>
<use xlink:href="#glyph-1-13" x="243.634766" y="469.726562"/>
<use xlink:href="#glyph-1-4" x="246.96875" y="469.726562"/>
</g>
<path fill="none" stroke-width="0.75" stroke-linecap="round" stroke-linejoin="round" stroke="rgb(0%, 0%, 0%)" stroke-opacity="1" stroke-miterlimit="10" d="M 599.332031 249.796875 L 258.316406 175.746094 "/>
<path fill="none" stroke-width="0.75" stroke-linecap="round" stroke-linejoin="round" stroke="rgb(0%, 0%, 0%)" stroke-opacity="1" stroke-miterlimit="10" d="M 598.605469 252.710938 L 259.019531 252.710938 "/>
<path fill="none" stroke-width="0.75" stroke-linecap="round" stroke-linejoin="round" stroke="rgb(0%, 0%, 0%)" stroke-opacity="1" stroke-miterlimit="10" d="M 599.332031 462.578125 L 258.316406 388.523438 "/>
<path fill="none" stroke-width="0.75" stroke-linecap="round" stroke-linejoin="round" stroke="rgb(0%, 0%, 0%)" stroke-opacity="1" stroke-miterlimit="10" d="M 598.605469 465.488281 L 259.019531 465.488281 "/>
<path fill="none" stroke-width="0.75" stroke-linecap="round" stroke-linejoin="round" stroke="rgb(0%, 0%, 0%)" stroke-opacity="1" stroke-miterlimit="10" d="M 232.289062 170.09375 L 122.820312 146.320312 "/>
<path fill="none" stroke-width="0.75" stroke-linecap="round" stroke-linejoin="round" stroke="rgb(0%, 0%, 0%)" stroke-opacity="1" stroke-miterlimit="10" d="M 129.679688 144.128906 L 122.820312 146.320312 L 128.152344 151.164062 "/>
<path fill="none" stroke-width="0.75" stroke-linecap="round" stroke-linejoin="round" stroke="rgb(0%, 0%, 0%)" stroke-opacity="1" stroke-miterlimit="10" d="M 231.585938 252.710938 L 122.820312 252.710938 "/>
<path fill="none" stroke-width="0.75" stroke-linecap="round" stroke-linejoin="round" stroke="rgb(0%, 0%, 0%)" stroke-opacity="1" stroke-miterlimit="10" d="M 129.058594 249.109375 L 122.820312 252.710938 L 129.058594 256.3125 "/>
<path fill="none" stroke-width="0.75" stroke-linecap="round" stroke-linejoin="round" stroke="rgb(0%, 0%, 0%)" stroke-opacity="1" stroke-miterlimit="10" d="M 232.289062 382.871094 L 122.820312 359.101562 "/>
<path fill="none" stroke-width="0.75" stroke-linecap="round" stroke-linejoin="round" stroke="rgb(0%, 0%, 0%)" stroke-opacity="1" stroke-miterlimit="10" d="M 129.679688 356.90625 L 122.820312 359.101562 L 128.152344 363.941406 "/>
<path fill="none" stroke-width="0.75" stroke-linecap="round" stroke-linejoin="round" stroke="rgb(0%, 0%, 0%)" stroke-opacity="1" stroke-miterlimit="10" d="M 231.585938 465.488281 L 122.820312 465.488281 "/>
<path fill="none" stroke-width="0.75" stroke-linecap="round" stroke-linejoin="round" stroke="rgb(0%, 0%, 0%)" stroke-opacity="1" stroke-miterlimit="10" d="M 129.058594 461.890625 L 122.820312 465.488281 L 129.058594 469.089844 "/>
<path fill="none" stroke-width="0.75" stroke-linecap="round" stroke-linejoin="round" stroke="rgb(0%, 0%, 0%)" stroke-opacity="1" stroke-miterlimit="10" d="M 626.882812 465.488281 L 639.9375 460.03125 L 652.308594 454.578125 L 663.988281 449.121094 L 674.984375 443.664062 L 685.292969 438.210938 L 694.910156 432.753906 L 703.84375 427.296875 L 712.089844 421.84375 L 719.648438 416.386719 L 726.519531 410.929688 L 732.707031 405.476562 L 738.203125 400.019531 L 743.011719 394.5625 L 747.136719 389.105469 L 750.570312 383.652344 "/>
<path fill="none" stroke-width="0.75" stroke-linecap="round" stroke-linejoin="round" stroke="rgb(0%, 0%, 0%)" stroke-opacity="1" stroke-miterlimit="10" d="M 753.320312 340.003906 L 750.570312 334.546875 L 747.136719 329.09375 L 743.011719 323.636719 L 738.203125 318.179688 L 732.707031 312.726562 L 726.519531 307.269531 L 719.648438 301.8125 L 712.089844 296.359375 L 703.84375 290.902344 L 694.910156 285.445312 L 685.292969 279.992188 L 674.984375 274.535156 L 663.988281 269.078125 L 652.308594 263.621094 L 639.9375 258.167969 L 626.882812 252.710938 "/>
<g fill="rgb(0%, 0%, 0%)" fill-opacity="1">
<use xlink:href="#glyph-1-16" x="747.101562" y="366.066406"/>
<use xlink:href="#glyph-1-12" x="751.097656" y="366.066406"/>
<use xlink:href="#glyph-1-13" x="757.771484" y="366.066406"/>
<use xlink:href="#glyph-1-4" x="761.105469" y="366.066406"/>
</g>
</svg>
