<?xml version="1.0" encoding="UTF-8"?>
<svg xmlns="http://www.w3.org/2000/svg" xmlns:xlink="http://www.w3.org/1999/xlink" width="1152pt" height="711pt" viewBox="0 0 1152 711">
<defs>
<g>
<g id="glyph-0-0">
<path d="M 0.65625 1.980469 L 0.65625 -5.164062 L 1.453125 -5.164062 L 1.453125 -4.492188 C 1.640625 -4.753906 1.855469 -4.953125 2.089844 -5.082031 C 2.328125 -5.214844 2.613281 -5.28125 2.953125 -5.28125 C 3.390625 -5.28125 3.78125 -5.167969 4.117188 -4.941406 C 4.457031 -4.714844 4.710938 -4.394531 4.882812 -3.980469 C 5.054688 -3.566406 5.140625 -3.113281 5.140625 -2.621094 C 5.140625 -2.09375 5.042969 -1.617188 4.855469 -1.195312 C 4.664062 -0.769531 4.390625 -0.445312 4.027344 -0.222656 C 3.667969 0.00390625 3.285156 0.117188 2.886719 0.117188 C 2.597656 0.117188 2.335938 0.0546875 2.101562 -0.0664062 C 1.871094 -0.191406 1.679688 -0.347656 1.53125 -0.535156 L 1.53125 1.980469 L 0.65625 1.980469 M 1.449219 -2.554688 C 1.449219 -1.886719 1.582031 -1.398438 1.851562 -1.078125 C 2.121094 -0.761719 2.449219 -0.601562 2.828125 -0.601562 C 3.21875 -0.601562 3.550781 -0.765625 3.828125 -1.097656 C 4.105469 -1.425781 4.246094 -1.933594 4.246094 -2.625 C 4.246094 -3.285156 4.109375 -3.777344 3.839844 -4.105469 C 3.566406 -4.429688 3.246094 -4.59375 2.867188 -4.59375 C 2.496094 -4.59375 2.167969 -4.421875 1.878906 -4.074219 C 1.59375 -3.722656 1.449219 -3.21875 1.449219 -2.554688 Z M 1.449219 -2.554688 "/>
</g>
<g id="glyph-0-1">
</g>
<g id="glyph-0-2">
<path d="M 0.542969 -3.117188 L 0.542969 -3.933594 L 5.265625 -5.925781 L 5.265625 -5.058594 L 1.523438 -3.519531 L 5.265625 -1.96875 L 5.265625 -1.097656 Z M 0.542969 -3.117188 "/>
</g>
<g id="glyph-0-3">
<path d="M 0.414062 -3.515625 C 0.414062 -4.359375 0.5 -5.035156 0.671875 -5.550781 C 0.847656 -6.0625 1.105469 -6.460938 1.445312 -6.738281 C 1.789062 -7.019531 2.21875 -7.15625 2.738281 -7.15625 C 3.121094 -7.15625 3.457031 -7.082031 3.746094 -6.925781 C 4.03125 -6.773438 4.269531 -6.550781 4.457031 -6.261719 C 4.648438 -5.96875 4.792969 -5.617188 4.902344 -5.199219 C 5.007812 -4.785156 5.0625 -4.222656 5.0625 -3.515625 C 5.0625 -2.679688 4.976562 -2.003906 4.804688 -1.492188 C 4.632812 -0.976562 4.375 -0.578125 4.035156 -0.300781 C 3.691406 -0.0195312 3.257812 0.121094 2.738281 0.121094 C 2.050781 0.121094 1.511719 -0.125 1.117188 -0.617188 C 0.648438 -1.210938 0.414062 -2.175781 0.414062 -3.515625 M 1.3125 -3.515625 C 1.3125 -2.34375 1.449219 -1.566406 1.722656 -1.179688 C 1.996094 -0.792969 2.335938 -0.597656 2.738281 -0.597656 C 3.140625 -0.597656 3.476562 -0.792969 3.75 -1.179688 C 4.023438 -1.570312 4.164062 -2.347656 4.164062 -3.515625 C 4.164062 -4.6875 4.023438 -5.46875 3.75 -5.855469 C 3.476562 -6.242188 3.136719 -6.433594 2.726562 -6.433594 C 2.324219 -6.433594 2.003906 -6.261719 1.765625 -5.921875 C 1.464844 -5.488281 1.3125 -4.6875 1.3125 -3.515625 Z M 1.3125 -3.515625 "/>
</g>
<g id="glyph-0-4">
<path d="M 0.90625 0 L 0.90625 -0.996094 L 1.902344 -0.996094 L 1.902344 0 Z M 0.90625 0 "/>
</g>
<g id="glyph-0-5">
<path d="M 3.710938 0 L 2.835938 0 L 2.835938 -5.578125 C 2.625 -5.375 2.347656 -5.175781 2.003906 -4.972656 C 1.664062 -4.773438 1.355469 -4.621094 1.085938 -4.523438 L 1.085938 -5.367188 C 1.574219 -5.597656 2 -5.878906 2.367188 -6.203125 C 2.734375 -6.53125 2.992188 -6.851562 3.144531 -7.15625 L 3.710938 -7.15625 Z M 3.710938 0 "/>
</g>
<g id="glyph-0-6">
<path d="M 5.261719 -5.277344 L 0.554688 -5.277344 L 0.554688 -6.085938 L 5.261719 -6.085938 L 5.261719 -5.277344 M 5.261719 -3.105469 L 0.554688 -3.105469 L 0.554688 -3.925781 L 5.261719 -3.925781 L 5.261719 -3.105469 M 5.261719 -0.941406 L 0.554688 -0.941406 L 0.554688 -1.761719 L 5.261719 -1.761719 Z M 5.261719 -0.941406 "/>
</g>
<g id="glyph-0-7">
<path d="M 0.3125 -5.820312 L 0.535156 -6.511719 C 1.050781 -6.328125 1.425781 -6.171875 1.65625 -6.039062 C 1.597656 -6.625 1.5625 -7.03125 1.5625 -7.25 L 2.265625 -7.25 C 2.257812 -6.929688 2.21875 -6.527344 2.152344 -6.042969 C 2.488281 -6.210938 2.871094 -6.367188 3.300781 -6.511719 L 3.523438 -5.820312 C 3.113281 -5.683594 2.710938 -5.59375 2.316406 -5.546875 C 2.511719 -5.375 2.792969 -5.070312 3.152344 -4.628906 L 2.566406 -4.214844 C 2.378906 -4.472656 2.15625 -4.820312 1.902344 -5.261719 C 1.660156 -4.804688 1.449219 -4.457031 1.269531 -4.214844 L 0.695312 -4.628906 C 1.070312 -5.09375 1.339844 -5.398438 1.503906 -5.546875 C 1.085938 -5.628906 0.6875 -5.71875 0.3125 -5.820312 Z M 0.3125 -5.820312 "/>
</g>
<g id="glyph-0-8">
<path d="M 0.414062 -1.867188 L 1.332031 -1.945312 C 1.402344 -1.496094 1.558594 -1.160156 1.804688 -0.9375 C 2.054688 -0.710938 2.351562 -0.597656 2.703125 -0.597656 C 3.125 -0.597656 3.480469 -0.757812 3.773438 -1.074219 C 4.066406 -1.390625 4.210938 -1.8125 4.210938 -2.339844 C 4.210938 -2.839844 4.070312 -3.230469 3.789062 -3.519531 C 3.511719 -3.808594 3.144531 -3.953125 2.6875 -3.953125 C 2.40625 -3.953125 2.152344 -3.890625 1.925781 -3.761719 C 1.699219 -3.632812 1.519531 -3.46875 1.390625 -3.261719 L 0.570312 -3.371094 L 1.257812 -7.03125 L 4.804688 -7.03125 L 4.804688 -6.195312 L 1.960938 -6.195312 L 1.574219 -4.277344 C 2.003906 -4.578125 2.453125 -4.726562 2.921875 -4.726562 C 3.542969 -4.726562 4.070312 -4.511719 4.496094 -4.078125 C 4.925781 -3.648438 5.140625 -3.09375 5.140625 -2.417969 C 5.140625 -1.773438 4.953125 -1.214844 4.574219 -0.742188 C 4.117188 -0.167969 3.496094 0.121094 2.703125 0.121094 C 2.054688 0.121094 1.527344 -0.0585938 1.117188 -0.421875 C 0.707031 -0.785156 0.472656 -1.265625 0.414062 -1.867188 Z M 0.414062 -1.867188 "/>
</g>
<g id="glyph-1-0">
<path d="M 0.429688 -3.671875 C 0.429688 -4.550781 0.523438 -5.261719 0.703125 -5.796875 C 0.882812 -6.332031 1.152344 -6.746094 1.511719 -7.039062 C 1.867188 -7.328125 2.316406 -7.476562 2.859375 -7.476562 C 3.257812 -7.476562 3.609375 -7.394531 3.910156 -7.234375 C 4.210938 -7.074219 4.460938 -6.839844 4.65625 -6.539062 C 4.851562 -6.234375 5.007812 -5.867188 5.117188 -5.429688 C 5.230469 -4.996094 5.285156 -4.410156 5.285156 -3.671875 C 5.285156 -2.796875 5.195312 -2.09375 5.015625 -1.554688 C 4.835938 -1.019531 4.570312 -0.605469 4.210938 -0.3125 C 3.855469 -0.0195312 3.402344 0.125 2.859375 0.125 C 2.140625 0.125 1.578125 -0.128906 1.167969 -0.644531 C 0.675781 -1.265625 0.429688 -2.273438 0.429688 -3.671875 M 1.371094 -3.671875 C 1.371094 -2.449219 1.515625 -1.636719 1.800781 -1.230469 C 2.085938 -0.828125 2.4375 -0.625 2.859375 -0.625 C 3.277344 -0.625 3.632812 -0.828125 3.917969 -1.234375 C 4.203125 -1.640625 4.347656 -2.453125 4.347656 -3.671875 C 4.347656 -4.898438 4.203125 -5.710938 3.917969 -6.113281 C 3.632812 -6.515625 3.273438 -6.71875 2.847656 -6.71875 C 2.429688 -6.71875 2.09375 -6.539062 1.84375 -6.183594 C 1.527344 -5.730469 1.371094 -4.894531 1.371094 -3.671875 Z M 1.371094 -3.671875 "/>
</g>
<g id="glyph-1-1">
<path d="M 0.945312 0 L 0.945312 -1.039062 L 1.984375 -1.039062 L 1.984375 0 Z M 0.945312 0 "/>
</g>
<g id="glyph-1-2">
<path d="M 3.875 0 L 2.960938 0 L 2.960938 -5.824219 C 2.742188 -5.613281 2.453125 -5.40625 2.09375 -5.195312 C 1.738281 -4.984375 1.417969 -4.828125 1.132812 -4.722656 L 1.132812 -5.605469 C 1.644531 -5.847656 2.089844 -6.136719 2.472656 -6.480469 C 2.855469 -6.820312 3.125 -7.152344 3.285156 -7.476562 L 3.875 -7.476562 Z M 3.875 0 "/>
</g>
<g id="glyph-1-3">
<path d="M 5.234375 -0.878906 L 5.234375 0 L 0.316406 0 C 0.308594 -0.21875 0.34375 -0.429688 0.421875 -0.632812 C 0.546875 -0.96875 0.746094 -1.300781 1.023438 -1.625 C 1.300781 -1.949219 1.699219 -2.324219 2.21875 -2.753906 C 3.027344 -3.414062 3.574219 -3.941406 3.859375 -4.328125 C 4.144531 -4.714844 4.285156 -5.082031 4.285156 -5.429688 C 4.285156 -5.789062 4.15625 -6.097656 3.898438 -6.34375 C 3.636719 -6.59375 3.300781 -6.71875 2.882812 -6.71875 C 2.445312 -6.71875 2.09375 -6.585938 1.828125 -6.320312 C 1.5625 -6.058594 1.429688 -5.691406 1.425781 -5.226562 L 0.488281 -5.320312 C 0.550781 -6.023438 0.792969 -6.558594 1.214844 -6.925781 C 1.632812 -7.292969 2.195312 -7.476562 2.90625 -7.476562 C 3.617188 -7.476562 4.183594 -7.277344 4.601562 -6.882812 C 5.015625 -6.484375 5.226562 -5.992188 5.226562 -5.40625 C 5.226562 -5.109375 5.164062 -4.816406 5.042969 -4.53125 C 4.921875 -4.242188 4.71875 -3.9375 4.4375 -3.621094 C 4.152344 -3.300781 3.683594 -2.867188 3.027344 -2.3125 C 2.476562 -1.851562 2.125 -1.539062 1.96875 -1.375 C 1.816406 -1.210938 1.6875 -1.042969 1.585938 -0.878906 Z M 5.234375 -0.878906 "/>
</g>
<g id="glyph-1-4">
<path d="M 0.4375 -1.964844 L 1.351562 -2.085938 C 1.457031 -1.570312 1.632812 -1.195312 1.886719 -0.96875 C 2.140625 -0.738281 2.445312 -0.625 2.808594 -0.625 C 3.238281 -0.625 3.601562 -0.773438 3.898438 -1.070312 C 4.195312 -1.371094 4.339844 -1.738281 4.34375 -2.179688 C 4.339844 -2.597656 4.203125 -2.945312 3.929688 -3.21875 C 3.65625 -3.488281 3.308594 -3.625 2.882812 -3.625 C 2.710938 -3.625 2.496094 -3.59375 2.238281 -3.523438 L 2.339844 -4.328125 C 2.402344 -4.320312 2.449219 -4.316406 2.488281 -4.316406 C 2.878906 -4.316406 3.226562 -4.417969 3.539062 -4.621094 C 3.851562 -4.824219 4.007812 -5.136719 4.007812 -5.5625 C 4.007812 -5.894531 3.894531 -6.171875 3.667969 -6.394531 C 3.441406 -6.613281 3.148438 -6.722656 2.789062 -6.722656 C 2.433594 -6.722656 2.136719 -6.613281 1.898438 -6.386719 C 1.664062 -6.164062 1.511719 -5.828125 1.441406 -5.382812 L 0.527344 -5.546875 C 0.640625 -6.15625 0.894531 -6.632812 1.289062 -6.96875 C 1.6875 -7.304688 2.179688 -7.476562 2.765625 -7.476562 C 3.171875 -7.476562 3.546875 -7.386719 3.890625 -7.214844 C 4.230469 -7.039062 4.492188 -6.800781 4.675781 -6.5 C 4.855469 -6.199219 4.945312 -5.878906 4.945312 -5.539062 C 4.945312 -5.21875 4.859375 -4.925781 4.6875 -4.660156 C 4.515625 -4.398438 4.257812 -4.1875 3.921875 -4.03125 C 4.359375 -3.929688 4.703125 -3.71875 4.945312 -3.398438 C 5.191406 -3.078125 5.3125 -2.679688 5.3125 -2.199219 C 5.3125 -1.546875 5.074219 -0.996094 4.601562 -0.546875 C 4.125 -0.09375 3.527344 0.132812 2.804688 0.132812 C 2.148438 0.132812 1.605469 -0.0625 1.175781 -0.453125 C 0.742188 -0.839844 0.496094 -1.34375 0.4375 -1.964844 Z M 0.4375 -1.964844 "/>
</g>
<g id="glyph-1-5">
<path d="M 3.363281 0 L 3.363281 -1.78125 L 0.132812 -1.78125 L 0.132812 -2.621094 L 3.53125 -7.445312 L 4.277344 -7.445312 L 4.277344 -2.621094 L 5.28125 -2.621094 L 5.28125 -1.78125 L 4.277344 -1.78125 L 4.277344 0 L 3.363281 0 M 3.363281 -2.621094 L 3.363281 -5.976562 L 1.03125 -2.621094 Z M 3.363281 -2.621094 "/>
</g>
<g id="glyph-1-6">
<path d="M 0.328125 -2.234375 L 0.328125 -3.152344 L 3.136719 -3.152344 L 3.136719 -2.234375 Z M 0.328125 -2.234375 "/>
</g>
<g id="glyph-1-7">
<path d="M 0.429688 -1.949219 L 1.390625 -2.03125 C 1.460938 -1.5625 1.628906 -1.210938 1.886719 -0.976562 C 2.144531 -0.742188 2.457031 -0.625 2.824219 -0.625 C 3.261719 -0.625 3.636719 -0.789062 3.941406 -1.121094 C 4.246094 -1.453125 4.398438 -1.894531 4.398438 -2.441406 C 4.398438 -2.964844 4.25 -3.375 3.957031 -3.675781 C 3.664062 -3.976562 3.28125 -4.128906 2.808594 -4.128906 C 2.515625 -4.128906 2.246094 -4.0625 2.011719 -3.929688 C 1.773438 -3.792969 1.585938 -3.621094 1.453125 -3.40625 L 0.59375 -3.519531 L 1.316406 -7.34375 L 5.015625 -7.34375 L 5.015625 -6.46875 L 2.046875 -6.46875 L 1.644531 -4.46875 C 2.09375 -4.78125 2.5625 -4.9375 3.050781 -4.9375 C 3.703125 -4.9375 4.25 -4.710938 4.695312 -4.261719 C 5.144531 -3.808594 5.367188 -3.230469 5.367188 -2.523438 C 5.367188 -1.851562 5.171875 -1.269531 4.777344 -0.777344 C 4.300781 -0.175781 3.648438 0.125 2.824219 0.125 C 2.144531 0.125 1.59375 -0.0625 1.164062 -0.441406 C 0.738281 -0.820312 0.492188 -1.324219 0.429688 -1.949219 Z M 0.429688 -1.949219 "/>
</g>
<g id="glyph-2-0">
<path d="M 3.351562 -1.023438 L 3.515625 -0.0117188 C 3.195312 0.0546875 2.90625 0.0898438 2.652344 0.0898438 C 2.238281 0.0898438 1.917969 0.0234375 1.6875 -0.109375 C 1.460938 -0.238281 1.300781 -0.410156 1.207031 -0.625 C 1.113281 -0.839844 1.066406 -1.289062 1.066406 -1.972656 L 1.066406 -5.851562 L 0.226562 -5.851562 L 0.226562 -6.742188 L 1.066406 -6.742188 L 1.066406 -8.410156 L 2.203125 -9.097656 L 2.203125 -6.742188 L 3.351562 -6.742188 L 3.351562 -5.851562 L 2.203125 -5.851562 L 2.203125 -1.910156 C 2.203125 -1.585938 2.222656 -1.375 2.261719 -1.28125 C 2.304688 -1.1875 2.367188 -1.113281 2.460938 -1.058594 C 2.550781 -1.003906 2.679688 -0.976562 2.851562 -0.976562 C 2.976562 -0.976562 3.144531 -0.992188 3.351562 -1.023438 Z M 3.351562 -1.023438 "/>
</g>
<g id="glyph-2-1">
<path d="M 1.128906 0 L 1.128906 -5.851562 L 0.121094 -5.851562 L 0.121094 -6.742188 L 1.128906 -6.742188 L 1.128906 -7.457031 C 1.128906 -7.910156 1.171875 -8.246094 1.25 -8.46875 C 1.359375 -8.765625 1.554688 -9.003906 1.832031 -9.1875 C 2.109375 -9.371094 2.496094 -9.464844 2.996094 -9.464844 C 3.316406 -9.464844 3.671875 -9.425781 4.0625 -9.351562 L 3.890625 -8.351562 C 3.652344 -8.394531 3.429688 -8.417969 3.21875 -8.417969 C 2.871094 -8.417969 2.625 -8.34375 2.480469 -8.195312 C 2.339844 -8.046875 2.265625 -7.769531 2.265625 -7.363281 L 2.265625 -6.742188 L 3.578125 -6.742188 L 3.578125 -5.851562 L 2.265625 -5.851562 L 2.265625 0 Z M 1.128906 0 "/>
</g>
<g id="glyph-2-2">
<path d="M 3.039062 2.734375 C 2.410156 1.941406 1.875 1.007812 1.441406 -0.0585938 C 1.003906 -1.125 0.789062 -2.226562 0.789062 -3.371094 C 0.789062 -4.378906 0.949219 -5.34375 1.277344 -6.265625 C 1.65625 -7.335938 2.246094 -8.402344 3.039062 -9.464844 L 3.859375 -9.464844 C 3.347656 -8.585938 3.007812 -7.957031 2.84375 -7.578125 C 2.585938 -6.996094 2.382812 -6.386719 2.234375 -5.75 C 2.050781 -4.960938 1.960938 -4.164062 1.960938 -3.363281 C 1.960938 -1.328125 2.59375 0.703125 3.859375 2.734375 Z M 3.039062 2.734375 "/>
</g>
<g id="glyph-2-3">
<path d="M 1.605469 2.734375 L 0.789062 2.734375 C 2.050781 0.703125 2.683594 -1.328125 2.683594 -3.363281 C 2.683594 -4.160156 2.59375 -4.949219 2.414062 -5.730469 C 2.269531 -6.367188 2.066406 -6.976562 1.808594 -7.558594 C 1.644531 -7.941406 1.304688 -8.574219 0.789062 -9.464844 L 1.605469 -9.464844 C 2.402344 -8.402344 2.988281 -7.335938 3.371094 -6.265625 C 3.695312 -5.34375 3.859375 -4.378906 3.859375 -3.371094 C 3.859375 -2.226562 3.640625 -1.125 3.203125 -0.0585938 C 2.765625 1.007812 2.230469 1.941406 1.605469 2.734375 Z M 1.605469 2.734375 "/>
</g>
<g id="glyph-2-4">
<path d="M 5.273438 0 L 5.273438 -0.992188 C 4.75 -0.226562 4.039062 0.152344 3.136719 0.152344 C 2.738281 0.152344 2.367188 0.0742188 2.023438 -0.078125 C 1.675781 -0.226562 1.421875 -0.421875 1.253906 -0.652344 C 1.085938 -0.882812 0.96875 -1.164062 0.902344 -1.5 C 0.855469 -1.722656 0.832031 -2.078125 0.832031 -2.5625 L 0.832031 -6.742188 L 1.972656 -6.742188 L 1.972656 -3.003906 C 1.972656 -2.40625 1.996094 -2.003906 2.042969 -1.796875 C 2.117188 -1.496094 2.269531 -1.261719 2.5 -1.089844 C 2.734375 -0.917969 3.023438 -0.832031 3.363281 -0.832031 C 3.707031 -0.832031 4.027344 -0.917969 4.328125 -1.09375 C 4.628906 -1.269531 4.84375 -1.507812 4.96875 -1.8125 C 5.09375 -2.113281 5.15625 -2.554688 5.15625 -3.128906 L 5.15625 -6.742188 L 6.296875 -6.742188 L 6.296875 0 L 5.273438 0 M 1.785156 -8.0625 L 1.785156 -9.363281 L 2.976562 -9.363281 L 2.976562 -8.0625 L 1.785156 -8.0625 M 4.152344 -8.0625 L 4.152344 -9.363281 L 5.34375 -9.363281 L 5.34375 -8.0625 Z M 4.152344 -8.0625 "/>
</g>
<g id="glyph-2-5">
<path d="M 0.84375 0 L 0.84375 -6.742188 L 1.871094 -6.742188 L 1.871094 -5.71875 C 2.136719 -6.199219 2.378906 -6.511719 2.597656 -6.664062 C 2.820312 -6.816406 3.066406 -6.894531 3.332031 -6.894531 C 3.71875 -6.894531 4.109375 -6.769531 4.507812 -6.523438 L 4.113281 -5.464844 C 3.835938 -5.628906 3.554688 -5.710938 3.273438 -5.710938 C 3.027344 -5.710938 2.800781 -5.636719 2.601562 -5.488281 C 2.402344 -5.335938 2.261719 -5.128906 2.175781 -4.863281 C 2.050781 -4.457031 1.988281 -4.011719 1.988281 -3.53125 L 1.988281 0 Z M 0.84375 0 "/>
</g>
<g id="glyph-2-6">
</g>
<g id="glyph-2-7">
<path d="M 5.230469 0 L 5.230469 -0.851562 C 4.804688 -0.183594 4.175781 0.152344 3.34375 0.152344 C 2.808594 0.152344 2.3125 0.00390625 1.863281 -0.292969 C 1.414062 -0.589844 1.0625 -1 0.816406 -1.53125 C 0.566406 -2.0625 0.445312 -2.675781 0.445312 -3.363281 C 0.445312 -4.039062 0.554688 -4.648438 0.78125 -5.195312 C 1.003906 -5.742188 1.339844 -6.164062 1.789062 -6.457031 C 2.238281 -6.746094 2.738281 -6.894531 3.292969 -6.894531 C 3.699219 -6.894531 4.0625 -6.808594 4.378906 -6.636719 C 4.695312 -6.464844 4.957031 -6.242188 5.15625 -5.96875 L 5.15625 -9.304688 L 6.289062 -9.304688 L 6.289062 0 L 5.230469 0 M 1.617188 -3.363281 C 1.617188 -2.5 1.800781 -1.855469 2.164062 -1.429688 C 2.527344 -1 2.957031 -0.789062 3.453125 -0.789062 C 3.953125 -0.789062 4.375 -0.992188 4.726562 -1.398438 C 5.074219 -1.808594 5.25 -2.429688 5.25 -3.269531 C 5.25 -4.191406 5.070312 -4.867188 4.714844 -5.300781 C 4.359375 -5.730469 3.921875 -5.949219 3.402344 -5.949219 C 2.894531 -5.949219 2.46875 -5.742188 2.128906 -5.324219 C 1.789062 -4.910156 1.617188 -4.257812 1.617188 -3.363281 Z M 1.617188 -3.363281 "/>
</g>
<g id="glyph-2-8">
<path d="M 0.863281 -7.992188 L 0.863281 -9.304688 L 2.007812 -9.304688 L 2.007812 -7.992188 L 0.863281 -7.992188 M 0.863281 0 L 0.863281 -6.742188 L 2.007812 -6.742188 L 2.007812 0 Z M 0.863281 0 "/>
</g>
<g id="glyph-2-9">
<path d="M 5.472656 -2.171875 L 6.652344 -2.023438 C 6.464844 -1.335938 6.121094 -0.800781 5.617188 -0.417969 C 5.113281 -0.0390625 4.472656 0.152344 3.6875 0.152344 C 2.703125 0.152344 1.921875 -0.152344 1.34375 -0.757812 C 0.765625 -1.367188 0.476562 -2.21875 0.476562 -3.3125 C 0.476562 -4.449219 0.769531 -5.328125 1.351562 -5.953125 C 1.9375 -6.582031 2.695312 -6.894531 3.625 -6.894531 C 4.527344 -6.894531 5.261719 -6.585938 5.832031 -5.972656 C 6.40625 -5.359375 6.691406 -4.496094 6.691406 -3.382812 C 6.691406 -3.316406 6.6875 -3.214844 6.683594 -3.078125 L 1.65625 -3.078125 C 1.699219 -2.339844 1.910156 -1.769531 2.285156 -1.378906 C 2.660156 -0.984375 3.132812 -0.789062 3.695312 -0.789062 C 4.113281 -0.789062 4.472656 -0.898438 4.765625 -1.117188 C 5.0625 -1.335938 5.296875 -1.6875 5.472656 -2.171875 M 1.71875 -4.019531 L 5.484375 -4.019531 C 5.433594 -4.585938 5.289062 -5.011719 5.054688 -5.292969 C 4.6875 -5.734375 4.21875 -5.953125 3.636719 -5.953125 C 3.113281 -5.953125 2.671875 -5.777344 2.3125 -5.425781 C 1.957031 -5.074219 1.757812 -4.605469 1.71875 -4.019531 Z M 1.71875 -4.019531 "/>
</g>
<g id="glyph-2-10">
<path d="M 0.429688 -3.371094 C 0.429688 -4.617188 0.777344 -5.542969 1.472656 -6.144531 C 2.050781 -6.644531 2.757812 -6.894531 3.59375 -6.894531 C 4.519531 -6.894531 5.277344 -6.589844 5.867188 -5.984375 C 6.453125 -5.375 6.746094 -4.535156 6.746094 -3.464844 C 6.746094 -2.597656 6.617188 -1.914062 6.355469 -1.417969 C 6.097656 -0.921875 5.71875 -0.535156 5.222656 -0.261719 C 4.722656 0.015625 4.179688 0.152344 3.59375 0.152344 C 2.648438 0.152344 1.886719 -0.148438 1.304688 -0.753906 C 0.722656 -1.359375 0.429688 -2.230469 0.429688 -3.371094 M 1.605469 -3.371094 C 1.605469 -2.507812 1.792969 -1.859375 2.171875 -1.429688 C 2.546875 -1 3.023438 -0.789062 3.59375 -0.789062 C 4.160156 -0.789062 4.632812 -1.003906 5.007812 -1.433594 C 5.386719 -1.867188 5.574219 -2.523438 5.574219 -3.410156 C 5.574219 -4.242188 5.382812 -4.875 5.003906 -5.304688 C 4.625 -5.734375 4.15625 -5.949219 3.59375 -5.949219 C 3.023438 -5.949219 2.546875 -5.734375 2.171875 -5.304688 C 1.792969 -4.878906 1.605469 -4.234375 1.605469 -3.371094 Z M 1.605469 -3.371094 "/>
</g>
<g id="glyph-2-11">
<path d="M 1.910156 0 L 0.851562 0 L 0.851562 -9.304688 L 1.992188 -9.304688 L 1.992188 -5.984375 C 2.476562 -6.589844 3.089844 -6.894531 3.839844 -6.894531 C 4.253906 -6.894531 4.648438 -6.808594 5.019531 -6.644531 C 5.386719 -6.476562 5.691406 -6.242188 5.933594 -5.9375 C 6.171875 -5.636719 6.359375 -5.269531 6.492188 -4.84375 C 6.628906 -4.414062 6.695312 -3.957031 6.695312 -3.472656 C 6.695312 -2.316406 6.410156 -1.425781 5.839844 -0.792969 C 5.269531 -0.164062 4.582031 0.152344 3.78125 0.152344 C 2.988281 0.152344 2.363281 -0.179688 1.910156 -0.84375 L 1.910156 0 M 1.898438 -3.421875 C 1.898438 -2.613281 2.007812 -2.027344 2.226562 -1.667969 C 2.585938 -1.082031 3.074219 -0.789062 3.6875 -0.789062 C 4.1875 -0.789062 4.617188 -1.003906 4.984375 -1.4375 C 5.347656 -1.871094 5.527344 -2.519531 5.527344 -3.375 C 5.527344 -4.257812 5.355469 -4.90625 5.003906 -5.324219 C 4.65625 -5.746094 4.234375 -5.953125 3.738281 -5.953125 C 3.238281 -5.953125 2.808594 -5.738281 2.445312 -5.304688 C 2.078125 -4.871094 1.898438 -4.242188 1.898438 -3.421875 Z M 1.898438 -3.421875 "/>
</g>
<g id="glyph-2-12">
<path d="M 0.855469 0 L 0.855469 -6.742188 L 1.886719 -6.742188 L 1.886719 -5.78125 C 2.378906 -6.523438 3.09375 -6.894531 4.03125 -6.894531 C 4.4375 -6.894531 4.808594 -6.820312 5.152344 -6.675781 C 5.492188 -6.527344 5.746094 -6.335938 5.914062 -6.101562 C 6.085938 -5.863281 6.203125 -5.582031 6.273438 -5.257812 C 6.3125 -5.042969 6.335938 -4.675781 6.335938 -4.144531 L 6.335938 0 L 5.191406 0 L 5.191406 -4.101562 C 5.191406 -4.566406 5.148438 -4.914062 5.058594 -5.144531 C 4.96875 -5.375 4.8125 -5.558594 4.585938 -5.695312 C 4.359375 -5.835938 4.09375 -5.902344 3.789062 -5.902344 C 3.304688 -5.902344 2.882812 -5.75 2.53125 -5.441406 C 2.175781 -5.132812 2 -4.546875 2 -3.679688 L 2 0 Z M 0.855469 0 "/>
</g>
<g id="glyph-2-13">
<path d="M 5.273438 0 L 5.273438 -0.992188 C 4.75 -0.226562 4.039062 0.152344 3.136719 0.152344 C 2.738281 0.152344 2.367188 0.0742188 2.023438 -0.078125 C 1.675781 -0.226562 1.421875 -0.421875 1.253906 -0.652344 C 1.085938 -0.882812 0.96875 -1.164062 0.902344 -1.5 C 0.855469 -1.722656 0.832031 -2.078125 0.832031 -2.5625 L 0.832031 -6.742188 L 1.972656 -6.742188 L 1.972656 -3.003906 C 1.972656 -2.40625 1.996094 -2.003906 2.042969 -1.796875 C 2.117188 -1.496094 2.269531 -1.261719 2.5 -1.089844 C 2.734375 -0.917969 3.023438 -0.832031 3.363281 -0.832031 C 3.707031 -0.832031 4.027344 -0.917969 4.328125 -1.09375 C 4.628906 -1.269531 4.84375 -1.507812 4.96875 -1.8125 C 5.09375 -2.113281 5.15625 -2.554688 5.15625 -3.128906 L 5.15625 -6.742188 L 6.296875 -6.742188 L 6.296875 0 Z M 5.273438 0 "/>
</g>
<g id="glyph-2-14">
<path d="M 4.84375 0 L 3.699219 0 L 3.699219 -7.28125 C 3.425781 -7.019531 3.066406 -6.757812 2.617188 -6.492188 C 2.171875 -6.230469 1.769531 -6.035156 1.414062 -5.902344 L 1.414062 -7.007812 C 2.054688 -7.308594 2.613281 -7.671875 3.089844 -8.101562 C 3.570312 -8.527344 3.90625 -8.941406 4.105469 -9.34375 L 4.84375 -9.34375 Z M 4.84375 0 "/>
</g>
<g id="glyph-2-15">
<path d="M 0.539062 -4.589844 C 0.539062 -5.691406 0.652344 -6.574219 0.878906 -7.246094 C 1.105469 -7.917969 1.441406 -8.433594 1.886719 -8.796875 C 2.335938 -9.160156 2.898438 -9.34375 3.574219 -9.34375 C 4.074219 -9.34375 4.511719 -9.242188 4.886719 -9.042969 C 5.265625 -8.839844 5.574219 -8.550781 5.820312 -8.171875 C 6.066406 -7.792969 6.257812 -7.332031 6.398438 -6.789062 C 6.539062 -6.246094 6.609375 -5.511719 6.609375 -4.589844 C 6.609375 -3.496094 6.496094 -2.617188 6.273438 -1.945312 C 6.046875 -1.273438 5.710938 -0.757812 5.265625 -0.390625 C 4.820312 -0.0234375 4.253906 0.160156 3.574219 0.160156 C 2.675781 0.160156 1.972656 -0.164062 1.460938 -0.804688 C 0.847656 -1.582031 0.539062 -2.839844 0.539062 -4.589844 M 1.714844 -4.589844 C 1.714844 -3.0625 1.894531 -2.046875 2.25 -1.539062 C 2.609375 -1.035156 3.050781 -0.78125 3.574219 -0.78125 C 4.097656 -0.78125 4.539062 -1.035156 4.898438 -1.542969 C 5.253906 -2.050781 5.433594 -3.066406 5.433594 -4.589844 C 5.433594 -6.121094 5.253906 -7.140625 4.898438 -7.640625 C 4.539062 -8.144531 4.09375 -8.398438 3.5625 -8.398438 C 3.035156 -8.398438 2.617188 -8.175781 2.304688 -7.730469 C 1.910156 -7.164062 1.714844 -6.117188 1.714844 -4.589844 Z M 1.714844 -4.589844 "/>
</g>
<g id="glyph-2-16">
<path d="M 0.753906 -7.070312 C 0.753906 -7.734375 0.921875 -8.300781 1.257812 -8.765625 C 1.589844 -9.230469 2.074219 -9.464844 2.710938 -9.464844 C 3.292969 -9.464844 3.777344 -9.257812 4.160156 -8.839844 C 4.542969 -8.421875 4.734375 -7.808594 4.734375 -7 C 4.734375 -6.214844 4.542969 -5.609375 4.15625 -5.183594 C 3.765625 -4.757812 3.289062 -4.546875 2.722656 -4.546875 C 2.160156 -4.546875 1.691406 -4.753906 1.316406 -5.171875 C 0.941406 -5.59375 0.753906 -6.226562 0.753906 -7.070312 M 2.742188 -8.675781 C 2.457031 -8.675781 2.222656 -8.554688 2.035156 -8.308594 C 1.847656 -8.0625 1.75 -7.613281 1.75 -6.957031 C 1.75 -6.359375 1.847656 -5.941406 2.039062 -5.695312 C 2.226562 -5.453125 2.460938 -5.332031 2.742188 -5.332031 C 3.03125 -5.332031 3.269531 -5.453125 3.457031 -5.699219 C 3.644531 -5.945312 3.738281 -6.394531 3.738281 -7.046875 C 3.738281 -7.648438 3.644531 -8.070312 3.453125 -8.3125 C 3.261719 -8.554688 3.027344 -8.675781 2.742188 -8.675781 M 2.75 0.34375 L 7.839844 -9.464844 L 8.765625 -9.464844 L 3.695312 0.34375 L 2.75 0.34375 M 6.773438 -2.183594 C 6.773438 -2.851562 6.941406 -3.417969 7.273438 -3.882812 C 7.609375 -4.34375 8.09375 -4.578125 8.734375 -4.578125 C 9.320312 -4.578125 9.800781 -4.367188 10.183594 -3.953125 C 10.566406 -3.535156 10.757812 -2.921875 10.757812 -2.113281 C 10.757812 -1.328125 10.566406 -0.71875 10.179688 -0.296875 C 9.792969 0.128906 9.3125 0.34375 8.742188 0.34375 C 8.179688 0.34375 7.710938 0.132812 7.335938 -0.289062 C 6.960938 -0.710938 6.773438 -1.339844 6.773438 -2.183594 M 8.765625 -3.789062 C 8.476562 -3.789062 8.242188 -3.667969 8.050781 -3.421875 C 7.863281 -3.175781 7.769531 -2.726562 7.769531 -2.070312 C 7.769531 -1.476562 7.863281 -1.058594 8.054688 -0.8125 C 8.246094 -0.566406 8.480469 -0.445312 8.757812 -0.445312 C 9.050781 -0.445312 9.292969 -0.566406 9.480469 -0.8125 C 9.667969 -1.058594 9.761719 -1.507812 9.761719 -2.15625 C 9.761719 -2.757812 9.667969 -3.179688 9.476562 -3.425781 C 9.285156 -3.667969 9.050781 -3.789062 8.765625 -3.789062 Z M 8.765625 -3.789062 "/>
</g>
<g id="glyph-2-17">
<path d="M 1.15625 0 L 1.15625 -1.300781 L 2.457031 -1.300781 L 2.457031 0 C 2.457031 0.476562 2.371094 0.863281 2.203125 1.160156 C 2.035156 1.453125 1.765625 1.679688 1.398438 1.839844 L 1.078125 1.351562 C 1.320312 1.246094 1.5 1.089844 1.613281 0.886719 C 1.726562 0.679688 1.789062 0.386719 1.804688 0 Z M 1.15625 0 "/>
</g>
<g id="glyph-2-18">
<path d="M 0.539062 -2.4375 L 1.738281 -2.539062 C 1.828125 -1.953125 2.035156 -1.515625 2.359375 -1.222656 C 2.683594 -0.929688 3.070312 -0.78125 3.53125 -0.78125 C 4.078125 -0.78125 4.546875 -0.988281 4.925781 -1.402344 C 5.304688 -1.816406 5.496094 -2.367188 5.496094 -3.054688 C 5.496094 -3.703125 5.3125 -4.21875 4.949219 -4.59375 C 4.582031 -4.972656 4.101562 -5.160156 3.511719 -5.160156 C 3.140625 -5.160156 2.808594 -5.078125 2.515625 -4.910156 C 2.21875 -4.742188 1.984375 -4.527344 1.816406 -4.257812 L 0.742188 -4.398438 L 1.644531 -9.179688 L 6.273438 -9.179688 L 6.273438 -8.085938 L 2.558594 -8.085938 L 2.054688 -5.585938 C 2.613281 -5.976562 3.203125 -6.167969 3.816406 -6.171875 C 4.628906 -6.167969 5.3125 -5.886719 5.871094 -5.324219 C 6.429688 -4.761719 6.710938 -4.039062 6.710938 -3.15625 C 6.710938 -2.3125 6.464844 -1.585938 5.972656 -0.972656 C 5.375 -0.21875 4.5625 0.160156 3.53125 0.160156 C 2.683594 0.160156 1.992188 -0.078125 1.457031 -0.550781 C 0.921875 -1.027344 0.617188 -1.65625 0.539062 -2.4375 Z M 0.539062 -2.4375 "/>
</g>
<g id="glyph-3-0">
<path d="M 4.023438 -1.226562 L 4.21875 -0.015625 C 3.832031 0.0664062 3.488281 0.105469 3.183594 0.105469 C 2.6875 0.105469 2.300781 0.0273438 2.027344 -0.128906 C 1.75 -0.285156 1.558594 -0.492188 1.445312 -0.75 C 1.335938 -1.007812 1.28125 -1.546875 1.28125 -2.367188 L 1.28125 -7.023438 L 0.273438 -7.023438 L 0.273438 -8.089844 L 1.28125 -8.089844 L 1.28125 -10.09375 L 2.644531 -10.914062 L 2.644531 -8.089844 L 4.023438 -8.089844 L 4.023438 -7.023438 L 2.644531 -7.023438 L 2.644531 -2.292969 C 2.644531 -1.902344 2.667969 -1.648438 2.714844 -1.539062 C 2.765625 -1.425781 2.84375 -1.339844 2.953125 -1.273438 C 3.0625 -1.207031 3.21875 -1.171875 3.421875 -1.171875 C 3.574219 -1.171875 3.773438 -1.191406 4.023438 -1.226562 Z M 4.023438 -1.226562 "/>
</g>
<g id="glyph-3-1">
<path d="M 0.496094 -3.351562 L 0.496094 -4.730469 L 4.707031 -4.730469 L 4.707031 -3.351562 Z M 0.496094 -3.351562 "/>
</g>
<g id="glyph-3-2">
<path d="M 4.394531 0 L 0.0703125 -11.167969 L 1.667969 -11.167969 L 4.570312 -3.054688 C 4.804688 -2.40625 5 -1.796875 5.15625 -1.226562 C 5.328125 -1.835938 5.53125 -2.445312 5.757812 -3.054688 L 8.773438 -11.167969 L 10.28125 -11.167969 L 5.910156 0 Z M 4.394531 0 "/>
</g>
<g id="glyph-3-3">
<path d="M 6.566406 -2.605469 L 7.984375 -2.429688 C 7.757812 -1.601562 7.34375 -0.960938 6.742188 -0.503906 C 6.136719 -0.046875 5.363281 0.183594 4.425781 0.183594 C 3.242188 0.183594 2.304688 -0.179688 1.609375 -0.910156 C 0.917969 -1.640625 0.570312 -2.660156 0.570312 -3.976562 C 0.570312 -5.335938 0.921875 -6.394531 1.621094 -7.144531 C 2.324219 -7.894531 3.230469 -8.273438 4.347656 -8.273438 C 5.429688 -8.273438 6.316406 -7.902344 7 -7.167969 C 7.6875 -6.429688 8.027344 -5.394531 8.027344 -4.058594 C 8.027344 -3.980469 8.027344 -3.855469 8.019531 -3.695312 L 1.988281 -3.695312 C 2.039062 -2.804688 2.289062 -2.125 2.742188 -1.652344 C 3.195312 -1.179688 3.757812 -0.945312 4.433594 -0.945312 C 4.9375 -0.945312 5.363281 -1.078125 5.71875 -1.339844 C 6.074219 -1.605469 6.359375 -2.027344 6.566406 -2.605469 M 2.0625 -4.820312 L 6.582031 -4.820312 C 6.519531 -5.503906 6.347656 -6.011719 6.0625 -6.351562 C 5.625 -6.878906 5.058594 -7.144531 4.363281 -7.144531 C 3.734375 -7.144531 3.207031 -6.933594 2.777344 -6.511719 C 2.347656 -6.089844 2.109375 -5.527344 2.0625 -4.820312 Z M 2.0625 -4.820312 "/>
</g>
<g id="glyph-3-4">
<path d="M 1.011719 0 L 1.011719 -8.089844 L 2.246094 -8.089844 L 2.246094 -6.863281 C 2.5625 -7.4375 2.851562 -7.816406 3.121094 -8 C 3.386719 -8.179688 3.679688 -8.273438 4 -8.273438 C 4.460938 -8.273438 4.929688 -8.125 5.40625 -7.832031 L 4.9375 -6.558594 C 4.601562 -6.757812 4.265625 -6.855469 3.929688 -6.855469 C 3.628906 -6.855469 3.363281 -6.765625 3.125 -6.585938 C 2.882812 -6.40625 2.714844 -6.15625 2.613281 -5.835938 C 2.460938 -5.347656 2.382812 -4.8125 2.382812 -4.234375 L 2.382812 0 Z M 1.011719 0 "/>
</g>
<g id="glyph-3-5">
<path d="M 1.035156 -9.589844 L 1.035156 -11.167969 L 2.40625 -11.167969 L 2.40625 -9.589844 L 1.035156 -9.589844 M 1.035156 0 L 1.035156 -8.089844 L 2.40625 -8.089844 L 2.40625 0 Z M 1.035156 0 "/>
</g>
<g id="glyph-3-6">
<path d="M 0.996094 0 L 0.996094 -11.167969 L 2.367188 -11.167969 L 2.367188 0 Z M 0.996094 0 "/>
</g>
<g id="glyph-3-7">
<path d="M 6.328125 0 L 6.328125 -1.1875 C 5.699219 -0.273438 4.84375 0.183594 3.761719 0.183594 C 3.285156 0.183594 2.839844 0.0898438 2.425781 -0.0898438 C 2.011719 -0.273438 1.703125 -0.503906 1.503906 -0.78125 C 1.304688 -1.058594 1.164062 -1.398438 1.082031 -1.796875 C 1.027344 -2.066406 0.996094 -2.492188 0.996094 -3.078125 L 0.996094 -8.089844 L 2.367188 -8.089844 L 2.367188 -3.601562 C 2.367188 -2.886719 2.398438 -2.40625 2.453125 -2.15625 C 2.539062 -1.796875 2.722656 -1.511719 3 -1.304688 C 3.28125 -1.101562 3.625 -0.996094 4.039062 -0.996094 C 4.449219 -0.996094 4.835938 -1.101562 5.195312 -1.3125 C 5.554688 -1.523438 5.8125 -1.8125 5.960938 -2.175781 C 6.109375 -2.539062 6.183594 -3.066406 6.183594 -3.753906 L 6.183594 -8.089844 L 7.554688 -8.089844 L 7.554688 0 Z M 6.328125 0 "/>
</g>
<g id="glyph-3-8">
<path d="M 1.027344 0 L 1.027344 -8.089844 L 2.261719 -8.089844 L 2.261719 -6.9375 C 2.855469 -7.828125 3.714844 -8.273438 4.835938 -8.273438 C 5.324219 -8.273438 5.773438 -8.183594 6.179688 -8.007812 C 6.589844 -7.835938 6.894531 -7.605469 7.097656 -7.320312 C 7.300781 -7.035156 7.445312 -6.699219 7.527344 -6.308594 C 7.578125 -6.054688 7.601562 -5.609375 7.601562 -4.972656 L 7.601562 0 L 6.230469 0 L 6.230469 -4.921875 C 6.230469 -5.480469 6.175781 -5.898438 6.070312 -6.171875 C 5.964844 -6.449219 5.773438 -6.671875 5.503906 -6.835938 C 5.230469 -7 4.914062 -7.082031 4.546875 -7.085938 C 3.964844 -7.082031 3.460938 -6.898438 3.035156 -6.527344 C 2.613281 -6.15625 2.398438 -5.453125 2.398438 -4.417969 L 2.398438 0 Z M 1.027344 0 "/>
</g>
<g id="glyph-3-9">
<path d="M 0.777344 0.671875 L 2.109375 0.867188 C 2.164062 1.28125 2.320312 1.578125 2.574219 1.765625 C 2.914062 2.019531 3.378906 2.148438 3.96875 2.148438 C 4.601562 2.148438 5.09375 2.019531 5.4375 1.765625 C 5.785156 1.511719 6.015625 1.15625 6.140625 0.699219 C 6.210938 0.421875 6.242188 -0.164062 6.238281 -1.058594 C 5.640625 -0.351562 4.894531 0 4 0 C 2.886719 0 2.027344 -0.402344 1.417969 -1.203125 C 0.808594 -2.003906 0.503906 -2.96875 0.503906 -4.089844 C 0.503906 -4.863281 0.640625 -5.574219 0.921875 -6.226562 C 1.199219 -6.878906 1.605469 -7.382812 2.136719 -7.738281 C 2.667969 -8.09375 3.289062 -8.273438 4.007812 -8.273438 C 4.960938 -8.273438 5.75 -7.886719 6.367188 -7.113281 L 6.367188 -8.089844 L 7.632812 -8.089844 L 7.632812 -1.097656 C 7.632812 0.164062 7.503906 1.054688 7.246094 1.582031 C 6.992188 2.105469 6.585938 2.519531 6.027344 2.824219 C 5.472656 3.128906 4.789062 3.28125 3.976562 3.28125 C 3.011719 3.28125 2.230469 3.066406 1.636719 2.632812 C 1.042969 2.199219 0.757812 1.542969 0.777344 0.671875 M 1.910156 -4.1875 C 1.910156 -3.128906 2.121094 -2.355469 2.542969 -1.867188 C 2.964844 -1.378906 3.492188 -1.136719 4.128906 -1.136719 C 4.757812 -1.136719 5.285156 -1.378906 5.710938 -1.863281 C 6.140625 -2.347656 6.351562 -3.109375 6.351562 -4.144531 C 6.351562 -5.132812 6.132812 -5.878906 5.695312 -6.382812 C 5.253906 -6.886719 4.726562 -7.136719 4.105469 -7.136719 C 3.496094 -7.136719 2.976562 -6.890625 2.550781 -6.394531 C 2.125 -5.898438 1.910156 -5.164062 1.910156 -4.1875 Z M 1.910156 -4.1875 "/>
</g>
<g id="glyph-3-10">
</g>
<g id="glyph-3-11">
<path d="M 1.027344 0 L 1.027344 -8.089844 L 2.253906 -8.089844 L 2.253906 -6.953125 C 2.507812 -7.351562 2.847656 -7.667969 3.269531 -7.910156 C 3.6875 -8.152344 4.167969 -8.273438 4.707031 -8.273438 C 5.304688 -8.273438 5.796875 -8.148438 6.179688 -7.898438 C 6.566406 -7.648438 6.835938 -7.300781 6.992188 -6.855469 C 7.632812 -7.800781 8.464844 -8.273438 9.492188 -8.273438 C 10.292969 -8.273438 10.910156 -8.050781 11.34375 -7.605469 C 11.773438 -7.160156 11.988281 -6.476562 11.988281 -5.554688 L 11.988281 0 L 10.625 0 L 10.625 -5.097656 C 10.625 -5.644531 10.582031 -6.039062 10.492188 -6.28125 C 10.402344 -6.523438 10.242188 -6.714844 10.007812 -6.863281 C 9.773438 -7.011719 9.5 -7.082031 9.1875 -7.085938 C 8.617188 -7.082031 8.144531 -6.894531 7.769531 -6.515625 C 7.394531 -6.136719 7.207031 -5.53125 7.207031 -4.699219 L 7.207031 0 L 5.835938 0 L 5.835938 -5.257812 C 5.835938 -5.863281 5.722656 -6.320312 5.5 -6.625 C 5.277344 -6.929688 4.910156 -7.082031 4.402344 -7.085938 C 4.015625 -7.082031 3.660156 -6.980469 3.332031 -6.78125 C 3.003906 -6.574219 2.765625 -6.277344 2.621094 -5.886719 C 2.472656 -5.496094 2.398438 -4.933594 2.398438 -4.195312 L 2.398438 0 Z M 1.027344 0 "/>
</g>
<g id="glyph-3-12">
<path d="M 5.8125 0 L 4.441406 0 L 4.441406 -8.738281 C 4.109375 -8.421875 3.679688 -8.105469 3.140625 -7.792969 C 2.605469 -7.476562 2.125 -7.242188 1.699219 -7.085938 L 1.699219 -8.410156 C 2.464844 -8.769531 3.136719 -9.207031 3.710938 -9.71875 C 4.285156 -10.230469 4.691406 -10.730469 4.929688 -11.210938 L 5.8125 -11.210938 Z M 5.8125 0 "/>
</g>
<g id="glyph-3-13">
<path d="M 0.648438 -2.925781 L 2.085938 -3.046875 C 2.195312 -2.347656 2.441406 -1.820312 2.828125 -1.464844 C 3.21875 -1.113281 3.6875 -0.9375 4.234375 -0.9375 C 4.894531 -0.9375 5.453125 -1.1875 5.910156 -1.683594 C 6.367188 -2.179688 6.597656 -2.839844 6.597656 -3.664062 C 6.597656 -4.445312 6.375 -5.0625 5.9375 -5.515625 C 5.5 -5.964844 4.921875 -6.191406 4.210938 -6.191406 C 3.769531 -6.191406 3.371094 -6.09375 3.015625 -5.890625 C 2.660156 -5.691406 2.382812 -5.429688 2.179688 -5.109375 L 0.890625 -5.277344 L 1.972656 -11.015625 L 7.527344 -11.015625 L 7.527344 -9.703125 L 3.070312 -9.703125 L 2.46875 -6.703125 C 3.136719 -7.171875 3.839844 -7.402344 4.578125 -7.402344 C 5.554688 -7.402344 6.375 -7.066406 7.046875 -6.390625 C 7.714844 -5.714844 8.050781 -4.847656 8.050781 -3.785156 C 8.050781 -2.773438 7.757812 -1.902344 7.167969 -1.164062 C 6.453125 -0.261719 5.472656 0.191406 4.234375 0.191406 C 3.21875 0.191406 2.390625 -0.09375 1.75 -0.664062 C 1.105469 -1.230469 0.738281 -1.984375 0.648438 -2.925781 Z M 0.648438 -2.925781 "/>
</g>
<g id="glyph-3-14">
<path d="M 6.277344 0 L 6.277344 -1.019531 C 5.761719 -0.21875 5.007812 0.183594 4.015625 0.183594 C 3.371094 0.183594 2.777344 0.00390625 2.234375 -0.351562 C 1.695312 -0.707031 1.277344 -1.203125 0.980469 -1.839844 C 0.683594 -2.476562 0.53125 -3.210938 0.53125 -4.039062 C 0.53125 -4.84375 0.667969 -5.578125 0.9375 -6.234375 C 1.207031 -6.890625 1.609375 -7.394531 2.148438 -7.746094 C 2.6875 -8.097656 3.289062 -8.273438 3.953125 -8.273438 C 4.441406 -8.273438 4.875 -8.167969 5.257812 -7.964844 C 5.636719 -7.757812 5.945312 -7.488281 6.183594 -7.160156 L 6.183594 -11.167969 L 7.546875 -11.167969 L 7.546875 0 L 6.277344 0 M 1.941406 -4.039062 C 1.941406 -3 2.160156 -2.226562 2.597656 -1.714844 C 3.035156 -1.199219 3.550781 -0.945312 4.144531 -0.945312 C 4.742188 -0.945312 5.253906 -1.191406 5.671875 -1.679688 C 6.089844 -2.167969 6.300781 -2.917969 6.300781 -3.921875 C 6.300781 -5.03125 6.085938 -5.84375 5.660156 -6.359375 C 5.234375 -6.878906 4.707031 -7.136719 4.082031 -7.136719 C 3.472656 -7.136719 2.964844 -6.886719 2.554688 -6.390625 C 2.148438 -5.894531 1.941406 -5.109375 1.941406 -4.039062 Z M 1.941406 -4.039062 "/>
</g>
<g id="glyph-3-15">
<path d="M 1.355469 0 L 1.355469 -7.023438 L 0.144531 -7.023438 L 0.144531 -8.089844 L 1.355469 -8.089844 L 1.355469 -8.949219 C 1.355469 -9.492188 1.402344 -9.898438 1.5 -10.160156 C 1.632812 -10.515625 1.863281 -10.804688 2.199219 -11.027344 C 2.53125 -11.246094 2.996094 -11.355469 3.59375 -11.355469 C 3.980469 -11.355469 4.40625 -11.3125 4.875 -11.21875 L 4.667969 -10.023438 C 4.386719 -10.074219 4.117188 -10.101562 3.863281 -10.101562 C 3.445312 -10.101562 3.152344 -10.011719 2.976562 -9.832031 C 2.804688 -9.65625 2.71875 -9.324219 2.71875 -8.835938 L 2.71875 -8.089844 L 4.296875 -8.089844 L 4.296875 -7.023438 L 2.71875 -7.023438 L 2.71875 0 Z M 1.355469 0 "/>
</g>
<g id="glyph-3-16">
<path d="M 0.304688 0 L 0.304688 -1.113281 L 5.453125 -7.023438 C 4.871094 -6.992188 4.355469 -6.976562 3.90625 -6.976562 L 0.609375 -6.976562 L 0.609375 -8.089844 L 7.222656 -8.089844 L 7.222656 -7.183594 L 2.839844 -2.050781 L 1.996094 -1.113281 C 2.609375 -1.15625 3.1875 -1.179688 3.726562 -1.179688 L 7.464844 -1.179688 L 7.464844 0 Z M 0.304688 0 "/>
</g>
<g id="glyph-3-17">
<path d="M 2.519531 0 L 0.046875 -8.089844 L 1.460938 -8.089844 L 2.75 -3.421875 L 3.230469 -1.683594 C 3.25 -1.769531 3.390625 -2.324219 3.648438 -3.351562 L 4.9375 -8.089844 L 6.34375 -8.089844 L 7.554688 -3.398438 L 7.960938 -1.851562 L 8.425781 -3.414062 L 9.8125 -8.089844 L 11.144531 -8.089844 L 8.613281 0 L 7.191406 0 L 5.902344 -4.84375 L 5.589844 -6.222656 L 3.953125 0 Z M 2.519531 0 "/>
</g>
<g id="glyph-3-18">
<path d="M 0.480469 -2.414062 L 1.835938 -2.628906 C 1.910156 -2.085938 2.125 -1.667969 2.472656 -1.378906 C 2.820312 -1.089844 3.304688 -0.945312 3.929688 -0.945312 C 4.558594 -0.945312 5.027344 -1.074219 5.332031 -1.328125 C 5.636719 -1.585938 5.789062 -1.886719 5.789062 -2.230469 C 5.789062 -2.542969 5.65625 -2.785156 5.386719 -2.964844 C 5.199219 -3.085938 4.730469 -3.238281 3.984375 -3.429688 C 2.976562 -3.679688 2.28125 -3.902344 1.894531 -4.085938 C 1.503906 -4.273438 1.210938 -4.527344 1.007812 -4.855469 C 0.808594 -5.183594 0.707031 -5.546875 0.707031 -5.941406 C 0.707031 -6.300781 0.789062 -6.636719 0.957031 -6.941406 C 1.121094 -7.25 1.34375 -7.503906 1.628906 -7.707031 C 1.84375 -7.867188 2.132812 -8 2.503906 -8.109375 C 2.871094 -8.21875 3.265625 -8.273438 3.6875 -8.273438 C 4.320312 -8.273438 4.878906 -8.179688 5.359375 -8 C 5.839844 -7.816406 6.191406 -7.566406 6.421875 -7.253906 C 6.648438 -6.941406 6.808594 -6.523438 6.894531 -6.003906 L 5.554688 -5.820312 C 5.492188 -6.234375 5.316406 -6.5625 5.023438 -6.792969 C 4.730469 -7.027344 4.320312 -7.144531 3.785156 -7.144531 C 3.15625 -7.144531 2.707031 -7.039062 2.4375 -6.832031 C 2.167969 -6.625 2.035156 -6.378906 2.035156 -6.101562 C 2.035156 -5.921875 2.089844 -5.761719 2.203125 -5.621094 C 2.3125 -5.472656 2.488281 -5.351562 2.726562 -5.257812 C 2.863281 -5.203125 3.269531 -5.089844 3.9375 -4.90625 C 4.90625 -4.648438 5.585938 -4.433594 5.96875 -4.269531 C 6.351562 -4.105469 6.652344 -3.863281 6.871094 -3.550781 C 7.089844 -3.234375 7.199219 -2.84375 7.199219 -2.375 C 7.199219 -1.917969 7.066406 -1.488281 6.796875 -1.085938 C 6.53125 -0.683594 6.148438 -0.371094 5.644531 -0.148438 C 5.140625 0.0742188 4.574219 0.183594 3.9375 0.183594 C 2.886719 0.183594 2.085938 -0.0351562 1.535156 -0.472656 C 0.984375 -0.910156 0.632812 -1.554688 0.480469 -2.414062 Z M 0.480469 -2.414062 "/>
</g>
<g id="glyph-3-19">
<path d="M -0.0234375 0 L 4.265625 -11.167969 L 5.859375 -11.167969 L 10.429688 0 L 8.746094 0 L 7.441406 -3.382812 L 2.773438 -3.382812 L 1.546875 0 L -0.0234375 0 M 3.199219 -4.585938 L 6.984375 -4.585938 L 5.820312 -7.679688 C 5.464844 -8.617188 5.199219 -9.390625 5.027344 -9.992188 C 4.886719 -9.277344 4.683594 -8.566406 4.425781 -7.859375 Z M 3.199219 -4.585938 "/>
</g>
<g id="glyph-3-20">
<path d="M 2.292969 0 L 1.019531 0 L 1.019531 -11.167969 L 2.390625 -11.167969 L 2.390625 -7.183594 C 2.96875 -7.910156 3.710938 -8.273438 4.609375 -8.273438 C 5.105469 -8.273438 5.578125 -8.171875 6.019531 -7.972656 C 6.464844 -7.769531 6.832031 -7.488281 7.117188 -7.125 C 7.40625 -6.761719 7.628906 -6.324219 7.792969 -5.8125 C 7.953125 -5.300781 8.035156 -4.75 8.035156 -4.167969 C 8.035156 -2.78125 7.695312 -1.707031 7.007812 -0.953125 C 6.320312 -0.195312 5.5 0.183594 4.539062 0.183594 C 3.585938 0.183594 2.835938 -0.214844 2.292969 -1.011719 L 2.292969 0 M 2.277344 -4.105469 C 2.277344 -3.136719 2.410156 -2.433594 2.671875 -2.003906 C 3.105469 -1.296875 3.6875 -0.945312 4.425781 -0.945312 C 5.023438 -0.945312 5.542969 -1.203125 5.980469 -1.726562 C 6.417969 -2.246094 6.632812 -3.019531 6.632812 -4.050781 C 6.632812 -5.109375 6.425781 -5.886719 6.007812 -6.390625 C 5.585938 -6.894531 5.082031 -7.144531 4.488281 -7.144531 C 3.886719 -7.144531 3.371094 -6.882812 2.933594 -6.363281 C 2.496094 -5.84375 2.277344 -5.089844 2.277344 -4.105469 Z M 2.277344 -4.105469 "/>
</g>
<g id="glyph-3-21">
<path d="M 1.027344 0 L 1.027344 -11.167969 L 2.398438 -11.167969 L 2.398438 -7.160156 C 3.039062 -7.902344 3.847656 -8.273438 4.820312 -8.273438 C 5.421875 -8.273438 5.941406 -8.152344 6.382812 -7.917969 C 6.824219 -7.683594 7.140625 -7.355469 7.332031 -6.9375 C 7.523438 -6.523438 7.617188 -5.917969 7.617188 -5.125 L 7.617188 0 L 6.246094 0 L 6.246094 -5.125 C 6.246094 -5.8125 6.097656 -6.3125 5.800781 -6.625 C 5.503906 -6.933594 5.082031 -7.089844 4.539062 -7.089844 C 4.132812 -7.089844 3.75 -6.984375 3.394531 -6.777344 C 3.035156 -6.566406 2.78125 -6.277344 2.628906 -5.917969 C 2.476562 -5.558594 2.398438 -5.058594 2.398438 -4.425781 L 2.398438 0 Z M 1.027344 0 "/>
</g>
<g id="glyph-3-22">
<path d="M 6.308594 -2.964844 L 7.65625 -2.789062 C 7.507812 -1.859375 7.132812 -1.132812 6.523438 -0.605469 C 5.917969 -0.078125 5.171875 0.183594 4.289062 0.183594 C 3.179688 0.183594 2.292969 -0.179688 1.617188 -0.902344 C 0.945312 -1.625 0.609375 -2.664062 0.609375 -4.015625 C 0.609375 -4.886719 0.753906 -5.652344 1.042969 -6.308594 C 1.332031 -6.960938 1.773438 -7.453125 2.363281 -7.78125 C 2.957031 -8.109375 3.601562 -8.273438 4.296875 -8.273438 C 5.175781 -8.273438 5.894531 -8.050781 6.453125 -7.605469 C 7.011719 -7.160156 7.367188 -6.53125 7.527344 -5.710938 L 6.191406 -5.507812 C 6.066406 -6.050781 5.839844 -6.460938 5.519531 -6.734375 C 5.195312 -7.007812 4.804688 -7.144531 4.347656 -7.144531 C 3.660156 -7.144531 3.097656 -6.898438 2.664062 -6.402344 C 2.234375 -5.90625 2.019531 -5.125 2.019531 -4.050781 C 2.019531 -2.964844 2.226562 -2.175781 2.644531 -1.683594 C 3.058594 -1.191406 3.601562 -0.945312 4.273438 -0.945312 C 4.8125 -0.945312 5.261719 -1.109375 5.621094 -1.441406 C 5.980469 -1.769531 6.210938 -2.277344 6.308594 -2.964844 Z M 6.308594 -2.964844 "/>
</g>
</g>
<clipPath id="clip-0">
<path clip-rule="nonzero" d="M 44.828125 49.917969 L 1145.523438 49.917969 L 1145.523438 669.78125 L 44.828125 669.78125 Z M 44.828125 49.917969 "/>
</clipPath>
<clipPath id="clip-1">
<path clip-rule="nonzero" d="M 784 542 L 1135 542 L 1135 669.78125 L 784 669.78125 Z M 784 542 "/>
</clipPath>
<clipPath id="clip-2">
<path clip-rule="nonzero" d="M 825 601 L 1135 601 L 1135 669.78125 L 825 669.78125 Z M 825 601 "/>
</clipPath>
<clipPath id="clip-3">
<path clip-rule="nonzero" d="M 913 655 L 1135 655 L 1135 669.78125 L 913 669.78125 Z M 913 655 "/>
</clipPath>
<clipPath id="clip-4">
<path clip-rule="nonzero" d="M 55 542 L 407 542 L 407 669.78125 L 55 669.78125 Z M 55 542 "/>
</clipPath>
<clipPath id="clip-5">
<path clip-rule="nonzero" d="M 55 601 L 366 601 L 366 669.78125 L 55 669.78125 Z M 55 601 "/>
</clipPath>
<clipPath id="clip-6">
<path clip-rule="nonzero" d="M 55 655 L 278 655 L 278 669.78125 L 55 669.78125 Z M 55 655 "/>
</clipPath>
<clipPath id="clip-7">
<path clip-rule="nonzero" d="M 54 102 L 1137 102 L 1137 669.78125 L 54 669.78125 Z M 54 102 "/>
</clipPath>
</defs>
<rect x="-115.2" y="-71.1" width="1382.4" height="853.2" fill="rgb(100%, 100%, 100%)" fill-opacity="1"/>
<rect x="-115.2" y="-71.1" width="1382.4" height="853.2" fill="rgb(100%, 100%, 100%)" fill-opacity="1"/>
<path fill="none" stroke-width="1.260974" stroke-linecap="round" stroke-linejoin="round" stroke="rgb(100%, 100%, 100%)" stroke-opacity="1" stroke-miterlimit="10" d="M 0 711 L 1152 711 L 1152 0 L 0 0 Z M 0 711 "/>
<g clip-path="url(#clip-0)">
<path fill-rule="nonzero" fill="rgb(100%, 100%, 100%)" fill-opacity="1" d="M 44.828125 669.785156 L 1145.523438 669.785156 L 1145.523438 49.921875 L 44.828125 49.921875 Z M 44.828125 669.785156 "/>
</g>
<g clip-path="url(#clip-1)">
<path fill-rule="nonzero" fill="rgb(85.098039%, 85.098039%, 85.098039%)" fill-opacity="1" d="M 784.351562 542.445312 L 787.855469 548.738281 L 791.359375 554.792969 L 794.863281 560.609375 L 798.367188 566.1875 L 801.871094 571.539062 L 805.375 576.664062 L 808.878906 581.566406 L 812.382812 586.257812 L 815.886719 590.738281 L 819.390625 595.015625 L 822.894531 599.097656 L 826.398438 602.984375 L 829.902344 606.6875 L 833.402344 610.214844 L 836.90625 613.566406 L 840.410156 616.753906 L 843.914062 619.777344 L 847.417969 622.652344 L 850.921875 625.375 L 854.425781 627.957031 L 857.929688 630.402344 L 861.433594 632.71875 L 864.9375 634.910156 L 868.441406 636.984375 L 871.945312 638.941406 L 875.449219 640.792969 L 878.953125 642.542969 L 882.457031 644.191406 L 885.960938 645.75 L 889.464844 647.214844 L 892.96875 648.601562 L 896.472656 649.902344 L 899.976562 651.132812 L 903.480469 652.289062 L 906.984375 653.375 L 910.488281 654.398438 L 913.992188 655.359375 L 917.496094 656.265625 L 921 657.117188 L 924.503906 657.914062 L 928.007812 658.664062 L 931.511719 659.367188 L 935.015625 660.03125 L 938.519531 660.648438 L 942.023438 661.230469 L 945.527344 661.777344 L 949.03125 662.289062 L 952.535156 662.769531 L 956.039062 663.21875 L 959.542969 663.640625 L 963.046875 664.035156 L 966.550781 664.40625 L 970.054688 664.753906 L 973.558594 665.078125 L 977.0625 665.382812 L 980.566406 665.667969 L 984.070312 665.933594 L 987.574219 666.183594 L 991.078125 666.414062 L 994.582031 666.632812 L 998.085938 666.835938 L 1001.585938 667.027344 L 1005.089844 667.207031 L 1008.59375 667.375 L 1012.097656 667.53125 L 1015.601562 667.675781 L 1019.105469 667.8125 L 1022.609375 667.941406 L 1026.113281 668.0625 L 1029.617188 668.171875 L 1033.121094 668.277344 L 1036.625 668.375 L 1040.128906 668.464844 L 1043.632812 668.550781 L 1050.640625 668.707031 L 1057.648438 668.839844 L 1061.152344 668.902344 L 1068.160156 669.011719 L 1071.664062 669.0625 L 1075.167969 669.105469 L 1078.671875 669.152344 L 1085.679688 669.230469 L 1089.183594 669.265625 L 1099.695312 669.359375 L 1103.199219 669.386719 L 1113.710938 669.457031 L 1124.222656 669.515625 L 1134.734375 669.5625 L 1134.734375 669.785156 L 784.351562 669.785156 Z M 784.351562 542.445312 "/>
</g>
<g clip-path="url(#clip-2)">
<path fill-rule="nonzero" fill="rgb(74.117647%, 74.117647%, 74.117647%)" fill-opacity="1" d="M 825.183594 601.660156 L 828.28125 605 L 831.375 608.195312 L 834.46875 611.253906 L 837.566406 614.175781 L 840.660156 616.972656 L 843.757812 619.644531 L 846.851562 622.195312 L 849.949219 624.628906 L 853.042969 626.953125 L 856.140625 629.167969 L 859.234375 631.28125 L 862.332031 633.289062 L 865.425781 635.207031 L 868.519531 637.027344 L 871.617188 638.761719 L 874.710938 640.414062 L 877.808594 641.980469 L 880.902344 643.472656 L 884 644.886719 L 887.09375 646.234375 L 890.191406 647.507812 L 893.285156 648.71875 L 896.378906 649.871094 L 899.476562 650.960938 L 902.570312 651.992188 L 905.667969 652.972656 L 908.761719 653.902344 L 911.859375 654.78125 L 914.953125 655.613281 L 918.050781 656.402344 L 921.144531 657.148438 L 924.238281 657.855469 L 927.335938 658.523438 L 930.429688 659.15625 L 933.527344 659.753906 L 936.621094 660.320312 L 939.71875 660.855469 L 942.8125 661.359375 L 945.910156 661.835938 L 949.003906 662.285156 L 952.097656 662.710938 L 955.195312 663.113281 L 958.289062 663.496094 L 961.386719 663.851562 L 964.480469 664.191406 L 967.578125 664.511719 L 970.671875 664.8125 L 973.769531 665.097656 L 976.863281 665.367188 L 979.957031 665.617188 L 983.054688 665.859375 L 986.148438 666.082031 L 989.246094 666.296875 L 992.339844 666.496094 L 995.4375 666.683594 L 998.53125 666.863281 L 1001.628906 667.03125 L 1004.722656 667.1875 L 1007.816406 667.339844 L 1010.914062 667.480469 L 1014.007812 667.613281 L 1017.105469 667.738281 L 1020.199219 667.855469 L 1023.296875 667.964844 L 1026.390625 668.070312 L 1029.488281 668.167969 L 1032.582031 668.261719 L 1035.675781 668.347656 L 1038.773438 668.429688 L 1041.867188 668.507812 L 1044.964844 668.582031 L 1048.058594 668.652344 L 1051.15625 668.714844 L 1054.25 668.777344 L 1057.347656 668.835938 L 1060.441406 668.890625 L 1063.535156 668.941406 L 1066.632812 668.988281 L 1069.726562 669.035156 L 1072.824219 669.078125 L 1075.917969 669.117188 L 1079.015625 669.15625 L 1082.109375 669.191406 L 1085.207031 669.222656 L 1088.300781 669.257812 L 1091.394531 669.285156 L 1094.492188 669.3125 L 1097.585938 669.339844 L 1100.683594 669.367188 L 1103.777344 669.390625 L 1106.875 669.410156 L 1109.96875 669.433594 L 1113.066406 669.453125 L 1116.160156 669.472656 L 1119.253906 669.488281 L 1122.351562 669.503906 L 1125.445312 669.519531 L 1128.542969 669.535156 L 1131.636719 669.550781 L 1134.734375 669.5625 L 1134.734375 669.785156 L 825.183594 669.785156 Z M 825.183594 601.660156 "/>
</g>
<g clip-path="url(#clip-3)">
<path fill-rule="nonzero" fill="rgb(58.823529%, 58.823529%, 58.823529%)" fill-opacity="1" d="M 913.160156 655.136719 L 915.375 655.722656 L 917.589844 656.289062 L 919.808594 656.832031 L 922.023438 657.355469 L 924.238281 657.855469 L 926.453125 658.335938 L 928.671875 658.800781 L 930.886719 659.246094 L 933.101562 659.675781 L 935.316406 660.085938 L 937.535156 660.480469 L 939.75 660.859375 L 941.964844 661.222656 L 944.179688 661.574219 L 946.394531 661.910156 L 948.613281 662.230469 L 950.828125 662.539062 L 953.042969 662.835938 L 955.257812 663.121094 L 957.476562 663.398438 L 959.691406 663.660156 L 961.90625 663.910156 L 964.121094 664.152344 L 966.335938 664.386719 L 968.554688 664.609375 L 970.769531 664.820312 L 972.984375 665.027344 L 975.199219 665.222656 L 977.417969 665.410156 L 979.632812 665.59375 L 981.847656 665.765625 L 984.0625 665.933594 L 986.28125 666.09375 L 988.496094 666.246094 L 990.710938 666.390625 L 992.925781 666.53125 L 995.140625 666.667969 L 997.359375 666.796875 L 999.574219 666.921875 L 1001.789062 667.039062 L 1004.003906 667.152344 L 1006.222656 667.261719 L 1008.4375 667.367188 L 1010.652344 667.46875 L 1015.082031 667.65625 L 1017.300781 667.746094 L 1021.730469 667.910156 L 1023.945312 667.988281 L 1026.164062 668.0625 L 1030.59375 668.203125 L 1032.808594 668.269531 L 1035.023438 668.332031 L 1037.242188 668.390625 L 1039.457031 668.449219 L 1043.886719 668.558594 L 1046.105469 668.609375 L 1050.535156 668.703125 L 1052.75 668.746094 L 1054.96875 668.789062 L 1057.183594 668.832031 L 1061.613281 668.910156 L 1063.828125 668.945312 L 1066.046875 668.980469 L 1072.691406 669.074219 L 1074.910156 669.105469 L 1079.339844 669.160156 L 1083.769531 669.207031 L 1085.988281 669.234375 L 1088.203125 669.253906 L 1090.417969 669.277344 L 1092.632812 669.296875 L 1094.851562 669.316406 L 1099.28125 669.355469 L 1101.496094 669.371094 L 1103.714844 669.390625 L 1108.144531 669.421875 L 1110.359375 669.433594 L 1112.574219 669.449219 L 1114.792969 669.464844 L 1121.4375 669.5 L 1123.65625 669.511719 L 1128.085938 669.535156 L 1130.300781 669.542969 L 1132.515625 669.554688 L 1134.734375 669.5625 L 1134.734375 669.785156 L 913.160156 669.785156 Z M 913.160156 655.136719 "/>
</g>
<g clip-path="url(#clip-4)">
<path fill-rule="nonzero" fill="rgb(85.098039%, 85.098039%, 85.098039%)" fill-opacity="1" d="M 55.621094 669.5625 L 66.132812 669.515625 L 76.644531 669.457031 L 87.15625 669.386719 L 90.660156 669.359375 L 101.171875 669.265625 L 104.675781 669.230469 L 108.179688 669.191406 L 111.679688 669.152344 L 115.183594 669.105469 L 118.6875 669.0625 L 122.191406 669.011719 L 129.199219 668.902344 L 132.703125 668.839844 L 139.710938 668.707031 L 146.71875 668.550781 L 150.222656 668.464844 L 153.726562 668.375 L 157.230469 668.277344 L 160.734375 668.171875 L 164.238281 668.0625 L 167.742188 667.941406 L 171.246094 667.8125 L 174.75 667.675781 L 178.253906 667.53125 L 181.757812 667.375 L 185.261719 667.207031 L 188.765625 667.027344 L 192.269531 666.835938 L 195.773438 666.632812 L 199.277344 666.414062 L 202.78125 666.183594 L 206.285156 665.933594 L 209.789062 665.667969 L 213.292969 665.382812 L 216.796875 665.078125 L 220.300781 664.753906 L 223.804688 664.40625 L 227.308594 664.035156 L 230.8125 663.640625 L 234.316406 663.21875 L 237.820312 662.769531 L 241.324219 662.289062 L 244.828125 661.777344 L 248.332031 661.230469 L 251.835938 660.648438 L 255.339844 660.03125 L 258.84375 659.367188 L 262.347656 658.664062 L 265.851562 657.914062 L 269.355469 657.117188 L 272.859375 656.265625 L 276.363281 655.359375 L 279.863281 654.398438 L 283.367188 653.375 L 286.871094 652.289062 L 290.375 651.132812 L 293.878906 649.902344 L 297.382812 648.601562 L 300.886719 647.214844 L 304.390625 645.75 L 307.894531 644.191406 L 311.398438 642.542969 L 314.902344 640.792969 L 318.40625 638.941406 L 321.910156 636.984375 L 325.414062 634.910156 L 328.917969 632.71875 L 332.421875 630.402344 L 335.925781 627.957031 L 339.429688 625.375 L 342.933594 622.652344 L 346.4375 619.777344 L 349.941406 616.753906 L 353.445312 613.566406 L 356.949219 610.214844 L 360.453125 606.6875 L 363.957031 602.984375 L 367.460938 599.097656 L 370.964844 595.015625 L 374.46875 590.738281 L 377.972656 586.257812 L 381.476562 581.566406 L 384.980469 576.664062 L 388.484375 571.539062 L 391.988281 566.1875 L 395.492188 560.609375 L 398.996094 554.792969 L 402.5 548.738281 L 406.003906 542.445312 L 406.003906 669.785156 L 55.621094 669.785156 Z M 55.621094 669.5625 "/>
</g>
<g clip-path="url(#clip-5)">
<path fill-rule="nonzero" fill="rgb(74.117647%, 74.117647%, 74.117647%)" fill-opacity="1" d="M 55.621094 669.5625 L 58.714844 669.550781 L 61.8125 669.535156 L 64.90625 669.519531 L 68.003906 669.503906 L 74.191406 669.472656 L 77.289062 669.453125 L 80.382812 669.433594 L 83.480469 669.410156 L 86.574219 669.390625 L 89.671875 669.367188 L 92.765625 669.339844 L 95.863281 669.3125 L 102.050781 669.257812 L 105.148438 669.222656 L 108.242188 669.191406 L 111.339844 669.15625 L 114.433594 669.117188 L 117.53125 669.078125 L 120.625 669.035156 L 123.722656 668.988281 L 126.816406 668.941406 L 129.914062 668.890625 L 133.007812 668.835938 L 136.101562 668.777344 L 139.199219 668.714844 L 142.292969 668.652344 L 145.390625 668.582031 L 148.484375 668.507812 L 151.582031 668.429688 L 154.675781 668.347656 L 157.773438 668.261719 L 160.867188 668.167969 L 163.960938 668.070312 L 167.058594 667.964844 L 170.152344 667.855469 L 173.25 667.738281 L 176.34375 667.613281 L 179.441406 667.480469 L 182.535156 667.339844 L 185.632812 667.1875 L 188.726562 667.03125 L 191.820312 666.863281 L 194.917969 666.683594 L 198.011719 666.496094 L 201.109375 666.296875 L 204.203125 666.082031 L 207.300781 665.859375 L 210.394531 665.617188 L 213.492188 665.367188 L 216.585938 665.097656 L 219.679688 664.8125 L 222.777344 664.511719 L 225.871094 664.191406 L 228.96875 663.851562 L 232.0625 663.496094 L 235.160156 663.113281 L 238.253906 662.710938 L 241.351562 662.285156 L 244.445312 661.835938 L 247.539062 661.359375 L 250.636719 660.855469 L 253.730469 660.320312 L 256.828125 659.753906 L 259.921875 659.15625 L 263.019531 658.523438 L 266.113281 657.855469 L 269.210938 657.148438 L 272.304688 656.402344 L 275.398438 655.613281 L 278.496094 654.78125 L 281.589844 653.902344 L 284.6875 652.972656 L 287.78125 651.992188 L 290.878906 650.960938 L 293.972656 649.871094 L 297.070312 648.71875 L 300.164062 647.507812 L 303.257812 646.234375 L 306.355469 644.886719 L 309.449219 643.472656 L 312.546875 641.980469 L 315.640625 640.414062 L 318.738281 638.761719 L 321.832031 637.027344 L 324.929688 635.207031 L 328.023438 633.289062 L 331.117188 631.28125 L 334.214844 629.167969 L 337.308594 626.953125 L 340.40625 624.628906 L 343.5 622.195312 L 346.597656 619.644531 L 349.691406 616.972656 L 352.789062 614.175781 L 355.882812 611.253906 L 358.976562 608.195312 L 362.074219 605 L 365.167969 601.660156 L 365.167969 669.785156 L 55.621094 669.785156 Z M 55.621094 669.5625 "/>
</g>
<g clip-path="url(#clip-6)">
<path fill-rule="nonzero" fill="rgb(58.823529%, 58.823529%, 58.823529%)" fill-opacity="1" d="M 55.621094 669.5625 L 57.835938 669.554688 L 60.050781 669.542969 L 62.265625 669.535156 L 64.484375 669.523438 L 71.128906 669.488281 L 73.347656 669.476562 L 75.5625 669.464844 L 79.992188 669.433594 L 82.210938 669.421875 L 86.640625 669.390625 L 88.855469 669.371094 L 91.070312 669.355469 L 93.289062 669.335938 L 99.933594 669.277344 L 102.152344 669.253906 L 104.367188 669.234375 L 106.582031 669.207031 L 111.011719 669.160156 L 113.230469 669.132812 L 115.445312 669.105469 L 119.875 669.042969 L 122.09375 669.011719 L 124.308594 668.980469 L 128.738281 668.910156 L 130.957031 668.871094 L 133.171875 668.832031 L 139.816406 668.703125 L 142.035156 668.65625 L 144.25 668.609375 L 146.464844 668.558594 L 148.679688 668.503906 L 150.898438 668.449219 L 155.328125 668.332031 L 157.542969 668.269531 L 159.757812 668.203125 L 161.976562 668.132812 L 164.191406 668.0625 L 166.40625 667.988281 L 168.621094 667.910156 L 170.839844 667.828125 L 173.054688 667.746094 L 175.269531 667.65625 L 179.699219 667.46875 L 181.917969 667.367188 L 184.132812 667.261719 L 186.347656 667.152344 L 188.5625 667.039062 L 190.78125 666.921875 L 192.996094 666.796875 L 195.210938 666.667969 L 197.425781 666.53125 L 199.644531 666.390625 L 201.859375 666.246094 L 204.074219 666.09375 L 206.289062 665.933594 L 208.503906 665.765625 L 210.722656 665.59375 L 212.9375 665.410156 L 215.152344 665.222656 L 217.367188 665.027344 L 219.585938 664.820312 L 221.800781 664.609375 L 224.015625 664.386719 L 226.230469 664.152344 L 228.445312 663.910156 L 230.664062 663.660156 L 232.878906 663.398438 L 235.09375 663.121094 L 237.308594 662.835938 L 239.527344 662.539062 L 241.742188 662.230469 L 243.957031 661.910156 L 246.171875 661.574219 L 248.390625 661.222656 L 250.605469 660.859375 L 252.820312 660.480469 L 255.035156 660.085938 L 257.25 659.675781 L 259.46875 659.246094 L 261.683594 658.800781 L 263.898438 658.335938 L 266.113281 657.855469 L 268.332031 657.355469 L 270.546875 656.832031 L 272.761719 656.289062 L 274.976562 655.722656 L 277.191406 655.136719 L 277.191406 669.785156 L 55.621094 669.785156 Z M 55.621094 669.5625 "/>
</g>
<g clip-path="url(#clip-7)">
<path fill="none" stroke-width="2.560748" stroke-linecap="butt" stroke-linejoin="round" stroke="rgb(16.078431%, 50.196078%, 72.54902%)" stroke-opacity="1" stroke-miterlimit="10" d="M 55.621094 669.5625 L 66.410156 669.511719 L 77.203125 669.453125 L 87.992188 669.378906 L 98.785156 669.289062 L 109.574219 669.175781 L 120.367188 669.039062 L 131.160156 668.867188 L 141.949219 668.660156 L 152.742188 668.402344 L 163.53125 668.085938 L 174.324219 667.695312 L 185.113281 667.214844 L 195.90625 666.625 L 206.695312 665.902344 L 217.488281 665.015625 L 228.277344 663.929688 L 239.070312 662.601562 L 249.859375 660.984375 L 260.652344 659.011719 L 271.441406 656.613281 L 282.234375 653.714844 L 293.023438 650.210938 L 303.816406 645.996094 L 314.609375 640.945312 L 325.398438 634.921875 L 336.191406 627.765625 L 346.980469 619.320312 L 357.773438 609.402344 L 368.5625 597.832031 L 379.355469 584.433594 L 390.144531 569.027344 L 400.9375 551.46875 L 411.726562 531.632812 L 422.519531 509.445312 L 433.308594 484.890625 L 444.101562 458.03125 L 454.890625 429.023438 L 465.683594 398.125 L 476.472656 365.714844 L 487.265625 332.28125 L 498.054688 298.4375 L 508.847656 264.890625 L 519.640625 232.4375 L 530.429688 201.933594 L 541.222656 174.246094 L 552.011719 150.214844 L 562.804688 130.617188 L 573.59375 116.109375 L 584.386719 107.195312 L 595.175781 104.1875 L 605.96875 107.195312 L 616.757812 116.109375 L 627.550781 130.617188 L 638.339844 150.214844 L 649.132812 174.246094 L 659.921875 201.933594 L 670.714844 232.4375 L 681.503906 264.890625 L 692.296875 298.4375 L 703.089844 332.28125 L 713.878906 365.714844 L 724.671875 398.125 L 735.460938 429.023438 L 746.253906 458.03125 L 757.042969 484.890625 L 767.835938 509.445312 L 778.625 531.632812 L 789.417969 551.46875 L 800.207031 569.027344 L 811 584.433594 L 821.789062 597.832031 L 832.582031 609.402344 L 843.371094 619.320312 L 854.164062 627.765625 L 864.953125 634.921875 L 875.746094 640.945312 L 886.539062 645.996094 L 897.328125 650.210938 L 908.121094 653.714844 L 918.910156 656.613281 L 929.703125 659.011719 L 940.492188 660.984375 L 951.285156 662.601562 L 962.074219 663.929688 L 972.867188 665.015625 L 983.65625 665.902344 L 994.449219 666.625 L 1005.238281 667.214844 L 1016.03125 667.695312 L 1026.820312 668.085938 L 1037.613281 668.402344 L 1048.402344 668.660156 L 1059.195312 668.867188 L 1069.988281 669.039062 L 1080.777344 669.175781 L 1091.570312 669.289062 L 1102.359375 669.378906 L 1113.152344 669.453125 L 1123.941406 669.511719 L 1134.734375 669.5625 "/>
</g>
<g fill="rgb(0%, 0%, 0%)" fill-opacity="1">
<use xlink:href="#glyph-0-0" x="784.351562" y="428.785156"/>
<use xlink:href="#glyph-0-1" x="789.889986" y="428.785156"/>
<use xlink:href="#glyph-0-2" x="792.656766" y="428.785156"/>
<use xlink:href="#glyph-0-1" x="798.472354" y="428.785156"/>
<use xlink:href="#glyph-0-3" x="801.239134" y="428.785156"/>
<use xlink:href="#glyph-0-4" x="806.777558" y="428.785156"/>
<use xlink:href="#glyph-0-5" x="809.544338" y="428.785156"/>
<use xlink:href="#glyph-0-3" x="815.082762" y="428.785156"/>
<use xlink:href="#glyph-0-1" x="820.621185" y="428.785156"/>
<use xlink:href="#glyph-0-6" x="823.387966" y="428.785156"/>
<use xlink:href="#glyph-0-1" x="829.198691" y="428.785156"/>
<use xlink:href="#glyph-0-7" x="831.965471" y="428.785156"/>
</g>
<path fill="none" stroke-width="1.260974" stroke-linecap="butt" stroke-linejoin="round" stroke="rgb(0%, 0%, 0%)" stroke-opacity="1" stroke-miterlimit="10" d="M 784.351562 453.550781 L 1129.335938 453.550781 "/>
<path fill-rule="nonzero" fill="rgb(0%, 0%, 0%)" fill-opacity="1" stroke-width="1.260974" stroke-linecap="butt" stroke-linejoin="round" stroke="rgb(0%, 0%, 0%)" stroke-opacity="1" stroke-miterlimit="10" d="M 1124.917969 456.101562 L 1129.335938 453.550781 L 1124.917969 451 Z M 1124.917969 456.101562 "/>
<g fill="rgb(0%, 0%, 0%)" fill-opacity="1">
<use xlink:href="#glyph-0-0" x="825.183594" y="342.292969"/>
<use xlink:href="#glyph-0-1" x="830.722017" y="342.292969"/>
<use xlink:href="#glyph-0-2" x="833.488798" y="342.292969"/>
<use xlink:href="#glyph-0-1" x="839.304385" y="342.292969"/>
<use xlink:href="#glyph-0-3" x="842.071166" y="342.292969"/>
<use xlink:href="#glyph-0-4" x="847.609589" y="342.292969"/>
<use xlink:href="#glyph-0-3" x="850.37637" y="342.292969"/>
<use xlink:href="#glyph-0-8" x="855.914793" y="342.292969"/>
<use xlink:href="#glyph-0-1" x="861.453216" y="342.292969"/>
<use xlink:href="#glyph-0-6" x="864.219997" y="342.292969"/>
<use xlink:href="#glyph-0-1" x="870.030722" y="342.292969"/>
<use xlink:href="#glyph-0-7" x="872.797502" y="342.292969"/>
<use xlink:href="#glyph-0-7" x="876.67294" y="342.292969"/>
</g>
<path fill="none" stroke-width="1.260974" stroke-linecap="butt" stroke-linejoin="round" stroke="rgb(0%, 0%, 0%)" stroke-opacity="1" stroke-miterlimit="10" d="M 825.183594 367.058594 L 1129.335938 367.058594 "/>
<path fill-rule="nonzero" fill="rgb(0%, 0%, 0%)" fill-opacity="1" stroke-width="1.260974" stroke-linecap="butt" stroke-linejoin="round" stroke="rgb(0%, 0%, 0%)" stroke-opacity="1" stroke-miterlimit="10" d="M 1124.917969 369.609375 L 1129.335938 367.058594 L 1124.917969 364.507812 Z M 1124.917969 369.609375 "/>
<g fill="rgb(0%, 0%, 0%)" fill-opacity="1">
<use xlink:href="#glyph-0-0" x="913.160156" y="255.800781"/>
<use xlink:href="#glyph-0-1" x="918.69858" y="255.800781"/>
<use xlink:href="#glyph-0-2" x="921.46536" y="255.800781"/>
<use xlink:href="#glyph-0-1" x="927.280948" y="255.800781"/>
<use xlink:href="#glyph-0-3" x="930.047728" y="255.800781"/>
<use xlink:href="#glyph-0-4" x="935.586152" y="255.800781"/>
<use xlink:href="#glyph-0-3" x="938.352932" y="255.800781"/>
<use xlink:href="#glyph-0-5" x="943.891355" y="255.800781"/>
<use xlink:href="#glyph-0-1" x="949.429779" y="255.800781"/>
<use xlink:href="#glyph-0-6" x="952.196559" y="255.800781"/>
<use xlink:href="#glyph-0-1" x="958.007285" y="255.800781"/>
<use xlink:href="#glyph-0-7" x="960.774065" y="255.800781"/>
<use xlink:href="#glyph-0-7" x="964.649503" y="255.800781"/>
<use xlink:href="#glyph-0-7" x="968.52494" y="255.800781"/>
</g>
<path fill="none" stroke-width="1.260974" stroke-linecap="butt" stroke-linejoin="round" stroke="rgb(0%, 0%, 0%)" stroke-opacity="1" stroke-miterlimit="10" d="M 913.160156 280.566406 L 1129.335938 280.566406 "/>
<path fill-rule="nonzero" fill="rgb(0%, 0%, 0%)" fill-opacity="1" stroke-width="1.260974" stroke-linecap="butt" stroke-linejoin="round" stroke="rgb(0%, 0%, 0%)" stroke-opacity="1" stroke-miterlimit="10" d="M 1124.917969 283.117188 L 1129.335938 280.566406 L 1124.917969 278.015625 Z M 1124.917969 283.117188 "/>
<path fill="none" stroke-width="1.260974" stroke-linecap="butt" stroke-linejoin="round" stroke="rgb(0%, 0%, 0%)" stroke-opacity="1" stroke-miterlimit="10" d="M 406.003906 453.550781 L 61.015625 453.550781 "/>
<path fill-rule="nonzero" fill="rgb(0%, 0%, 0%)" fill-opacity="1" stroke-width="1.260974" stroke-linecap="butt" stroke-linejoin="round" stroke="rgb(0%, 0%, 0%)" stroke-opacity="1" stroke-miterlimit="10" d="M 65.433594 451 L 61.015625 453.550781 L 65.433594 456.101562 Z M 65.433594 451 "/>
<path fill="none" stroke-width="1.260974" stroke-linecap="butt" stroke-linejoin="round" stroke="rgb(0%, 0%, 0%)" stroke-opacity="1" stroke-miterlimit="10" d="M 365.167969 367.058594 L 61.015625 367.058594 "/>
<path fill-rule="nonzero" fill="rgb(0%, 0%, 0%)" fill-opacity="1" stroke-width="1.260974" stroke-linecap="butt" stroke-linejoin="round" stroke="rgb(0%, 0%, 0%)" stroke-opacity="1" stroke-miterlimit="10" d="M 65.433594 364.507812 L 61.015625 367.058594 L 65.433594 369.609375 Z M 65.433594 364.507812 "/>
<path fill="none" stroke-width="1.260974" stroke-linecap="butt" stroke-linejoin="round" stroke="rgb(0%, 0%, 0%)" stroke-opacity="1" stroke-miterlimit="10" d="M 277.191406 280.566406 L 61.015625 280.566406 "/>
<path fill-rule="nonzero" fill="rgb(0%, 0%, 0%)" fill-opacity="1" stroke-width="1.260974" stroke-linecap="butt" stroke-linejoin="round" stroke="rgb(0%, 0%, 0%)" stroke-opacity="1" stroke-miterlimit="10" d="M 65.433594 278.015625 L 61.015625 280.566406 L 65.433594 283.117188 Z M 65.433594 278.015625 "/>
<path fill="none" stroke-width="1.260974" stroke-linecap="square" stroke-linejoin="round" stroke="rgb(0%, 0%, 0%)" stroke-opacity="1" stroke-miterlimit="10" d="M 44.828125 669.785156 L 44.828125 49.917969 "/>
<g fill="rgb(0%, 0%, 0%)" fill-opacity="1">
<use xlink:href="#glyph-1-0" x="33.214844" y="674.003906"/>
</g>
<g fill="rgb(0%, 0%, 0%)" fill-opacity="1">
<use xlink:href="#glyph-1-1" x="30.328125" y="529.851562"/>
<use xlink:href="#glyph-1-2" x="33.217578" y="529.851562"/>
</g>
<g fill="rgb(0%, 0%, 0%)" fill-opacity="1">
<use xlink:href="#glyph-1-1" x="30.328125" y="385.695312"/>
<use xlink:href="#glyph-1-3" x="33.217578" y="385.695312"/>
</g>
<g fill="rgb(0%, 0%, 0%)" fill-opacity="1">
<use xlink:href="#glyph-1-1" x="30.328125" y="241.542969"/>
<use xlink:href="#glyph-1-4" x="33.217578" y="241.542969"/>
</g>
<g fill="rgb(0%, 0%, 0%)" fill-opacity="1">
<use xlink:href="#glyph-1-1" x="30.328125" y="97.386719"/>
<use xlink:href="#glyph-1-5" x="33.217578" y="97.386719"/>
</g>
<path fill="none" stroke-width="1.260974" stroke-linecap="butt" stroke-linejoin="round" stroke="rgb(0%, 0%, 0%)" stroke-opacity="1" stroke-miterlimit="10" d="M 41.589844 669.785156 L 44.828125 669.785156 "/>
<path fill="none" stroke-width="1.260974" stroke-linecap="butt" stroke-linejoin="round" stroke="rgb(0%, 0%, 0%)" stroke-opacity="1" stroke-miterlimit="10" d="M 41.589844 525.628906 L 44.828125 525.628906 "/>
<path fill="none" stroke-width="1.260974" stroke-linecap="butt" stroke-linejoin="round" stroke="rgb(0%, 0%, 0%)" stroke-opacity="1" stroke-miterlimit="10" d="M 41.589844 381.472656 L 44.828125 381.472656 "/>
<path fill="none" stroke-width="1.260974" stroke-linecap="butt" stroke-linejoin="round" stroke="rgb(0%, 0%, 0%)" stroke-opacity="1" stroke-miterlimit="10" d="M 41.589844 237.320312 L 44.828125 237.320312 "/>
<path fill="none" stroke-width="1.260974" stroke-linecap="butt" stroke-linejoin="round" stroke="rgb(0%, 0%, 0%)" stroke-opacity="1" stroke-miterlimit="10" d="M 41.589844 93.164062 L 44.828125 93.164062 "/>
<path fill="none" stroke-width="1.260974" stroke-linecap="square" stroke-linejoin="round" stroke="rgb(0%, 0%, 0%)" stroke-opacity="1" stroke-miterlimit="10" d="M 44.828125 669.785156 L 1145.523438 669.785156 "/>
<path fill="none" stroke-width="1.260974" stroke-linecap="butt" stroke-linejoin="round" stroke="rgb(0%, 0%, 0%)" stroke-opacity="1" stroke-miterlimit="10" d="M 55.621094 673.019531 L 55.621094 669.785156 "/>
<path fill="none" stroke-width="1.260974" stroke-linecap="butt" stroke-linejoin="round" stroke="rgb(0%, 0%, 0%)" stroke-opacity="1" stroke-miterlimit="10" d="M 163.53125 673.019531 L 163.53125 669.785156 "/>
<path fill="none" stroke-width="1.260974" stroke-linecap="butt" stroke-linejoin="round" stroke="rgb(0%, 0%, 0%)" stroke-opacity="1" stroke-miterlimit="10" d="M 271.441406 673.019531 L 271.441406 669.785156 "/>
<path fill="none" stroke-width="1.260974" stroke-linecap="butt" stroke-linejoin="round" stroke="rgb(0%, 0%, 0%)" stroke-opacity="1" stroke-miterlimit="10" d="M 379.355469 673.019531 L 379.355469 669.785156 "/>
<path fill="none" stroke-width="1.260974" stroke-linecap="butt" stroke-linejoin="round" stroke="rgb(0%, 0%, 0%)" stroke-opacity="1" stroke-miterlimit="10" d="M 487.265625 673.019531 L 487.265625 669.785156 "/>
<path fill="none" stroke-width="1.260974" stroke-linecap="butt" stroke-linejoin="round" stroke="rgb(0%, 0%, 0%)" stroke-opacity="1" stroke-miterlimit="10" d="M 595.175781 673.019531 L 595.175781 669.785156 "/>
<path fill="none" stroke-width="1.260974" stroke-linecap="butt" stroke-linejoin="round" stroke="rgb(0%, 0%, 0%)" stroke-opacity="1" stroke-miterlimit="10" d="M 703.089844 673.019531 L 703.089844 669.785156 "/>
<path fill="none" stroke-width="1.260974" stroke-linecap="butt" stroke-linejoin="round" stroke="rgb(0%, 0%, 0%)" stroke-opacity="1" stroke-miterlimit="10" d="M 811 673.019531 L 811 669.785156 "/>
<path fill="none" stroke-width="1.260974" stroke-linecap="butt" stroke-linejoin="round" stroke="rgb(0%, 0%, 0%)" stroke-opacity="1" stroke-miterlimit="10" d="M 918.910156 673.019531 L 918.910156 669.785156 "/>
<path fill="none" stroke-width="1.260974" stroke-linecap="butt" stroke-linejoin="round" stroke="rgb(0%, 0%, 0%)" stroke-opacity="1" stroke-miterlimit="10" d="M 1026.820312 673.019531 L 1026.820312 669.785156 "/>
<path fill="none" stroke-width="1.260974" stroke-linecap="butt" stroke-linejoin="round" stroke="rgb(0%, 0%, 0%)" stroke-opacity="1" stroke-miterlimit="10" d="M 1134.734375 673.019531 L 1134.734375 669.785156 "/>
<g fill="rgb(0%, 0%, 0%)" fill-opacity="1">
<use xlink:href="#glyph-1-6" x="50.996094" y="684.054688"/>
<use xlink:href="#glyph-1-7" x="54.459375" y="684.054688"/>
</g>
<g fill="rgb(0%, 0%, 0%)" fill-opacity="1">
<use xlink:href="#glyph-1-6" x="158.90625" y="684.054688"/>
<use xlink:href="#glyph-1-5" x="162.369531" y="684.054688"/>
</g>
<g fill="rgb(0%, 0%, 0%)" fill-opacity="1">
<use xlink:href="#glyph-1-6" x="266.816406" y="684.054688"/>
<use xlink:href="#glyph-1-4" x="270.279688" y="684.054688"/>
</g>
<g fill="rgb(0%, 0%, 0%)" fill-opacity="1">
<use xlink:href="#glyph-1-6" x="374.730469" y="684.054688"/>
<use xlink:href="#glyph-1-3" x="378.19375" y="684.054688"/>
</g>
<g fill="rgb(0%, 0%, 0%)" fill-opacity="1">
<use xlink:href="#glyph-1-6" x="482.640625" y="684.054688"/>
<use xlink:href="#glyph-1-2" x="486.103906" y="684.054688"/>
</g>
<g fill="rgb(0%, 0%, 0%)" fill-opacity="1">
<use xlink:href="#glyph-1-0" x="592.285156" y="684.054688"/>
</g>
<g fill="rgb(0%, 0%, 0%)" fill-opacity="1">
<use xlink:href="#glyph-1-2" x="700.199219" y="684.054688"/>
</g>
<g fill="rgb(0%, 0%, 0%)" fill-opacity="1">
<use xlink:href="#glyph-1-3" x="808.109375" y="684.054688"/>
</g>
<g fill="rgb(0%, 0%, 0%)" fill-opacity="1">
<use xlink:href="#glyph-1-4" x="916.019531" y="684.054688"/>
</g>
<g fill="rgb(0%, 0%, 0%)" fill-opacity="1">
<use xlink:href="#glyph-1-5" x="1023.929688" y="684.054688"/>
</g>
<g fill="rgb(0%, 0%, 0%)" fill-opacity="1">
<use xlink:href="#glyph-1-7" x="1131.84375" y="684.054688"/>
</g>
<g fill="rgb(0%, 0%, 0%)" fill-opacity="1">
<use xlink:href="#glyph-2-0" x="593.371094" y="700.789062"/>
</g>
<g fill="rgb(0%, 0%, 0%)" fill-opacity="1">
<use xlink:href="#glyph-2-1" x="6.476562" y="365.003906"/>
<use xlink:href="#glyph-2-2" x="10.088379" y="365.003906"/>
<use xlink:href="#glyph-2-0" x="14.41748" y="365.003906"/>
<use xlink:href="#glyph-2-3" x="18.029297" y="365.003906"/>
</g>
<g fill="rgb(0%, 0%, 0%)" fill-opacity="1">
<use xlink:href="#glyph-2-1" x="44.828125" y="39.707031"/>
<use xlink:href="#glyph-2-4" x="48.439941" y="39.707031"/>
<use xlink:href="#glyph-2-5" x="55.669922" y="39.707031"/>
<use xlink:href="#glyph-2-6" x="59.999023" y="39.707031"/>
<use xlink:href="#glyph-2-7" x="63.61084" y="39.707031"/>
<use xlink:href="#glyph-2-8" x="70.84082" y="39.707031"/>
<use xlink:href="#glyph-2-9" x="73.729004" y="39.707031"/>
<use xlink:href="#glyph-2-6" x="80.958984" y="39.707031"/>
<use xlink:href="#glyph-2-10" x="84.570801" y="39.707031"/>
<use xlink:href="#glyph-2-11" x="91.800781" y="39.707031"/>
<use xlink:href="#glyph-2-9" x="99.030762" y="39.707031"/>
<use xlink:href="#glyph-2-5" x="106.260742" y="39.707031"/>
<use xlink:href="#glyph-2-9" x="110.589844" y="39.707031"/>
<use xlink:href="#glyph-2-12" x="117.819824" y="39.707031"/>
<use xlink:href="#glyph-2-6" x="125.049805" y="39.707031"/>
<use xlink:href="#glyph-2-13" x="128.661621" y="39.707031"/>
<use xlink:href="#glyph-2-12" x="135.891602" y="39.707031"/>
<use xlink:href="#glyph-2-7" x="143.121582" y="39.707031"/>
<use xlink:href="#glyph-2-6" x="150.351562" y="39.707031"/>
<use xlink:href="#glyph-2-13" x="153.963379" y="39.707031"/>
<use xlink:href="#glyph-2-12" x="161.193359" y="39.707031"/>
<use xlink:href="#glyph-2-0" x="168.42334" y="39.707031"/>
<use xlink:href="#glyph-2-9" x="172.035156" y="39.707031"/>
<use xlink:href="#glyph-2-5" x="179.265137" y="39.707031"/>
<use xlink:href="#glyph-2-9" x="183.594238" y="39.707031"/>
<use xlink:href="#glyph-2-12" x="190.824219" y="39.707031"/>
<use xlink:href="#glyph-2-6" x="198.054199" y="39.707031"/>
<use xlink:href="#glyph-2-14" x="201.666016" y="39.707031"/>
<use xlink:href="#glyph-2-15" x="208.895996" y="39.707031"/>
<use xlink:href="#glyph-2-16" x="216.125977" y="39.707031"/>
<use xlink:href="#glyph-2-17" x="227.685059" y="39.707031"/>
<use xlink:href="#glyph-2-6" x="231.296875" y="39.707031"/>
<use xlink:href="#glyph-2-18" x="234.908691" y="39.707031"/>
<use xlink:href="#glyph-2-16" x="242.138672" y="39.707031"/>
<use xlink:href="#glyph-2-17" x="253.697754" y="39.707031"/>
<use xlink:href="#glyph-2-6" x="257.30957" y="39.707031"/>
<use xlink:href="#glyph-2-14" x="260.921387" y="39.707031"/>
<use xlink:href="#glyph-2-16" x="268.151367" y="39.707031"/>
</g>
<g fill="rgb(0%, 0%, 0%)" fill-opacity="1">
<use xlink:href="#glyph-3-0" x="44.828125" y="18.640625"/>
<use xlink:href="#glyph-3-1" x="49.162305" y="18.640625"/>
<use xlink:href="#glyph-3-2" x="54.357227" y="18.640625"/>
<use xlink:href="#glyph-3-3" x="64.762305" y="18.640625"/>
<use xlink:href="#glyph-3-4" x="73.438281" y="18.640625"/>
<use xlink:href="#glyph-3-0" x="78.633203" y="18.640625"/>
<use xlink:href="#glyph-3-3" x="82.967383" y="18.640625"/>
<use xlink:href="#glyph-3-5" x="91.643359" y="18.640625"/>
<use xlink:href="#glyph-3-6" x="95.10918" y="18.640625"/>
<use xlink:href="#glyph-3-7" x="98.575" y="18.640625"/>
<use xlink:href="#glyph-3-8" x="107.250977" y="18.640625"/>
<use xlink:href="#glyph-3-9" x="115.926953" y="18.640625"/>
<use xlink:href="#glyph-3-10" x="124.60293" y="18.640625"/>
<use xlink:href="#glyph-3-11" x="128.937109" y="18.640625"/>
<use xlink:href="#glyph-3-5" x="141.932031" y="18.640625"/>
<use xlink:href="#glyph-3-0" x="145.397852" y="18.640625"/>
<use xlink:href="#glyph-3-10" x="149.732031" y="18.640625"/>
<use xlink:href="#glyph-3-12" x="154.066211" y="18.640625"/>
<use xlink:href="#glyph-3-13" x="162.742188" y="18.640625"/>
<use xlink:href="#glyph-3-10" x="171.418164" y="18.640625"/>
<use xlink:href="#glyph-3-14" x="175.752344" y="18.640625"/>
<use xlink:href="#glyph-3-15" x="184.42832" y="18.640625"/>
<use xlink:href="#glyph-3-10" x="188.7625" y="18.640625"/>
<use xlink:href="#glyph-3-7" x="193.09668" y="18.640625"/>
<use xlink:href="#glyph-3-8" x="201.772656" y="18.640625"/>
<use xlink:href="#glyph-3-14" x="210.448633" y="18.640625"/>
<use xlink:href="#glyph-3-10" x="219.124609" y="18.640625"/>
<use xlink:href="#glyph-3-16" x="223.458789" y="18.640625"/>
<use xlink:href="#glyph-3-17" x="231.258789" y="18.640625"/>
<use xlink:href="#glyph-3-3" x="242.524609" y="18.640625"/>
<use xlink:href="#glyph-3-5" x="251.200586" y="18.640625"/>
<use xlink:href="#glyph-3-18" x="254.666406" y="18.640625"/>
<use xlink:href="#glyph-3-3" x="262.466406" y="18.640625"/>
<use xlink:href="#glyph-3-5" x="271.142383" y="18.640625"/>
<use xlink:href="#glyph-3-0" x="274.608203" y="18.640625"/>
<use xlink:href="#glyph-3-5" x="278.942383" y="18.640625"/>
<use xlink:href="#glyph-3-9" x="282.408203" y="18.640625"/>
<use xlink:href="#glyph-3-3" x="291.08418" y="18.640625"/>
<use xlink:href="#glyph-3-11" x="299.760156" y="18.640625"/>
<use xlink:href="#glyph-3-10" x="312.755078" y="18.640625"/>
<use xlink:href="#glyph-3-19" x="317.089258" y="18.640625"/>
<use xlink:href="#glyph-3-20" x="327.494336" y="18.640625"/>
<use xlink:href="#glyph-3-6" x="336.170313" y="18.640625"/>
<use xlink:href="#glyph-3-3" x="339.636133" y="18.640625"/>
<use xlink:href="#glyph-3-21" x="348.312109" y="18.640625"/>
<use xlink:href="#glyph-3-8" x="356.988086" y="18.640625"/>
<use xlink:href="#glyph-3-7" x="365.664063" y="18.640625"/>
<use xlink:href="#glyph-3-8" x="374.340039" y="18.640625"/>
<use xlink:href="#glyph-3-9" x="383.016016" y="18.640625"/>
<use xlink:href="#glyph-3-18" x="391.691992" y="18.640625"/>
<use xlink:href="#glyph-3-20" x="399.491992" y="18.640625"/>
<use xlink:href="#glyph-3-3" x="408.167969" y="18.640625"/>
<use xlink:href="#glyph-3-4" x="416.843945" y="18.640625"/>
<use xlink:href="#glyph-3-3" x="422.038867" y="18.640625"/>
<use xlink:href="#glyph-3-5" x="430.714844" y="18.640625"/>
<use xlink:href="#glyph-3-22" x="434.180664" y="18.640625"/>
<use xlink:href="#glyph-3-21" x="441.980664" y="18.640625"/>
<use xlink:href="#glyph-3-10" x="450.656641" y="18.640625"/>
</g>
</svg>
