<?xml version="1.0" encoding="UTF-8"?>
<svg xmlns="http://www.w3.org/2000/svg" xmlns:xlink="http://www.w3.org/1999/xlink" width="1152pt" height="711pt" viewBox="0 0 1152 711">
<defs>
<g>
<g id="glyph-0-0">
<path d="M 0.453125 -1.648438 L 1.773438 -1.792969 C 1.808594 -1.523438 1.890625 -1.324219 2.027344 -1.195312 C 2.164062 -1.066406 2.34375 -1 2.566406 -1 C 2.847656 -1 3.089844 -1.132812 3.285156 -1.390625 C 3.484375 -1.648438 3.609375 -2.1875 3.667969 -3.003906 C 3.324219 -2.605469 2.894531 -2.40625 2.378906 -2.40625 C 1.816406 -2.40625 1.332031 -2.625 0.925781 -3.054688 C 0.519531 -3.488281 0.316406 -4.050781 0.316406 -4.746094 C 0.316406 -5.46875 0.53125 -6.050781 0.960938 -6.492188 C 1.390625 -6.9375 1.9375 -7.15625 2.601562 -7.15625 C 3.324219 -7.15625 3.917969 -6.878906 4.382812 -6.320312 C 4.84375 -5.757812 5.078125 -4.839844 5.078125 -3.558594 C 5.078125 -2.257812 4.835938 -1.316406 4.351562 -0.738281 C 3.867188 -0.160156 3.238281 0.125 2.464844 0.125 C 1.90625 0.125 1.457031 -0.0234375 1.113281 -0.320312 C 0.769531 -0.613281 0.550781 -1.058594 0.453125 -1.648438 M 3.542969 -4.632812 C 3.542969 -5.074219 3.445312 -5.417969 3.242188 -5.660156 C 3.039062 -5.902344 2.804688 -6.023438 2.539062 -6.023438 C 2.285156 -6.023438 2.074219 -5.925781 1.910156 -5.726562 C 1.742188 -5.527344 1.65625 -5.199219 1.65625 -4.746094 C 1.65625 -4.285156 1.75 -3.949219 1.929688 -3.730469 C 2.113281 -3.515625 2.339844 -3.410156 2.609375 -3.410156 C 2.875 -3.410156 3.09375 -3.511719 3.273438 -3.71875 C 3.453125 -3.925781 3.542969 -4.230469 3.542969 -4.632812 Z M 3.542969 -4.632812 "/>
</g>
<g id="glyph-0-1">
<path d="M 2.734375 -7.15625 C 3.421875 -7.15625 3.964844 -6.910156 4.351562 -6.417969 C 4.816406 -5.835938 5.046875 -4.867188 5.046875 -3.515625 C 5.046875 -2.167969 4.8125 -1.199219 4.347656 -0.609375 C 3.960938 -0.121094 3.421875 0.121094 2.734375 0.121094 C 2.039062 0.121094 1.480469 -0.144531 1.054688 -0.679688 C 0.628906 -1.210938 0.417969 -2.164062 0.417969 -3.53125 C 0.417969 -4.871094 0.652344 -5.839844 1.117188 -6.429688 C 1.503906 -6.914062 2.042969 -7.15625 2.734375 -7.15625 M 2.734375 -6.023438 C 2.566406 -6.023438 2.417969 -5.972656 2.289062 -5.867188 C 2.160156 -5.761719 2.058594 -5.574219 1.988281 -5.300781 C 1.894531 -4.945312 1.847656 -4.351562 1.847656 -3.515625 C 1.847656 -2.679688 1.890625 -2.105469 1.972656 -1.792969 C 2.058594 -1.480469 2.164062 -1.269531 2.292969 -1.167969 C 2.421875 -1.0625 2.566406 -1.011719 2.734375 -1.011719 C 2.898438 -1.011719 3.046875 -1.0625 3.175781 -1.167969 C 3.304688 -1.273438 3.40625 -1.464844 3.476562 -1.734375 C 3.570312 -2.085938 3.617188 -2.679688 3.617188 -3.515625 C 3.617188 -4.351562 3.574219 -4.925781 3.492188 -5.238281 C 3.40625 -5.550781 3.300781 -5.761719 3.171875 -5.867188 C 3.042969 -5.972656 2.898438 -6.023438 2.734375 -6.023438 Z M 2.734375 -6.023438 "/>
</g>
<g id="glyph-0-2">
<path d="M 0.433594 -5.367188 C 0.433594 -6.007812 0.574219 -6.480469 0.851562 -6.789062 C 1.132812 -7.097656 1.515625 -7.25 1.992188 -7.25 C 2.488281 -7.25 2.878906 -7.097656 3.160156 -6.789062 C 3.4375 -6.484375 3.578125 -6.011719 3.578125 -5.367188 C 3.578125 -4.730469 3.4375 -4.257812 3.160156 -3.949219 C 2.878906 -3.640625 2.496094 -3.488281 2.019531 -3.488281 C 1.523438 -3.488281 1.132812 -3.640625 0.851562 -3.945312 C 0.574219 -4.253906 0.433594 -4.726562 0.433594 -5.367188 M 1.496094 -5.378906 C 1.496094 -4.914062 1.550781 -4.601562 1.65625 -4.445312 C 1.738281 -4.328125 1.851562 -4.269531 1.992188 -4.269531 C 2.140625 -4.269531 2.253906 -4.328125 2.335938 -4.445312 C 2.4375 -4.601562 2.488281 -4.914062 2.488281 -5.378906 C 2.488281 -5.839844 2.4375 -6.152344 2.335938 -6.308594 C 2.253906 -6.425781 2.140625 -6.488281 1.992188 -6.488281 C 1.851562 -6.488281 1.738281 -6.429688 1.65625 -6.3125 C 1.550781 -6.152344 1.496094 -5.839844 1.496094 -5.378906 M 3.035156 0.273438 L 2.023438 0.273438 L 5.820312 -7.25 L 6.800781 -7.25 L 3.035156 0.273438 M 5.242188 -1.601562 C 5.242188 -2.238281 5.382812 -2.710938 5.664062 -3.019531 C 5.941406 -3.328125 6.324219 -3.480469 6.8125 -3.480469 C 7.300781 -3.480469 7.6875 -3.328125 7.96875 -3.019531 C 8.246094 -2.710938 8.386719 -2.238281 8.386719 -1.601562 C 8.386719 -0.957031 8.246094 -0.484375 7.96875 -0.175781 C 7.6875 0.132812 7.308594 0.285156 6.828125 0.285156 C 6.332031 0.285156 5.941406 0.132812 5.664062 -0.175781 C 5.382812 -0.484375 5.242188 -0.957031 5.242188 -1.601562 M 6.308594 -1.605469 C 6.308594 -1.140625 6.359375 -0.832031 6.46875 -0.675781 C 6.546875 -0.554688 6.660156 -0.496094 6.800781 -0.496094 C 6.949219 -0.496094 7.058594 -0.554688 7.136719 -0.671875 C 7.246094 -0.828125 7.296875 -1.140625 7.296875 -1.605469 C 7.296875 -2.066406 7.246094 -2.378906 7.144531 -2.539062 C 7.0625 -2.65625 6.949219 -2.714844 6.800781 -2.714844 C 6.65625 -2.714844 6.546875 -2.65625 6.46875 -2.539062 C 6.359375 -2.378906 6.308594 -2.066406 6.308594 -1.605469 Z M 6.308594 -1.605469 "/>
</g>
<g id="glyph-0-3">
<path d="M 0.976562 -3.796875 L 0.976562 -5.164062 L 2.34375 -5.164062 L 2.34375 -3.796875 L 0.976562 -3.796875 M 0.976562 0 L 0.976562 -1.367188 L 2.34375 -1.367188 L 2.34375 0 Z M 0.976562 0 "/>
</g>
<g id="glyph-0-4">
</g>
<g id="glyph-0-5">
<path d="M 5.039062 -1.269531 L 5.039062 0 L 0.246094 0 C 0.300781 -0.480469 0.457031 -0.933594 0.714844 -1.363281 C 0.972656 -1.792969 1.484375 -2.363281 2.25 -3.074219 C 2.867188 -3.648438 3.246094 -4.035156 3.382812 -4.238281 C 3.574219 -4.523438 3.667969 -4.800781 3.667969 -5.078125 C 3.667969 -5.382812 3.585938 -5.617188 3.421875 -5.777344 C 3.257812 -5.941406 3.03125 -6.023438 2.742188 -6.023438 C 2.457031 -6.023438 2.230469 -5.9375 2.0625 -5.765625 C 1.894531 -5.59375 1.796875 -5.308594 1.769531 -4.910156 L 0.410156 -5.046875 C 0.488281 -5.800781 0.742188 -6.339844 1.171875 -6.667969 C 1.601562 -6.992188 2.132812 -7.15625 2.777344 -7.15625 C 3.480469 -7.15625 4.03125 -6.96875 4.433594 -6.589844 C 4.835938 -6.210938 5.039062 -5.738281 5.039062 -5.171875 C 5.039062 -4.851562 4.980469 -4.546875 4.863281 -4.257812 C 4.75 -3.96875 4.566406 -3.664062 4.316406 -3.34375 C 4.152344 -3.132812 3.855469 -2.832031 3.421875 -2.4375 C 2.992188 -2.039062 2.71875 -1.777344 2.605469 -1.648438 C 2.488281 -1.519531 2.394531 -1.390625 2.324219 -1.269531 Z M 5.039062 -1.269531 "/>
</g>
<g id="glyph-0-6">
<path d="M 0.714844 0 L 0.714844 -1.367188 L 2.082031 -1.367188 L 2.082031 0 Z M 0.714844 0 "/>
</g>
<g id="glyph-0-7">
<path d="M 0.421875 -5.761719 L 0.421875 -7.03125 L 5.097656 -7.03125 L 5.097656 -6.039062 C 4.710938 -5.660156 4.316406 -5.117188 3.917969 -4.40625 C 3.519531 -3.695312 3.214844 -2.941406 3.007812 -2.140625 C 2.796875 -1.34375 2.695312 -0.628906 2.699219 0 L 1.382812 0 C 1.402344 -0.984375 1.605469 -1.992188 1.992188 -3.015625 C 2.375 -4.039062 2.886719 -4.953125 3.53125 -5.761719 Z M 0.421875 -5.761719 "/>
</g>
<g id="glyph-0-8">
<path d="M 0.375 -1.890625 L 1.695312 -2.050781 C 1.738281 -1.714844 1.851562 -1.457031 2.039062 -1.277344 C 2.222656 -1.101562 2.445312 -1.011719 2.707031 -1.011719 C 2.992188 -1.011719 3.226562 -1.117188 3.421875 -1.332031 C 3.613281 -1.546875 3.710938 -1.835938 3.710938 -2.199219 C 3.710938 -2.542969 3.617188 -2.8125 3.433594 -3.015625 C 3.25 -3.214844 3.023438 -3.316406 2.757812 -3.316406 C 2.582031 -3.316406 2.371094 -3.28125 2.128906 -3.214844 L 2.28125 -4.328125 C 2.648438 -4.316406 2.933594 -4.398438 3.125 -4.566406 C 3.320312 -4.738281 3.417969 -4.964844 3.417969 -5.246094 C 3.417969 -5.488281 3.347656 -5.679688 3.203125 -5.820312 C 3.0625 -5.964844 2.871094 -6.035156 2.636719 -6.035156 C 2.402344 -6.035156 2.203125 -5.953125 2.039062 -5.792969 C 1.871094 -5.628906 1.773438 -5.390625 1.734375 -5.082031 L 0.476562 -5.296875 C 0.5625 -5.726562 0.695312 -6.070312 0.871094 -6.328125 C 1.050781 -6.585938 1.296875 -6.789062 1.613281 -6.9375 C 1.929688 -7.082031 2.28125 -7.15625 2.675781 -7.15625 C 3.34375 -7.15625 3.882812 -6.945312 4.289062 -6.515625 C 4.621094 -6.164062 4.789062 -5.769531 4.789062 -5.328125 C 4.789062 -4.703125 4.449219 -4.203125 3.761719 -3.832031 C 4.171875 -3.746094 4.5 -3.546875 4.742188 -3.242188 C 4.988281 -2.9375 5.109375 -2.570312 5.109375 -2.140625 C 5.109375 -1.515625 4.882812 -0.980469 4.425781 -0.539062 C 3.96875 -0.0976562 3.398438 0.121094 2.71875 0.121094 C 2.074219 0.121094 1.539062 -0.0625 1.113281 -0.433594 C 0.6875 -0.804688 0.441406 -1.292969 0.375 -1.890625 Z M 0.375 -1.890625 "/>
</g>
<g id="glyph-0-9">
<path d="M 0.441406 -1.832031 L 1.804688 -1.972656 C 1.84375 -1.667969 1.957031 -1.421875 2.148438 -1.242188 C 2.339844 -1.0625 2.5625 -0.972656 2.808594 -0.972656 C 3.097656 -0.972656 3.335938 -1.089844 3.535156 -1.320312 C 3.734375 -1.550781 3.832031 -1.902344 3.832031 -2.367188 C 3.832031 -2.804688 3.734375 -3.132812 3.539062 -3.351562 C 3.339844 -3.570312 3.085938 -3.679688 2.773438 -3.679688 C 2.378906 -3.679688 2.027344 -3.507812 1.714844 -3.160156 L 0.609375 -3.320312 L 1.308594 -7.03125 L 4.921875 -7.03125 L 4.921875 -5.753906 L 2.34375 -5.753906 L 2.128906 -4.542969 C 2.433594 -4.695312 2.746094 -4.769531 3.0625 -4.769531 C 3.667969 -4.769531 4.183594 -4.550781 4.605469 -4.109375 C 5.027344 -3.667969 5.238281 -3.097656 5.238281 -2.390625 C 5.238281 -1.804688 5.066406 -1.28125 4.726562 -0.820312 C 4.261719 -0.191406 3.621094 0.121094 2.796875 0.121094 C 2.136719 0.121094 1.601562 -0.0546875 1.1875 -0.410156 C 0.773438 -0.761719 0.523438 -1.238281 0.441406 -1.832031 Z M 0.441406 -1.832031 "/>
</g>
<g id="glyph-0-10">
<path d="M 3.917969 0 L 2.554688 0 L 2.554688 -5.148438 C 2.054688 -4.683594 1.464844 -4.335938 0.789062 -4.113281 L 0.789062 -5.355469 C 1.144531 -5.46875 1.53125 -5.691406 1.949219 -6.015625 C 2.367188 -6.34375 2.65625 -6.722656 2.808594 -7.15625 L 3.917969 -7.15625 Z M 3.917969 0 "/>
</g>
<g id="glyph-0-11">
<path d="M 3.101562 0 L 3.101562 -1.433594 L 0.183594 -1.433594 L 0.183594 -2.628906 L 3.277344 -7.15625 L 4.425781 -7.15625 L 4.425781 -2.636719 L 5.308594 -2.636719 L 5.308594 -1.433594 L 4.425781 -1.433594 L 4.425781 0 L 3.101562 0 M 3.101562 -2.636719 L 3.101562 -5.070312 L 1.464844 -2.636719 Z M 3.101562 -2.636719 "/>
</g>
<g id="glyph-1-0">
<path d="M 0.414062 -3.53125 C 0.414062 -4.375 0.503906 -5.058594 0.675781 -5.574219 C 0.851562 -6.089844 1.109375 -6.488281 1.453125 -6.765625 C 1.796875 -7.046875 2.226562 -7.1875 2.75 -7.1875 C 3.132812 -7.1875 3.46875 -7.109375 3.757812 -6.957031 C 4.050781 -6.800781 4.289062 -6.578125 4.476562 -6.285156 C 4.667969 -5.996094 4.8125 -5.640625 4.921875 -5.222656 C 5.03125 -4.804688 5.082031 -4.238281 5.082031 -3.53125 C 5.082031 -2.691406 4.996094 -2.011719 4.824219 -1.496094 C 4.652344 -0.980469 4.394531 -0.582031 4.050781 -0.300781 C 3.707031 -0.0195312 3.273438 0.121094 2.75 0.121094 C 2.058594 0.121094 1.515625 -0.125 1.125 -0.621094 C 0.652344 -1.214844 0.414062 -2.1875 0.414062 -3.53125 M 1.320312 -3.53125 C 1.320312 -2.355469 1.457031 -1.574219 1.730469 -1.183594 C 2.007812 -0.796875 2.34375 -0.601562 2.75 -0.601562 C 3.152344 -0.601562 3.492188 -0.796875 3.765625 -1.1875 C 4.042969 -1.578125 4.179688 -2.359375 4.179688 -3.53125 C 4.179688 -4.707031 4.042969 -5.492188 3.765625 -5.878906 C 3.492188 -6.265625 3.148438 -6.460938 2.738281 -6.460938 C 2.335938 -6.460938 2.011719 -6.289062 1.773438 -5.945312 C 1.46875 -5.511719 1.320312 -4.707031 1.320312 -3.53125 Z M 1.320312 -3.53125 "/>
</g>
<g id="glyph-1-1">
<path d="M 0.90625 0 L 0.90625 -1 L 1.910156 -1 L 1.910156 0 Z M 0.90625 0 "/>
</g>
<g id="glyph-1-2">
<path d="M 5.035156 -0.84375 L 5.035156 0 L 0.304688 0 C 0.296875 -0.210938 0.332031 -0.414062 0.40625 -0.609375 C 0.527344 -0.933594 0.71875 -1.25 0.984375 -1.5625 C 1.25 -1.875 1.632812 -2.234375 2.132812 -2.648438 C 2.910156 -3.285156 3.4375 -3.789062 3.710938 -4.164062 C 3.984375 -4.535156 4.121094 -4.886719 4.121094 -5.21875 C 4.121094 -5.566406 3.996094 -5.863281 3.746094 -6.101562 C 3.5 -6.339844 3.171875 -6.460938 2.773438 -6.460938 C 2.351562 -6.460938 2.011719 -6.332031 1.757812 -6.078125 C 1.503906 -5.824219 1.375 -5.472656 1.371094 -5.023438 L 0.46875 -5.117188 C 0.53125 -5.789062 0.761719 -6.304688 1.167969 -6.65625 C 1.570312 -7.011719 2.113281 -7.1875 2.792969 -7.1875 C 3.480469 -7.1875 4.023438 -6.996094 4.421875 -6.617188 C 4.824219 -6.234375 5.023438 -5.761719 5.023438 -5.199219 C 5.023438 -4.914062 4.964844 -4.632812 4.847656 -4.355469 C 4.730469 -4.078125 4.535156 -3.789062 4.265625 -3.480469 C 3.992188 -3.175781 3.542969 -2.753906 2.910156 -2.222656 C 2.382812 -1.777344 2.042969 -1.480469 1.894531 -1.320312 C 1.746094 -1.164062 1.621094 -1.003906 1.523438 -0.84375 Z M 5.035156 -0.84375 "/>
</g>
<g id="glyph-1-3">
<path d="M 3.234375 0 L 3.234375 -1.714844 L 0.125 -1.714844 L 0.125 -2.519531 L 3.394531 -7.15625 L 4.109375 -7.15625 L 4.109375 -2.519531 L 5.078125 -2.519531 L 5.078125 -1.714844 L 4.109375 -1.714844 L 4.109375 0 L 3.234375 0 M 3.234375 -2.519531 L 3.234375 -5.746094 L 0.992188 -2.519531 Z M 3.234375 -2.519531 "/>
</g>
<g id="glyph-1-4">
<path d="M 4.976562 -5.40625 L 4.101562 -5.335938 C 4.023438 -5.683594 3.914062 -5.933594 3.769531 -6.089844 C 3.53125 -6.339844 3.238281 -6.464844 2.890625 -6.464844 C 2.609375 -6.464844 2.363281 -6.386719 2.152344 -6.230469 C 1.875 -6.027344 1.660156 -5.734375 1.5 -5.347656 C 1.339844 -4.960938 1.257812 -4.40625 1.25 -3.691406 C 1.460938 -4.011719 1.71875 -4.253906 2.027344 -4.410156 C 2.332031 -4.566406 2.652344 -4.644531 2.988281 -4.644531 C 3.574219 -4.644531 4.074219 -4.429688 4.484375 -3.996094 C 4.898438 -3.566406 5.101562 -3.007812 5.101562 -2.324219 C 5.101562 -1.875 5.003906 -1.457031 4.8125 -1.070312 C 4.617188 -0.6875 4.351562 -0.390625 4.015625 -0.1875 C 3.675781 0.0195312 3.289062 0.121094 2.859375 0.121094 C 2.128906 0.121094 1.53125 -0.148438 1.070312 -0.6875 C 0.605469 -1.226562 0.375 -2.113281 0.375 -3.351562 C 0.375 -4.734375 0.632812 -5.738281 1.140625 -6.367188 C 1.589844 -6.914062 2.1875 -7.1875 2.945312 -7.1875 C 3.507812 -7.1875 3.96875 -7.03125 4.328125 -6.714844 C 4.6875 -6.398438 4.902344 -5.960938 4.976562 -5.40625 M 1.386719 -2.320312 C 1.386719 -2.015625 1.449219 -1.726562 1.578125 -1.449219 C 1.707031 -1.171875 1.886719 -0.960938 2.117188 -0.816406 C 2.351562 -0.671875 2.59375 -0.601562 2.847656 -0.601562 C 3.21875 -0.601562 3.535156 -0.75 3.804688 -1.050781 C 4.070312 -1.347656 4.203125 -1.757812 4.203125 -2.269531 C 4.203125 -2.765625 4.070312 -3.15625 3.808594 -3.441406 C 3.546875 -3.726562 3.210938 -3.867188 2.8125 -3.867188 C 2.414062 -3.867188 2.078125 -3.726562 1.800781 -3.441406 C 1.523438 -3.15625 1.386719 -2.78125 1.386719 -2.320312 Z M 1.386719 -2.320312 "/>
</g>
<g id="glyph-1-5">
<path d="M 0.414062 -1.875 L 1.335938 -1.953125 C 1.40625 -1.503906 1.566406 -1.167969 1.8125 -0.941406 C 2.0625 -0.714844 2.363281 -0.601562 2.714844 -0.601562 C 3.136719 -0.601562 3.496094 -0.761719 3.789062 -1.078125 C 4.082031 -1.398438 4.226562 -1.820312 4.226562 -2.347656 C 4.226562 -2.851562 4.085938 -3.246094 3.804688 -3.535156 C 3.523438 -3.824219 3.15625 -3.96875 2.699219 -3.96875 C 2.417969 -3.96875 2.160156 -3.90625 1.933594 -3.777344 C 1.707031 -3.648438 1.527344 -3.480469 1.398438 -3.277344 L 0.570312 -3.382812 L 1.265625 -7.0625 L 4.824219 -7.0625 L 4.824219 -6.21875 L 1.96875 -6.21875 L 1.582031 -4.296875 C 2.011719 -4.597656 2.460938 -4.746094 2.933594 -4.746094 C 3.558594 -4.746094 4.085938 -4.53125 4.515625 -4.097656 C 4.945312 -3.664062 5.160156 -3.105469 5.160156 -2.425781 C 5.160156 -1.777344 4.972656 -1.21875 4.59375 -0.746094 C 4.136719 -0.167969 3.507812 0.121094 2.714844 0.121094 C 2.0625 0.121094 1.53125 -0.0585938 1.121094 -0.425781 C 0.707031 -0.789062 0.472656 -1.273438 0.414062 -1.875 Z M 0.414062 -1.875 "/>
</g>
<g id="glyph-1-6">
<path d="M 0.472656 -6.21875 L 0.472656 -7.066406 L 5.109375 -7.066406 L 5.109375 -6.382812 C 4.652344 -5.898438 4.199219 -5.253906 3.753906 -4.449219 C 3.304688 -3.644531 2.960938 -2.816406 2.714844 -1.96875 C 2.539062 -1.367188 2.425781 -0.710938 2.378906 0 L 1.476562 0 C 1.484375 -0.5625 1.59375 -1.242188 1.804688 -2.039062 C 2.019531 -2.839844 2.320312 -3.609375 2.71875 -4.347656 C 3.113281 -5.089844 3.535156 -5.710938 3.980469 -6.21875 Z M 0.472656 -6.21875 "/>
</g>
<g id="glyph-1-7">
<path d="M 3.726562 0 L 2.847656 0 L 2.847656 -5.601562 C 2.636719 -5.398438 2.359375 -5.195312 2.015625 -4.996094 C 1.671875 -4.792969 1.363281 -4.640625 1.089844 -4.539062 L 1.089844 -5.390625 C 1.582031 -5.621094 2.011719 -5.902344 2.378906 -6.230469 C 2.746094 -6.558594 3.007812 -6.878906 3.160156 -7.1875 L 3.726562 -7.1875 Z M 3.726562 0 "/>
</g>
<g id="glyph-1-8">
<path d="M 0.421875 -1.890625 L 1.296875 -2.007812 C 1.398438 -1.507812 1.570312 -1.148438 1.8125 -0.929688 C 2.054688 -0.710938 2.351562 -0.601562 2.699219 -0.601562 C 3.113281 -0.601562 3.460938 -0.742188 3.746094 -1.03125 C 4.03125 -1.316406 4.175781 -1.671875 4.175781 -2.09375 C 4.175781 -2.5 4.042969 -2.832031 3.78125 -3.09375 C 3.515625 -3.355469 3.179688 -3.484375 2.773438 -3.484375 C 2.609375 -3.484375 2.402344 -3.453125 2.152344 -3.390625 L 2.25 -4.160156 C 2.308594 -4.152344 2.355469 -4.148438 2.390625 -4.148438 C 2.765625 -4.148438 3.105469 -4.25 3.402344 -4.445312 C 3.703125 -4.640625 3.851562 -4.941406 3.851562 -5.347656 C 3.851562 -5.667969 3.742188 -5.9375 3.523438 -6.148438 C 3.308594 -6.359375 3.027344 -6.464844 2.679688 -6.464844 C 2.339844 -6.464844 2.054688 -6.359375 1.828125 -6.140625 C 1.597656 -5.929688 1.453125 -5.605469 1.386719 -5.175781 L 0.507812 -5.332031 C 0.617188 -5.921875 0.859375 -6.378906 1.242188 -6.703125 C 1.621094 -7.027344 2.09375 -7.1875 2.660156 -7.1875 C 3.050781 -7.1875 3.410156 -7.105469 3.742188 -6.9375 C 4.070312 -6.769531 4.320312 -6.539062 4.496094 -6.25 C 4.667969 -5.960938 4.757812 -5.652344 4.757812 -5.328125 C 4.757812 -5.019531 4.671875 -4.734375 4.507812 -4.484375 C 4.339844 -4.226562 4.09375 -4.027344 3.769531 -3.875 C 4.191406 -3.78125 4.523438 -3.578125 4.757812 -3.269531 C 4.992188 -2.960938 5.109375 -2.578125 5.109375 -2.113281 C 5.109375 -1.488281 4.878906 -0.960938 4.421875 -0.523438 C 3.96875 -0.0898438 3.390625 0.125 2.695312 0.125 C 2.066406 0.125 1.546875 -0.0585938 1.128906 -0.433594 C 0.714844 -0.808594 0.476562 -1.292969 0.421875 -1.890625 Z M 0.421875 -1.890625 "/>
</g>
<g id="glyph-2-0">
<path d="M 0.902344 0 L 0.902344 -7.875 L 6.214844 -7.875 L 6.214844 -6.945312 L 1.945312 -6.945312 L 1.945312 -4.507812 L 5.640625 -4.507812 L 5.640625 -3.578125 L 1.945312 -3.578125 L 1.945312 0 Z M 0.902344 0 "/>
</g>
<g id="glyph-2-1">
<path d="M 0.347656 -2.363281 L 0.347656 -3.335938 L 3.320312 -3.335938 L 3.320312 -2.363281 Z M 0.347656 -2.363281 "/>
</g>
<g id="glyph-2-2">
<path d="M 2.222656 0 L 0.132812 -7.875 L 1.203125 -7.875 L 2.402344 -2.710938 C 2.53125 -2.171875 2.640625 -1.632812 2.734375 -1.101562 C 2.933594 -1.941406 3.050781 -2.429688 3.089844 -2.554688 L 4.585938 -7.875 L 5.84375 -7.875 L 6.972656 -3.890625 C 7.253906 -2.898438 7.457031 -1.972656 7.585938 -1.101562 C 7.683594 -1.597656 7.816406 -2.171875 7.976562 -2.8125 L 9.210938 -7.875 L 10.257812 -7.875 L 8.101562 0 L 7.09375 0 L 5.4375 -6 C 5.296875 -6.5 5.214844 -6.808594 5.1875 -6.921875 C 5.105469 -6.5625 5.027344 -6.253906 4.957031 -6 L 3.289062 0 Z M 2.222656 0 "/>
</g>
<g id="glyph-2-3">
<path d="M 4.628906 -1.835938 L 5.628906 -1.714844 C 5.472656 -1.128906 5.179688 -0.675781 4.753906 -0.355469 C 4.328125 -0.03125 3.78125 0.128906 3.121094 0.128906 C 2.285156 0.128906 1.625 -0.128906 1.136719 -0.640625 C 0.648438 -1.15625 0.402344 -1.875 0.402344 -2.804688 C 0.402344 -3.761719 0.648438 -4.507812 1.144531 -5.039062 C 1.636719 -5.566406 2.277344 -5.832031 3.066406 -5.832031 C 3.828125 -5.832031 4.453125 -5.574219 4.9375 -5.054688 C 5.417969 -4.535156 5.660156 -3.804688 5.660156 -2.863281 C 5.660156 -2.804688 5.660156 -2.71875 5.65625 -2.605469 L 1.402344 -2.605469 C 1.4375 -1.976562 1.613281 -1.5 1.933594 -1.164062 C 2.253906 -0.832031 2.648438 -0.664062 3.125 -0.664062 C 3.480469 -0.664062 3.78125 -0.757812 4.035156 -0.945312 C 4.285156 -1.132812 4.484375 -1.429688 4.628906 -1.835938 M 1.457031 -3.398438 L 4.640625 -3.398438 C 4.597656 -3.878906 4.476562 -4.238281 4.273438 -4.480469 C 3.96875 -4.851562 3.566406 -5.039062 3.078125 -5.039062 C 2.632812 -5.039062 2.261719 -4.890625 1.957031 -4.59375 C 1.65625 -4.296875 1.488281 -3.898438 1.457031 -3.398438 Z M 1.457031 -3.398438 "/>
</g>
<g id="glyph-2-4">
<path d="M 0.714844 0 L 0.714844 -5.703125 L 1.585938 -5.703125 L 1.585938 -4.839844 C 1.804688 -5.242188 2.011719 -5.511719 2.199219 -5.640625 C 2.386719 -5.769531 2.59375 -5.832031 2.820312 -5.832031 C 3.144531 -5.832031 3.476562 -5.730469 3.8125 -5.523438 L 3.480469 -4.625 C 3.242188 -4.765625 3.007812 -4.832031 2.773438 -4.835938 C 2.558594 -4.832031 2.371094 -4.769531 2.203125 -4.644531 C 2.035156 -4.515625 1.914062 -4.339844 1.84375 -4.113281 C 1.734375 -3.769531 1.679688 -3.394531 1.679688 -2.984375 L 1.679688 0 Z M 0.714844 0 "/>
</g>
<g id="glyph-2-5">
<path d="M 2.835938 -0.863281 L 2.976562 -0.0117188 C 2.703125 0.046875 2.460938 0.0742188 2.246094 0.0742188 C 1.894531 0.0742188 1.621094 0.0195312 1.429688 -0.0898438 C 1.234375 -0.203125 1.097656 -0.347656 1.019531 -0.527344 C 0.941406 -0.710938 0.902344 -1.089844 0.902344 -1.671875 L 0.902344 -4.953125 L 0.195312 -4.953125 L 0.195312 -5.703125 L 0.902344 -5.703125 L 0.902344 -7.117188 L 1.863281 -7.695312 L 1.863281 -5.703125 L 2.835938 -5.703125 L 2.835938 -4.953125 L 1.863281 -4.953125 L 1.863281 -1.617188 C 1.863281 -1.339844 1.878906 -1.164062 1.914062 -1.085938 C 1.949219 -1.007812 2.003906 -0.945312 2.082031 -0.898438 C 2.160156 -0.851562 2.269531 -0.828125 2.410156 -0.828125 C 2.519531 -0.828125 2.660156 -0.839844 2.835938 -0.863281 Z M 2.835938 -0.863281 "/>
</g>
<g id="glyph-3-0">
<path d="M 0 -0.847656 L -7.875 -0.847656 L -7.875 -3.5625 C -7.875 -4.171875 -7.835938 -4.640625 -7.761719 -4.964844 C -7.65625 -5.414062 -7.46875 -5.800781 -7.195312 -6.117188 C -6.847656 -6.53125 -6.398438 -6.84375 -5.851562 -7.050781 C -5.304688 -7.253906 -4.683594 -7.359375 -3.980469 -7.359375 C -3.382812 -7.359375 -2.851562 -7.289062 -2.390625 -7.148438 C -1.929688 -7.007812 -1.546875 -6.832031 -1.242188 -6.613281 C -0.941406 -6.394531 -0.703125 -6.15625 -0.527344 -5.894531 C -0.355469 -5.636719 -0.222656 -5.320312 -0.132812 -4.953125 C -0.0429688 -4.585938 0 -4.167969 0 -3.691406 L 0 -0.847656 M -0.929688 -1.890625 L -0.929688 -3.570312 C -0.929688 -4.089844 -0.976562 -4.5 -1.074219 -4.792969 C -1.171875 -5.089844 -1.308594 -5.324219 -1.480469 -5.5 C -1.730469 -5.746094 -2.0625 -5.941406 -2.480469 -6.078125 C -2.894531 -6.214844 -3.402344 -6.285156 -3.996094 -6.285156 C -4.820312 -6.285156 -5.453125 -6.148438 -5.894531 -5.878906 C -6.335938 -5.609375 -6.632812 -5.28125 -6.785156 -4.894531 C -6.890625 -4.613281 -6.945312 -4.164062 -6.945312 -3.546875 L -6.945312 -1.890625 Z M -0.929688 -1.890625 "/>
</g>
<g id="glyph-3-1">
<path d="M -6.761719 -0.730469 L -7.875 -0.730469 L -7.875 -1.699219 L -6.761719 -1.699219 L -6.761719 -0.730469 M 0 -0.730469 L -5.703125 -0.730469 L -5.703125 -1.699219 L 0 -1.695312 Z M 0 -0.730469 "/>
</g>
<g id="glyph-3-2">
<path d="M -2.089844 -4.445312 L -1.964844 -5.398438 C -1.308594 -5.292969 -0.796875 -5.027344 -0.425781 -4.601562 C -0.0546875 -4.171875 0.128906 -3.648438 0.128906 -3.023438 C 0.128906 -2.242188 -0.125 -1.617188 -0.636719 -1.140625 C -1.148438 -0.667969 -1.878906 -0.429688 -2.832031 -0.429688 C -3.445312 -0.429688 -3.984375 -0.53125 -4.445312 -0.734375 C -4.910156 -0.941406 -5.253906 -1.25 -5.488281 -1.667969 C -5.71875 -2.085938 -5.832031 -2.539062 -5.832031 -3.03125 C -5.832031 -3.648438 -5.675781 -4.15625 -5.363281 -4.550781 C -5.050781 -4.941406 -4.605469 -5.195312 -4.027344 -5.304688 L -3.882812 -4.367188 C -4.265625 -4.277344 -4.554688 -4.117188 -4.75 -3.890625 C -4.941406 -3.664062 -5.039062 -3.390625 -5.039062 -3.066406 C -5.039062 -2.578125 -4.863281 -2.183594 -4.515625 -1.878906 C -4.164062 -1.574219 -3.613281 -1.421875 -2.859375 -1.421875 C -2.089844 -1.421875 -1.535156 -1.570312 -1.1875 -1.863281 C -0.839844 -2.15625 -0.664062 -2.539062 -0.664062 -3.011719 C -0.664062 -3.394531 -0.78125 -3.710938 -1.015625 -3.964844 C -1.246094 -4.21875 -1.605469 -4.378906 -2.089844 -4.445312 Z M -2.089844 -4.445312 "/>
</g>
<g id="glyph-3-3">
<path d="M 0 -0.726562 L -7.875 -0.726562 L -7.875 -1.691406 L -5.046875 -1.691406 C -5.570312 -2.144531 -5.832031 -2.710938 -5.832031 -3.398438 C -5.832031 -3.824219 -5.75 -4.1875 -5.582031 -4.5 C -5.417969 -4.8125 -5.1875 -5.035156 -4.894531 -5.167969 C -4.597656 -5.304688 -4.171875 -5.371094 -3.613281 -5.371094 L 0 -5.371094 L 0 -4.40625 L -3.613281 -4.40625 C -4.097656 -4.40625 -4.449219 -4.300781 -4.671875 -4.089844 C -4.890625 -3.878906 -5 -3.585938 -5 -3.203125 C -5 -2.914062 -4.925781 -2.644531 -4.777344 -2.394531 C -4.628906 -2.140625 -4.425781 -1.960938 -4.171875 -1.851562 C -3.917969 -1.746094 -3.566406 -1.691406 -3.121094 -1.691406 L 0 -1.691406 Z M 0 -0.726562 "/>
</g>
<g id="glyph-3-4">
<path d="M -0.863281 -2.835938 L -0.0117188 -2.976562 C 0.046875 -2.703125 0.0742188 -2.460938 0.0742188 -2.246094 C 0.0742188 -1.894531 0.0195312 -1.621094 -0.0898438 -1.429688 C -0.203125 -1.234375 -0.347656 -1.097656 -0.527344 -1.019531 C -0.710938 -0.941406 -1.089844 -0.902344 -1.671875 -0.902344 L -4.953125 -0.902344 L -4.953125 -0.195312 L -5.703125 -0.195312 L -5.703125 -0.902344 L -7.117188 -0.902344 L -7.695312 -1.863281 L -5.703125 -1.863281 L -5.703125 -2.835938 L -4.953125 -2.835938 L -4.953125 -1.863281 L -1.617188 -1.863281 C -1.339844 -1.863281 -1.164062 -1.878906 -1.085938 -1.914062 C -1.007812 -1.949219 -0.945312 -2.003906 -0.898438 -2.082031 C -0.851562 -2.160156 -0.828125 -2.269531 -0.828125 -2.410156 C -0.828125 -2.519531 -0.839844 -2.660156 -0.863281 -2.835938 Z M -0.863281 -2.835938 "/>
</g>
<g id="glyph-3-5">
<path d="M -1.835938 -4.628906 L -1.714844 -5.628906 C -1.128906 -5.472656 -0.675781 -5.179688 -0.355469 -4.753906 C -0.03125 -4.328125 0.128906 -3.78125 0.128906 -3.121094 C 0.128906 -2.285156 -0.128906 -1.625 -0.640625 -1.136719 C -1.15625 -0.648438 -1.875 -0.402344 -2.804688 -0.402344 C -3.761719 -0.402344 -4.507812 -0.648438 -5.039062 -1.144531 C -5.566406 -1.636719 -5.832031 -2.277344 -5.832031 -3.066406 C -5.832031 -3.828125 -5.574219 -4.453125 -5.054688 -4.9375 C -4.535156 -5.417969 -3.804688 -5.660156 -2.863281 -5.660156 C -2.804688 -5.660156 -2.71875 -5.660156 -2.605469 -5.65625 L -2.605469 -1.402344 C -1.976562 -1.4375 -1.5 -1.613281 -1.164062 -1.933594 C -0.832031 -2.253906 -0.664062 -2.648438 -0.664062 -3.125 C -0.664062 -3.480469 -0.757812 -3.78125 -0.945312 -4.035156 C -1.132812 -4.285156 -1.429688 -4.484375 -1.835938 -4.628906 M -3.398438 -1.457031 L -3.398438 -4.640625 C -3.878906 -4.597656 -4.238281 -4.476562 -4.480469 -4.273438 C -4.851562 -3.96875 -5.039062 -3.566406 -5.039062 -3.078125 C -5.039062 -2.632812 -4.890625 -2.261719 -4.59375 -1.957031 C -4.296875 -1.65625 -3.898438 -1.488281 -3.398438 -1.457031 Z M -3.398438 -1.457031 "/>
</g>
<g id="glyph-4-0">
<path d="M 0.882812 0 L 0.882812 -8.589844 L 6.773438 -8.589844 L 6.773438 -7.136719 L 2.617188 -7.136719 L 2.617188 -5.101562 L 6.203125 -5.101562 L 6.203125 -3.648438 L 2.617188 -3.648438 L 2.617188 0 Z M 0.882812 0 "/>
</g>
<g id="glyph-4-1">
<path d="M 0.671875 -2.289062 L 0.671875 -3.9375 L 3.90625 -3.9375 L 3.90625 -2.289062 Z M 0.671875 -2.289062 "/>
</g>
<g id="glyph-4-2">
<path d="M 3.0625 0 L -0.0078125 -8.589844 L 1.875 -8.589844 L 4.046875 -2.234375 L 6.152344 -8.589844 L 7.992188 -8.589844 L 4.914062 0 Z M 3.0625 0 "/>
</g>
<g id="glyph-4-3">
<path d="M 4.464844 -1.980469 L 6.105469 -1.703125 C 5.894531 -1.101562 5.5625 -0.644531 5.105469 -0.332031 C 4.652344 -0.015625 4.082031 0.140625 3.398438 0.140625 C 2.316406 0.140625 1.515625 -0.214844 0.996094 -0.921875 C 0.585938 -1.484375 0.382812 -2.203125 0.382812 -3.0625 C 0.382812 -4.09375 0.648438 -4.902344 1.1875 -5.488281 C 1.726562 -6.070312 2.410156 -6.363281 3.234375 -6.363281 C 4.160156 -6.363281 4.890625 -6.058594 5.425781 -5.445312 C 5.960938 -4.835938 6.21875 -3.898438 6.195312 -2.636719 L 2.070312 -2.636719 C 2.078125 -2.148438 2.210938 -1.769531 2.46875 -1.496094 C 2.71875 -1.226562 3.035156 -1.089844 3.414062 -1.089844 C 3.671875 -1.089844 3.890625 -1.160156 4.066406 -1.300781 C 4.242188 -1.441406 4.375 -1.667969 4.464844 -1.980469 M 4.558594 -3.644531 C 4.546875 -4.121094 4.421875 -4.484375 4.1875 -4.730469 C 3.953125 -4.980469 3.667969 -5.101562 3.335938 -5.101562 C 2.972656 -5.101562 2.675781 -4.972656 2.445312 -4.710938 C 2.210938 -4.449219 2.09375 -4.09375 2.097656 -3.644531 Z M 4.558594 -3.644531 "/>
</g>
<g id="glyph-4-4">
<path d="M 2.4375 0 L 0.789062 0 L 0.789062 -6.222656 L 2.320312 -6.222656 L 2.320312 -5.335938 C 2.582031 -5.753906 2.816406 -6.03125 3.027344 -6.164062 C 3.234375 -6.296875 3.472656 -6.363281 3.738281 -6.363281 C 4.113281 -6.363281 4.472656 -6.257812 4.820312 -6.054688 L 4.3125 -4.617188 C 4.035156 -4.796875 3.777344 -4.886719 3.539062 -4.886719 C 3.308594 -4.886719 3.113281 -4.824219 2.953125 -4.695312 C 2.792969 -4.570312 2.667969 -4.339844 2.574219 -4.007812 C 2.484375 -3.675781 2.4375 -2.980469 2.4375 -1.921875 Z M 2.4375 0 "/>
</g>
<g id="glyph-4-5">
<path d="M 3.714844 -6.222656 L 3.714844 -4.910156 L 2.589844 -4.910156 L 2.589844 -2.402344 C 2.589844 -1.894531 2.601562 -1.597656 2.621094 -1.515625 C 2.644531 -1.429688 2.691406 -1.359375 2.769531 -1.304688 C 2.84375 -1.25 2.9375 -1.226562 3.046875 -1.226562 C 3.199219 -1.226562 3.417969 -1.277344 3.710938 -1.382812 L 3.851562 -0.105469 C 3.464844 0.0585938 3.03125 0.140625 2.546875 0.140625 C 2.25 0.140625 1.984375 0.0898438 1.746094 -0.0078125 C 1.507812 -0.109375 1.332031 -0.238281 1.222656 -0.394531 C 1.109375 -0.554688 1.03125 -0.765625 0.992188 -1.039062 C 0.953125 -1.226562 0.9375 -1.613281 0.9375 -2.195312 L 0.9375 -4.910156 L 0.179688 -4.910156 L 0.179688 -6.222656 L 0.9375 -6.222656 L 0.9375 -7.460938 L 2.589844 -8.421875 L 2.589844 -6.222656 Z M 3.714844 -6.222656 "/>
</g>
<g id="glyph-4-6">
<path d="M 0.859375 -7.066406 L 0.859375 -8.589844 L 2.507812 -8.589844 L 2.507812 -7.066406 L 0.859375 -7.066406 M 0.859375 0 L 0.859375 -6.222656 L 2.507812 -6.222656 L 2.507812 0 Z M 0.859375 0 "/>
</g>
<g id="glyph-4-7">
<path d="M 0.859375 0 L 0.859375 -8.589844 L 2.507812 -8.589844 L 2.507812 0 Z M 0.859375 0 "/>
</g>
<g id="glyph-4-8">
<path d="M 4.957031 0 L 4.957031 -0.929688 C 4.730469 -0.597656 4.433594 -0.335938 4.0625 -0.148438 C 3.695312 0.0429688 3.304688 0.140625 2.894531 0.140625 C 2.476562 0.140625 2.101562 0.046875 1.769531 -0.132812 C 1.4375 -0.316406 1.195312 -0.574219 1.046875 -0.90625 C 0.898438 -1.238281 0.828125 -1.699219 0.828125 -2.285156 L 0.828125 -6.222656 L 2.472656 -6.222656 L 2.472656 -3.363281 C 2.472656 -2.488281 2.503906 -1.953125 2.5625 -1.753906 C 2.625 -1.558594 2.734375 -1.402344 2.894531 -1.285156 C 3.054688 -1.171875 3.257812 -1.113281 3.503906 -1.113281 C 3.785156 -1.113281 4.039062 -1.191406 4.257812 -1.34375 C 4.484375 -1.5 4.632812 -1.691406 4.71875 -1.917969 C 4.796875 -2.148438 4.839844 -2.707031 4.839844 -3.597656 L 4.839844 -6.222656 L 6.484375 -6.222656 L 6.484375 0 Z M 4.957031 0 "/>
</g>
<g id="glyph-4-9">
<path d="M 6.523438 0 L 4.875 0 L 4.875 -3.175781 C 4.875 -3.847656 4.839844 -4.28125 4.769531 -4.480469 C 4.699219 -4.675781 4.585938 -4.828125 4.425781 -4.9375 C 4.269531 -5.046875 4.078125 -5.101562 3.855469 -5.101562 C 3.570312 -5.101562 3.3125 -5.023438 3.085938 -4.867188 C 2.859375 -4.710938 2.707031 -4.507812 2.621094 -4.25 C 2.539062 -3.992188 2.496094 -3.511719 2.496094 -2.820312 L 2.496094 0 L 0.851562 0 L 0.851562 -6.222656 L 2.378906 -6.222656 L 2.378906 -5.308594 C 2.921875 -6.011719 3.605469 -6.363281 4.429688 -6.363281 C 4.792969 -6.363281 5.125 -6.296875 5.425781 -6.167969 C 5.726562 -6.035156 5.953125 -5.867188 6.109375 -5.664062 C 6.261719 -5.460938 6.371094 -5.230469 6.429688 -4.976562 C 6.492188 -4.714844 6.523438 -4.347656 6.523438 -3.867188 Z M 6.523438 0 "/>
</g>
<g id="glyph-4-10">
<path d="M 0.710938 0.410156 L 2.589844 0.640625 C 2.621094 0.855469 2.691406 1.007812 2.804688 1.089844 C 2.960938 1.207031 3.207031 1.265625 3.546875 1.265625 C 3.972656 1.265625 4.296875 1.199219 4.511719 1.070312 C 4.65625 0.984375 4.765625 0.847656 4.839844 0.65625 C 4.890625 0.519531 4.914062 0.265625 4.914062 -0.101562 L 4.914062 -1.007812 C 4.421875 -0.335938 3.804688 0 3.054688 0 C 2.214844 0 1.554688 -0.355469 1.066406 -1.0625 C 0.683594 -1.617188 0.492188 -2.3125 0.492188 -3.148438 C 0.492188 -4.1875 0.742188 -4.984375 1.246094 -5.539062 C 1.746094 -6.085938 2.371094 -6.363281 3.117188 -6.363281 C 3.886719 -6.363281 4.519531 -6.023438 5.023438 -5.351562 L 5.023438 -6.222656 L 6.5625 -6.222656 L 6.5625 -0.640625 C 6.5625 0.09375 6.5 0.644531 6.382812 1.007812 C 6.257812 1.371094 6.089844 1.65625 5.871094 1.863281 C 5.652344 2.070312 5.359375 2.234375 4.996094 2.351562 C 4.628906 2.46875 4.167969 2.523438 3.609375 2.523438 C 2.554688 2.523438 1.804688 2.34375 1.367188 1.984375 C 0.921875 1.621094 0.703125 1.164062 0.703125 0.609375 C 0.703125 0.554688 0.703125 0.488281 0.710938 0.410156 M 2.179688 -3.242188 C 2.179688 -2.578125 2.308594 -2.097656 2.5625 -1.789062 C 2.820312 -1.484375 3.132812 -1.328125 3.507812 -1.328125 C 3.910156 -1.328125 4.25 -1.488281 4.53125 -1.800781 C 4.804688 -2.117188 4.945312 -2.582031 4.945312 -3.199219 C 4.945312 -3.84375 4.8125 -4.320312 4.546875 -4.632812 C 4.28125 -4.945312 3.945312 -5.101562 3.539062 -5.101562 C 3.144531 -5.101562 2.820312 -4.949219 2.5625 -4.644531 C 2.308594 -4.335938 2.179688 -3.867188 2.179688 -3.242188 Z M 2.179688 -3.242188 "/>
</g>
<g id="glyph-4-11">
</g>
<g id="glyph-4-12">
<path d="M 3.59375 2.523438 L 2.460938 2.523438 C 1.863281 1.625 1.40625 0.683594 1.09375 -0.289062 C 0.78125 -1.257812 0.625 -2.199219 0.625 -3.109375 C 0.625 -4.238281 0.820312 -5.308594 1.207031 -6.316406 C 1.542969 -7.191406 1.96875 -8 2.484375 -8.734375 L 3.609375 -8.734375 C 3.074219 -7.554688 2.707031 -6.546875 2.503906 -5.714844 C 2.304688 -4.886719 2.203125 -4.003906 2.203125 -3.078125 C 2.203125 -2.433594 2.261719 -1.777344 2.382812 -1.109375 C 2.5 -0.4375 2.664062 0.203125 2.871094 0.808594 C 3.007812 1.207031 3.246094 1.777344 3.59375 2.523438 Z M 3.59375 2.523438 "/>
</g>
<g id="glyph-4-13">
<path d="M 6.570312 0 L 5.039062 0 L 5.039062 -0.914062 C 4.785156 -0.558594 4.484375 -0.292969 4.140625 -0.121094 C 3.792969 0.0546875 3.445312 0.140625 3.09375 0.140625 C 2.378906 0.140625 1.765625 -0.148438 1.257812 -0.722656 C 0.746094 -1.300781 0.492188 -2.101562 0.492188 -3.132812 C 0.492188 -4.1875 0.738281 -4.992188 1.234375 -5.539062 C 1.730469 -6.089844 2.359375 -6.363281 3.117188 -6.363281 C 3.8125 -6.363281 4.414062 -6.074219 4.921875 -5.496094 L 4.921875 -8.589844 L 6.570312 -8.589844 L 6.570312 0 M 2.171875 -3.246094 C 2.171875 -2.582031 2.265625 -2.101562 2.449219 -1.804688 C 2.714844 -1.375 3.085938 -1.160156 3.5625 -1.160156 C 3.941406 -1.160156 4.261719 -1.320312 4.53125 -1.644531 C 4.792969 -1.964844 4.929688 -2.445312 4.929688 -3.085938 C 4.929688 -3.804688 4.796875 -4.316406 4.539062 -4.632812 C 4.28125 -4.945312 3.953125 -5.101562 3.550781 -5.101562 C 3.160156 -5.101562 2.832031 -4.949219 2.570312 -4.636719 C 2.304688 -4.328125 2.171875 -3.863281 2.171875 -3.246094 Z M 2.171875 -3.246094 "/>
</g>
<g id="glyph-4-14">
<path d="M 0.140625 -6.222656 L 1.054688 -6.222656 L 1.054688 -6.691406 C 1.054688 -7.214844 1.109375 -7.605469 1.222656 -7.863281 C 1.332031 -8.121094 1.539062 -8.332031 1.835938 -8.492188 C 2.136719 -8.65625 2.511719 -8.734375 2.96875 -8.734375 C 3.4375 -8.734375 3.898438 -8.664062 4.347656 -8.523438 L 4.125 -7.375 C 3.863281 -7.4375 3.609375 -7.46875 3.367188 -7.46875 C 3.128906 -7.46875 2.960938 -7.414062 2.855469 -7.304688 C 2.753906 -7.191406 2.703125 -6.976562 2.703125 -6.664062 L 2.703125 -6.222656 L 3.929688 -6.222656 L 3.929688 -4.929688 L 2.703125 -4.929688 L 2.703125 0 L 1.054688 0 L 1.054688 -4.929688 L 0.140625 -4.929688 Z M 0.140625 -6.222656 "/>
</g>
<g id="glyph-4-15">
<path d="M 0.5 -4.78125 L 0.5 -6.292969 L 6.503906 -6.292969 L 6.503906 -4.78125 L 0.5 -4.78125 M 0.5 -2.179688 L 0.5 -3.695312 L 6.503906 -3.695312 L 6.503906 -2.179688 Z M 0.5 -2.179688 "/>
</g>
<g id="glyph-4-16">
<path d="M 0.453125 -2.28125 L 2.046875 -2.472656 C 2.09375 -2.066406 2.234375 -1.753906 2.453125 -1.539062 C 2.679688 -1.324219 2.945312 -1.21875 3.265625 -1.21875 C 3.601562 -1.21875 3.890625 -1.347656 4.121094 -1.605469 C 4.355469 -1.863281 4.46875 -2.210938 4.46875 -2.648438 C 4.46875 -3.0625 4.359375 -3.390625 4.136719 -3.632812 C 3.914062 -3.875 3.640625 -3.996094 3.320312 -3.996094 C 3.109375 -3.996094 2.859375 -3.953125 2.566406 -3.875 L 2.75 -5.214844 C 3.195312 -5.203125 3.53125 -5.300781 3.765625 -5.503906 C 4 -5.710938 4.117188 -5.984375 4.117188 -6.320312 C 4.117188 -6.609375 4.03125 -6.839844 3.859375 -7.015625 C 3.6875 -7.183594 3.460938 -7.273438 3.175781 -7.273438 C 2.894531 -7.273438 2.65625 -7.171875 2.453125 -6.976562 C 2.257812 -6.78125 2.132812 -6.5 2.09375 -6.125 L 0.574219 -6.382812 C 0.679688 -6.898438 0.839844 -7.316406 1.050781 -7.625 C 1.265625 -7.9375 1.5625 -8.179688 1.941406 -8.359375 C 2.324219 -8.535156 2.75 -8.625 3.222656 -8.625 C 4.03125 -8.625 4.679688 -8.367188 5.167969 -7.851562 C 5.570312 -7.429688 5.773438 -6.953125 5.773438 -6.421875 C 5.773438 -5.667969 5.359375 -5.066406 4.535156 -4.617188 C 5.027344 -4.511719 5.421875 -4.273438 5.714844 -3.90625 C 6.011719 -3.539062 6.15625 -3.097656 6.15625 -2.578125 C 6.15625 -1.824219 5.882812 -1.179688 5.332031 -0.648438 C 4.78125 -0.121094 4.09375 0.148438 3.273438 0.148438 C 2.496094 0.148438 1.851562 -0.078125 1.34375 -0.523438 C 0.828125 -0.972656 0.53125 -1.554688 0.453125 -2.28125 Z M 0.453125 -2.28125 "/>
</g>
<g id="glyph-4-17">
<path d="M -0.015625 0.148438 L 2.109375 -8.734375 L 3.34375 -8.734375 L 1.195312 0.148438 Z M -0.015625 0.148438 "/>
</g>
<g id="glyph-4-18">
<path d="M 4.722656 0 L 3.078125 0 L 3.078125 -6.203125 C 2.472656 -5.640625 1.765625 -5.226562 0.949219 -4.957031 L 0.949219 -6.453125 C 1.378906 -6.59375 1.84375 -6.859375 2.351562 -7.25 C 2.851562 -7.644531 3.199219 -8.101562 3.386719 -8.625 L 4.722656 -8.625 Z M 4.722656 0 "/>
</g>
<g id="glyph-4-19">
<path d="M 3.292969 -8.625 C 4.125 -8.625 4.773438 -8.328125 5.242188 -7.734375 C 5.800781 -7.03125 6.082031 -5.863281 6.082031 -4.234375 C 6.082031 -2.609375 5.800781 -1.441406 5.238281 -0.734375 C 4.773438 -0.148438 4.125 0.148438 3.292969 0.148438 C 2.457031 0.148438 1.78125 -0.175781 1.273438 -0.816406 C 0.757812 -1.460938 0.503906 -2.605469 0.503906 -4.253906 C 0.503906 -5.871094 0.785156 -7.035156 1.347656 -7.746094 C 1.8125 -8.332031 2.460938 -8.625 3.292969 -8.625 M 3.292969 -7.257812 C 3.09375 -7.257812 2.914062 -7.195312 2.757812 -7.070312 C 2.601562 -6.941406 2.480469 -6.714844 2.398438 -6.386719 C 2.28125 -5.960938 2.226562 -5.242188 2.226562 -4.234375 C 2.226562 -3.226562 2.277344 -2.535156 2.378906 -2.160156 C 2.480469 -1.78125 2.609375 -1.53125 2.761719 -1.40625 C 2.917969 -1.28125 3.09375 -1.21875 3.292969 -1.21875 C 3.492188 -1.21875 3.667969 -1.28125 3.828125 -1.410156 C 3.980469 -1.535156 4.101562 -1.765625 4.1875 -2.09375 C 4.300781 -2.511719 4.359375 -3.226562 4.359375 -4.234375 C 4.359375 -5.242188 4.308594 -5.9375 4.207031 -6.3125 C 4.105469 -6.691406 3.976562 -6.941406 3.824219 -7.070312 C 3.667969 -7.195312 3.492188 -7.257812 3.292969 -7.257812 Z M 3.292969 -7.257812 "/>
</g>
<g id="glyph-4-20">
<path d="M 0.40625 2.523438 C 0.726562 1.828125 0.957031 1.296875 1.089844 0.925781 C 1.222656 0.554688 1.34375 0.125 1.460938 -0.359375 C 1.570312 -0.839844 1.65625 -1.300781 1.710938 -1.738281 C 1.765625 -2.171875 1.792969 -2.617188 1.792969 -3.078125 C 1.792969 -4.003906 1.695312 -4.886719 1.492188 -5.714844 C 1.292969 -6.546875 0.925781 -7.554688 0.390625 -8.734375 L 1.511719 -8.734375 C 2.101562 -7.894531 2.558594 -7.003906 2.886719 -6.0625 C 3.210938 -5.121094 3.375 -4.167969 3.375 -3.199219 C 3.375 -2.382812 3.246094 -1.507812 2.988281 -0.574219 C 2.695312 0.472656 2.210938 1.507812 1.539062 2.523438 Z M 0.40625 2.523438 "/>
</g>
<g id="glyph-4-21">
<path d="M 3.738281 0 L 3.738281 -1.726562 L 0.222656 -1.726562 L 0.222656 -3.171875 L 3.949219 -8.625 L 5.332031 -8.625 L 5.332031 -3.175781 L 6.398438 -3.175781 L 6.398438 -1.726562 L 5.332031 -1.726562 L 5.332031 0 L 3.738281 0 M 3.738281 -3.175781 L 3.738281 -6.109375 L 1.765625 -3.175781 Z M 3.738281 -3.175781 "/>
</g>
<g id="glyph-4-22">
<path d="M 0.53125 -2.210938 L 2.171875 -2.378906 C 2.21875 -2.007812 2.359375 -1.714844 2.589844 -1.496094 C 2.820312 -1.28125 3.085938 -1.171875 3.386719 -1.171875 C 3.730469 -1.171875 4.019531 -1.3125 4.257812 -1.589844 C 4.496094 -1.871094 4.617188 -2.289062 4.617188 -2.851562 C 4.617188 -3.382812 4.5 -3.777344 4.261719 -4.039062 C 4.027344 -4.304688 3.71875 -4.4375 3.339844 -4.4375 C 2.867188 -4.4375 2.445312 -4.226562 2.070312 -3.808594 L 0.734375 -4 L 1.578125 -8.472656 L 5.929688 -8.472656 L 5.929688 -6.929688 L 2.824219 -6.929688 L 2.566406 -5.472656 C 2.933594 -5.65625 3.308594 -5.746094 3.691406 -5.75 C 4.421875 -5.746094 5.039062 -5.480469 5.546875 -4.953125 C 6.054688 -4.417969 6.3125 -3.730469 6.3125 -2.882812 C 6.3125 -2.175781 6.105469 -1.542969 5.695312 -0.992188 C 5.136719 -0.234375 4.359375 0.148438 3.367188 0.148438 C 2.574219 0.148438 1.929688 -0.0664062 1.429688 -0.492188 C 0.929688 -0.917969 0.628906 -1.488281 0.53125 -2.210938 Z M 0.53125 -2.210938 "/>
</g>
<g id="glyph-5-0">
<path d="M 0.984375 0 L 0.984375 -8.589844 L 6.78125 -8.589844 L 6.78125 -7.578125 L 2.121094 -7.578125 L 2.121094 -4.914062 L 6.152344 -4.914062 L 6.152344 -3.902344 L 2.121094 -3.902344 L 2.121094 0 Z M 0.984375 0 "/>
</g>
<g id="glyph-5-1">
<path d="M 0.382812 -2.578125 L 0.382812 -3.640625 L 3.621094 -3.640625 L 3.621094 -2.578125 Z M 0.382812 -2.578125 "/>
</g>
<g id="glyph-5-2">
<path d="M 3.382812 0 L 0.0546875 -8.589844 L 1.28125 -8.589844 L 3.515625 -2.351562 C 3.695312 -1.847656 3.84375 -1.378906 3.96875 -0.945312 C 4.097656 -1.414062 4.253906 -1.882812 4.429688 -2.351562 L 6.75 -8.589844 L 7.910156 -8.589844 L 4.546875 0 Z M 3.382812 0 "/>
</g>
<g id="glyph-5-3">
<path d="M 5.050781 -2.003906 L 6.140625 -1.867188 C 5.96875 -1.230469 5.648438 -0.738281 5.1875 -0.386719 C 4.71875 -0.0351562 4.125 0.140625 3.40625 0.140625 C 2.492188 0.140625 1.773438 -0.140625 1.238281 -0.699219 C 0.707031 -1.261719 0.4375 -2.046875 0.4375 -3.058594 C 0.4375 -4.105469 0.710938 -4.917969 1.25 -5.496094 C 1.789062 -6.074219 2.484375 -6.363281 3.34375 -6.363281 C 4.179688 -6.363281 4.859375 -6.078125 5.382812 -5.515625 C 5.914062 -4.945312 6.175781 -4.148438 6.175781 -3.125 C 6.175781 -3.058594 6.171875 -2.964844 6.171875 -2.84375 L 1.53125 -2.84375 C 1.566406 -2.15625 1.761719 -1.632812 2.109375 -1.273438 C 2.457031 -0.90625 2.890625 -0.726562 3.410156 -0.726562 C 3.796875 -0.726562 4.125 -0.828125 4.398438 -1.03125 C 4.671875 -1.234375 4.890625 -1.558594 5.050781 -2.003906 M 1.585938 -3.710938 L 5.0625 -3.710938 C 5.015625 -4.230469 4.882812 -4.625 4.664062 -4.886719 C 4.328125 -5.292969 3.890625 -5.496094 3.359375 -5.496094 C 2.871094 -5.496094 2.464844 -5.332031 2.136719 -5.007812 C 1.804688 -4.683594 1.625 -4.25 1.585938 -3.710938 Z M 1.585938 -3.710938 "/>
</g>
<g id="glyph-5-4">
<path d="M 0.78125 0 L 0.78125 -6.222656 L 1.726562 -6.222656 L 1.726562 -5.28125 C 1.96875 -5.71875 2.195312 -6.011719 2.398438 -6.152344 C 2.605469 -6.292969 2.828125 -6.363281 3.078125 -6.363281 C 3.429688 -6.363281 3.792969 -6.25 4.160156 -6.023438 L 3.796875 -5.046875 C 3.539062 -5.195312 3.28125 -5.273438 3.023438 -5.273438 C 2.792969 -5.273438 2.585938 -5.203125 2.402344 -5.066406 C 2.21875 -4.925781 2.085938 -4.734375 2.007812 -4.488281 C 1.890625 -4.113281 1.835938 -3.703125 1.835938 -3.257812 L 1.835938 0 Z M 0.78125 0 "/>
</g>
<g id="glyph-5-5">
<path d="M 3.09375 -0.945312 L 3.246094 -0.0117188 C 2.949219 0.0507812 2.683594 0.0820312 2.449219 0.0820312 C 2.066406 0.0820312 1.769531 0.0195312 1.558594 -0.101562 C 1.347656 -0.21875 1.199219 -0.378906 1.113281 -0.578125 C 1.027344 -0.773438 0.984375 -1.1875 0.984375 -1.820312 L 0.984375 -5.402344 L 0.210938 -5.402344 L 0.210938 -6.222656 L 0.984375 -6.222656 L 0.984375 -7.765625 L 2.03125 -8.398438 L 2.03125 -6.222656 L 3.09375 -6.222656 L 3.09375 -5.402344 L 2.03125 -5.402344 L 2.03125 -1.765625 C 2.03125 -1.460938 2.050781 -1.269531 2.089844 -1.183594 C 2.125 -1.097656 2.1875 -1.027344 2.269531 -0.976562 C 2.355469 -0.925781 2.472656 -0.902344 2.632812 -0.902344 C 2.75 -0.902344 2.902344 -0.914062 3.09375 -0.945312 Z M 3.09375 -0.945312 "/>
</g>
<g id="glyph-5-6">
<path d="M 0.796875 -7.375 L 0.796875 -8.589844 L 1.851562 -8.589844 L 1.851562 -7.375 L 0.796875 -7.375 M 0.796875 0 L 0.796875 -6.222656 L 1.851562 -6.222656 L 1.851562 0 Z M 0.796875 0 "/>
</g>
<g id="glyph-5-7">
<path d="M 0.765625 0 L 0.765625 -8.589844 L 1.820312 -8.589844 L 1.820312 0 Z M 0.765625 0 "/>
</g>
<g id="glyph-5-8">
<path d="M 4.867188 0 L 4.867188 -0.914062 C 4.382812 -0.210938 3.726562 0.140625 2.894531 0.140625 C 2.527344 0.140625 2.183594 0.0703125 1.867188 -0.0703125 C 1.546875 -0.210938 1.3125 -0.386719 1.15625 -0.601562 C 1.003906 -0.8125 0.894531 -1.074219 0.832031 -1.382812 C 0.789062 -1.589844 0.765625 -1.917969 0.765625 -2.367188 L 0.765625 -6.222656 L 1.820312 -6.222656 L 1.820312 -2.773438 C 1.820312 -2.21875 1.84375 -1.847656 1.886719 -1.65625 C 1.953125 -1.378906 2.09375 -1.164062 2.308594 -1.003906 C 2.523438 -0.847656 2.789062 -0.765625 3.105469 -0.765625 C 3.421875 -0.765625 3.71875 -0.847656 3.996094 -1.011719 C 4.273438 -1.171875 4.46875 -1.394531 4.585938 -1.671875 C 4.699219 -1.953125 4.757812 -2.355469 4.757812 -2.890625 L 4.757812 -6.222656 L 5.8125 -6.222656 L 5.8125 0 Z M 4.867188 0 "/>
</g>
<g id="glyph-5-9">
<path d="M 0.789062 0 L 0.789062 -6.222656 L 1.742188 -6.222656 L 1.742188 -5.335938 C 2.195312 -6.019531 2.855469 -6.363281 3.71875 -6.363281 C 4.09375 -6.363281 4.441406 -6.296875 4.753906 -6.160156 C 5.070312 -6.027344 5.304688 -5.847656 5.460938 -5.632812 C 5.617188 -5.410156 5.726562 -5.152344 5.789062 -4.851562 C 5.828125 -4.65625 5.847656 -4.3125 5.847656 -3.828125 L 5.847656 0 L 4.792969 0 L 4.792969 -3.785156 C 4.792969 -4.214844 4.75 -4.535156 4.671875 -4.75 C 4.585938 -4.960938 4.441406 -5.132812 4.234375 -5.257812 C 4.023438 -5.386719 3.78125 -5.449219 3.5 -5.449219 C 3.046875 -5.449219 2.660156 -5.304688 2.335938 -5.023438 C 2.007812 -4.734375 1.84375 -4.195312 1.84375 -3.398438 L 1.84375 0 Z M 0.789062 0 "/>
</g>
<g id="glyph-5-10">
<path d="M 0.597656 0.515625 L 1.625 0.667969 C 1.664062 0.984375 1.785156 1.214844 1.980469 1.359375 C 2.242188 1.554688 2.597656 1.652344 3.054688 1.652344 C 3.539062 1.652344 3.917969 1.554688 4.183594 1.359375 C 4.449219 1.164062 4.628906 0.890625 4.722656 0.539062 C 4.777344 0.324219 4.800781 -0.128906 4.796875 -0.8125 C 4.335938 -0.273438 3.761719 0 3.078125 0 C 2.21875 0 1.558594 -0.308594 1.089844 -0.925781 C 0.621094 -1.542969 0.386719 -2.28125 0.386719 -3.148438 C 0.386719 -3.738281 0.492188 -4.289062 0.710938 -4.789062 C 0.921875 -5.292969 1.234375 -5.679688 1.644531 -5.953125 C 2.050781 -6.226562 2.53125 -6.363281 3.082031 -6.363281 C 3.816406 -6.363281 4.421875 -6.066406 4.898438 -5.472656 L 4.898438 -6.222656 L 5.871094 -6.222656 L 5.871094 -0.84375 C 5.871094 0.125 5.773438 0.8125 5.574219 1.214844 C 5.378906 1.621094 5.066406 1.9375 4.636719 2.171875 C 4.210938 2.40625 3.683594 2.523438 3.058594 2.523438 C 2.316406 2.523438 1.71875 2.359375 1.257812 2.023438 C 0.804688 1.691406 0.582031 1.1875 0.597656 0.515625 M 1.46875 -3.222656 C 1.46875 -2.40625 1.632812 -1.8125 1.957031 -1.4375 C 2.28125 -1.0625 2.6875 -0.875 3.175781 -0.875 C 3.660156 -0.875 4.066406 -1.058594 4.394531 -1.433594 C 4.722656 -1.804688 4.886719 -2.390625 4.886719 -3.1875 C 4.886719 -3.949219 4.71875 -4.523438 4.378906 -4.910156 C 4.042969 -5.296875 3.632812 -5.492188 3.15625 -5.492188 C 2.6875 -5.492188 2.289062 -5.300781 1.960938 -4.917969 C 1.632812 -4.539062 1.46875 -3.972656 1.46875 -3.222656 Z M 1.46875 -3.222656 "/>
</g>
<g id="glyph-5-11">
<path d="M 1.085938 -5.023438 L 1.085938 -6.222656 L 2.285156 -6.222656 L 2.285156 -5.023438 L 1.085938 -5.023438 M 1.085938 0 L 1.085938 -1.203125 L 2.285156 -1.203125 L 2.285156 0 Z M 1.085938 0 "/>
</g>
<g id="glyph-5-12">
</g>
<g id="glyph-5-13">
<path d="M 0.65625 -1.984375 L 1.671875 -2.078125 C 1.753906 -1.601562 1.917969 -1.257812 2.164062 -1.042969 C 2.402344 -0.828125 2.714844 -0.71875 3.09375 -0.71875 C 3.417969 -0.71875 3.703125 -0.792969 3.945312 -0.945312 C 4.191406 -1.089844 4.390625 -1.289062 4.546875 -1.539062 C 4.703125 -1.785156 4.832031 -2.121094 4.9375 -2.542969 C 5.042969 -2.964844 5.097656 -3.394531 5.097656 -3.832031 C 5.097656 -3.878906 5.09375 -3.949219 5.09375 -4.042969 C 4.882812 -3.707031 4.59375 -3.433594 4.226562 -3.226562 C 3.863281 -3.015625 3.464844 -2.914062 3.039062 -2.914062 C 2.328125 -2.914062 1.726562 -3.171875 1.234375 -3.6875 C 0.742188 -4.203125 0.5 -4.882812 0.5 -5.726562 C 0.5 -6.59375 0.753906 -7.296875 1.269531 -7.828125 C 1.78125 -8.359375 2.425781 -8.625 3.199219 -8.625 C 3.757812 -8.625 4.269531 -8.472656 4.730469 -8.171875 C 5.195312 -7.871094 5.546875 -7.445312 5.785156 -6.886719 C 6.027344 -6.332031 6.148438 -5.523438 6.148438 -4.46875 C 6.148438 -3.371094 6.027344 -2.5 5.789062 -1.847656 C 5.550781 -1.199219 5.195312 -0.703125 4.726562 -0.363281 C 4.253906 -0.0234375 3.703125 0.148438 3.070312 0.148438 C 2.398438 0.148438 1.847656 -0.0390625 1.421875 -0.414062 C 0.996094 -0.785156 0.742188 -1.308594 0.65625 -1.984375 M 4.976562 -5.777344 C 4.972656 -6.382812 4.8125 -6.863281 4.492188 -7.21875 C 4.167969 -7.574219 3.78125 -7.75 3.328125 -7.75 C 2.859375 -7.75 2.449219 -7.558594 2.101562 -7.179688 C 1.753906 -6.792969 1.582031 -6.296875 1.582031 -5.6875 C 1.582031 -5.140625 1.746094 -4.699219 2.078125 -4.355469 C 2.40625 -4.015625 2.8125 -3.84375 3.296875 -3.84375 C 3.785156 -3.84375 4.1875 -4.015625 4.503906 -4.355469 C 4.816406 -4.699219 4.972656 -5.171875 4.976562 -5.777344 Z M 4.976562 -5.777344 "/>
</g>
<g id="glyph-5-14">
<path d="M 0.5 -4.234375 C 0.5 -5.25 0.601562 -6.070312 0.8125 -6.6875 C 1.019531 -7.308594 1.332031 -7.785156 1.742188 -8.121094 C 2.15625 -8.457031 2.671875 -8.625 3.296875 -8.625 C 3.757812 -8.625 4.164062 -8.53125 4.511719 -8.347656 C 4.859375 -8.160156 5.144531 -7.894531 5.375 -7.542969 C 5.597656 -7.195312 5.777344 -6.769531 5.90625 -6.265625 C 6.035156 -5.765625 6.101562 -5.085938 6.101562 -4.234375 C 6.101562 -3.226562 5.996094 -2.414062 5.789062 -1.796875 C 5.582031 -1.175781 5.273438 -0.699219 4.859375 -0.359375 C 4.449219 -0.0234375 3.925781 0.148438 3.296875 0.148438 C 2.46875 0.148438 1.820312 -0.152344 1.347656 -0.742188 C 0.78125 -1.460938 0.5 -2.621094 0.5 -4.234375 M 1.582031 -4.234375 C 1.582031 -2.824219 1.746094 -1.886719 2.078125 -1.421875 C 2.40625 -0.953125 2.8125 -0.71875 3.296875 -0.71875 C 3.78125 -0.71875 4.191406 -0.953125 4.519531 -1.421875 C 4.851562 -1.890625 5.015625 -2.828125 5.015625 -4.234375 C 5.015625 -5.648438 4.851562 -6.589844 4.519531 -7.054688 C 4.191406 -7.519531 3.78125 -7.75 3.289062 -7.75 C 2.800781 -7.75 2.414062 -7.546875 2.125 -7.136719 C 1.765625 -6.613281 1.582031 -5.644531 1.582031 -4.234375 Z M 1.582031 -4.234375 "/>
</g>
<g id="glyph-5-15">
<path d="M 0.695312 -6.527344 C 0.695312 -7.140625 0.851562 -7.660156 1.160156 -8.09375 C 1.46875 -8.519531 1.914062 -8.734375 2.5 -8.734375 C 3.039062 -8.734375 3.488281 -8.542969 3.839844 -8.160156 C 4.195312 -7.773438 4.371094 -7.207031 4.371094 -6.460938 C 4.371094 -5.734375 4.191406 -5.175781 3.835938 -4.785156 C 3.476562 -4.390625 3.035156 -4.195312 2.515625 -4.195312 C 1.992188 -4.195312 1.5625 -4.390625 1.214844 -4.773438 C 0.871094 -5.164062 0.695312 -5.746094 0.695312 -6.527344 M 2.53125 -8.007812 C 2.269531 -8.007812 2.050781 -7.894531 1.878906 -7.671875 C 1.703125 -7.441406 1.617188 -7.027344 1.617188 -6.421875 C 1.617188 -5.871094 1.703125 -5.484375 1.882812 -5.257812 C 2.054688 -5.035156 2.273438 -4.921875 2.53125 -4.921875 C 2.796875 -4.921875 3.015625 -5.035156 3.191406 -5.261719 C 3.363281 -5.488281 3.453125 -5.902344 3.453125 -6.503906 C 3.453125 -7.058594 3.363281 -7.449219 3.1875 -7.671875 C 3.011719 -7.898438 2.792969 -8.007812 2.53125 -8.007812 M 2.539062 0.316406 L 7.234375 -8.734375 L 8.09375 -8.734375 L 3.410156 0.316406 L 2.539062 0.316406 M 6.25 -2.015625 C 6.25 -2.632812 6.40625 -3.15625 6.714844 -3.582031 C 7.023438 -4.011719 7.472656 -4.226562 8.0625 -4.226562 C 8.601562 -4.226562 9.046875 -4.03125 9.402344 -3.648438 C 9.753906 -3.261719 9.929688 -2.695312 9.929688 -1.953125 C 9.929688 -1.226562 9.753906 -0.664062 9.394531 -0.273438 C 9.039062 0.121094 8.59375 0.316406 8.070312 0.316406 C 7.546875 0.316406 7.117188 0.121094 6.769531 -0.265625 C 6.425781 -0.65625 6.25 -1.238281 6.25 -2.015625 M 8.09375 -3.5 C 7.824219 -3.5 7.605469 -3.382812 7.433594 -3.15625 C 7.257812 -2.929688 7.171875 -2.515625 7.171875 -1.910156 C 7.171875 -1.363281 7.257812 -0.976562 7.4375 -0.75 C 7.609375 -0.523438 7.828125 -0.410156 8.085938 -0.410156 C 8.355469 -0.410156 8.578125 -0.523438 8.75 -0.75 C 8.925781 -0.976562 9.011719 -1.390625 9.011719 -1.992188 C 9.011719 -2.546875 8.921875 -2.9375 8.75 -3.160156 C 8.570312 -3.386719 8.351562 -3.5 8.09375 -3.5 Z M 8.09375 -3.5 "/>
</g>
<g id="glyph-5-16">
<path d="M 4.828125 0 L 4.828125 -0.785156 C 4.433594 -0.167969 3.851562 0.140625 3.085938 0.140625 C 2.589844 0.140625 2.136719 0.00390625 1.71875 -0.269531 C 1.304688 -0.542969 0.980469 -0.925781 0.753906 -1.414062 C 0.523438 -1.90625 0.410156 -2.46875 0.410156 -3.105469 C 0.410156 -3.726562 0.511719 -4.289062 0.71875 -4.796875 C 0.925781 -5.300781 1.238281 -5.6875 1.652344 -5.960938 C 2.066406 -6.226562 2.527344 -6.363281 3.039062 -6.363281 C 3.414062 -6.363281 3.75 -6.285156 4.042969 -6.125 C 4.335938 -5.96875 4.574219 -5.761719 4.757812 -5.507812 L 4.757812 -8.589844 L 5.804688 -8.589844 L 5.804688 0 L 4.828125 0 M 1.492188 -3.105469 C 1.492188 -2.308594 1.660156 -1.710938 2 -1.320312 C 2.332031 -0.921875 2.730469 -0.726562 3.1875 -0.726562 C 3.648438 -0.726562 4.039062 -0.914062 4.363281 -1.292969 C 4.683594 -1.667969 4.84375 -2.242188 4.84375 -3.015625 C 4.84375 -3.867188 4.679688 -4.492188 4.351562 -4.890625 C 4.023438 -5.289062 3.621094 -5.492188 3.140625 -5.492188 C 2.671875 -5.492188 2.28125 -5.296875 1.964844 -4.914062 C 1.652344 -4.53125 1.492188 -3.929688 1.492188 -3.105469 Z M 1.492188 -3.105469 "/>
</g>
<g id="glyph-5-17">
<path d="M 0.5 -2.25 L 1.605469 -2.34375 C 1.6875 -1.804688 1.878906 -1.398438 2.175781 -1.128906 C 2.476562 -0.855469 2.835938 -0.71875 3.257812 -0.71875 C 3.765625 -0.71875 4.195312 -0.910156 4.546875 -1.296875 C 4.898438 -1.675781 5.074219 -2.1875 5.074219 -2.820312 C 5.074219 -3.417969 4.90625 -3.894531 4.566406 -4.242188 C 4.230469 -4.589844 3.785156 -4.761719 3.242188 -4.765625 C 2.898438 -4.761719 2.59375 -4.6875 2.320312 -4.53125 C 2.046875 -4.378906 1.832031 -4.179688 1.675781 -3.929688 L 0.6875 -4.0625 L 1.515625 -8.472656 L 5.789062 -8.472656 L 5.789062 -7.464844 L 2.359375 -7.464844 L 1.898438 -5.15625 C 2.414062 -5.515625 2.953125 -5.695312 3.523438 -5.695312 C 4.273438 -5.695312 4.90625 -5.433594 5.421875 -4.914062 C 5.9375 -4.394531 6.195312 -3.726562 6.195312 -2.914062 C 6.195312 -2.132812 5.964844 -1.460938 5.515625 -0.898438 C 4.960938 -0.203125 4.210938 0.148438 3.257812 0.148438 C 2.476562 0.148438 1.839844 -0.0742188 1.34375 -0.507812 C 0.851562 -0.945312 0.570312 -1.527344 0.5 -2.25 Z M 0.5 -2.25 "/>
</g>
<g id="glyph-5-18">
<path d="M 0.878906 0 L 0.878906 -8.589844 L 2.015625 -8.589844 L 2.015625 -4.328125 L 6.28125 -8.589844 L 7.820312 -8.589844 L 4.21875 -5.109375 L 7.980469 0 L 6.480469 0 L 3.421875 -4.347656 L 2.015625 -2.976562 L 2.015625 0 Z M 0.878906 0 "/>
</g>
<g id="glyph-5-19">
<path d="M 0.398438 -3.109375 C 0.398438 -4.261719 0.71875 -5.117188 1.359375 -5.671875 C 1.894531 -6.132812 2.546875 -6.363281 3.316406 -6.363281 C 4.171875 -6.363281 4.871094 -6.082031 5.414062 -5.523438 C 5.957031 -4.960938 6.226562 -4.1875 6.226562 -3.199219 C 6.226562 -2.398438 6.109375 -1.769531 5.867188 -1.308594 C 5.628906 -0.851562 5.277344 -0.492188 4.820312 -0.242188 C 4.359375 0.0117188 3.859375 0.140625 3.316406 0.140625 C 2.445312 0.140625 1.742188 -0.140625 1.203125 -0.695312 C 0.667969 -1.253906 0.398438 -2.058594 0.398438 -3.109375 M 1.484375 -3.109375 C 1.484375 -2.3125 1.65625 -1.71875 2.003906 -1.320312 C 2.351562 -0.925781 2.789062 -0.726562 3.316406 -0.726562 C 3.839844 -0.726562 4.273438 -0.925781 4.625 -1.324219 C 4.96875 -1.722656 5.144531 -2.328125 5.144531 -3.148438 C 5.144531 -3.914062 4.96875 -4.5 4.621094 -4.894531 C 4.269531 -5.292969 3.835938 -5.492188 3.316406 -5.492188 C 2.789062 -5.492188 2.351562 -5.292969 2.003906 -4.898438 C 1.65625 -4.503906 1.484375 -3.90625 1.484375 -3.109375 Z M 1.484375 -3.109375 "/>
</g>
<g id="glyph-5-20">
<path d="M 1.042969 0 L 1.042969 -5.402344 L 0.109375 -5.402344 L 0.109375 -6.222656 L 1.042969 -6.222656 L 1.042969 -6.882812 C 1.042969 -7.300781 1.078125 -7.613281 1.15625 -7.816406 C 1.253906 -8.089844 1.433594 -8.3125 1.691406 -8.480469 C 1.945312 -8.652344 2.304688 -8.734375 2.765625 -8.734375 C 3.0625 -8.734375 3.390625 -8.703125 3.75 -8.632812 L 3.59375 -7.710938 C 3.371094 -7.75 3.164062 -7.769531 2.96875 -7.769531 C 2.648438 -7.769531 2.421875 -7.699219 2.289062 -7.5625 C 2.15625 -7.425781 2.09375 -7.171875 2.09375 -6.796875 L 2.09375 -6.222656 L 3.304688 -6.222656 L 3.304688 -5.402344 L 2.09375 -5.402344 L 2.09375 0 Z M 1.042969 0 "/>
</g>
<g id="glyph-5-21">
<path d="M 0.234375 0 L 0.234375 -0.855469 L 4.195312 -5.402344 C 3.746094 -5.378906 3.347656 -5.367188 3.007812 -5.367188 L 0.46875 -5.367188 L 0.46875 -6.222656 L 5.554688 -6.222656 L 5.554688 -5.523438 L 2.1875 -1.578125 L 1.535156 -0.855469 C 2.007812 -0.890625 2.449219 -0.90625 2.867188 -0.90625 L 5.742188 -0.90625 L 5.742188 0 Z M 0.234375 0 "/>
</g>
<g id="glyph-5-22">
<path d="M 2.519531 0 L 0.152344 -6.222656 L 1.265625 -6.222656 L 2.601562 -2.496094 C 2.746094 -2.09375 2.878906 -1.675781 3 -1.242188 C 3.09375 -1.570312 3.222656 -1.964844 3.390625 -2.425781 L 4.773438 -6.222656 L 5.859375 -6.222656 L 3.503906 0 Z M 2.519531 0 "/>
</g>
<g id="glyph-5-23">
<path d="M 4.851562 -0.765625 C 4.460938 -0.433594 4.085938 -0.199219 3.722656 -0.0625 C 3.363281 0.0703125 2.972656 0.140625 2.5625 0.140625 C 1.875 0.140625 1.351562 -0.0273438 0.984375 -0.359375 C 0.617188 -0.695312 0.433594 -1.121094 0.433594 -1.640625 C 0.433594 -1.945312 0.503906 -2.222656 0.640625 -2.476562 C 0.78125 -2.726562 0.960938 -2.929688 1.1875 -3.082031 C 1.410156 -3.234375 1.664062 -3.347656 1.945312 -3.429688 C 2.152344 -3.480469 2.464844 -3.535156 2.882812 -3.585938 C 3.734375 -3.6875 4.359375 -3.808594 4.765625 -3.949219 C 4.765625 -4.09375 4.769531 -4.183594 4.769531 -4.226562 C 4.769531 -4.652344 4.671875 -4.957031 4.46875 -5.132812 C 4.203125 -5.371094 3.800781 -5.492188 3.269531 -5.492188 C 2.773438 -5.492188 2.40625 -5.402344 2.171875 -5.230469 C 1.933594 -5.054688 1.757812 -4.746094 1.648438 -4.304688 L 0.617188 -4.445312 C 0.707031 -4.886719 0.863281 -5.246094 1.078125 -5.515625 C 1.292969 -5.789062 1.601562 -5.996094 2.007812 -6.144531 C 2.414062 -6.289062 2.886719 -6.363281 3.421875 -6.363281 C 3.953125 -6.363281 4.382812 -6.300781 4.71875 -6.175781 C 5.046875 -6.050781 5.292969 -5.894531 5.449219 -5.703125 C 5.605469 -5.515625 5.714844 -5.273438 5.777344 -4.984375 C 5.8125 -4.804688 5.828125 -4.484375 5.828125 -4.015625 L 5.828125 -2.609375 C 5.828125 -1.628906 5.851562 -1.007812 5.898438 -0.746094 C 5.941406 -0.488281 6.03125 -0.238281 6.164062 0 L 5.0625 0 C 4.953125 -0.21875 4.882812 -0.476562 4.851562 -0.765625 M 4.765625 -3.125 C 4.378906 -2.964844 3.804688 -2.832031 3.039062 -2.726562 C 2.605469 -2.660156 2.300781 -2.589844 2.121094 -2.515625 C 1.941406 -2.433594 1.800781 -2.320312 1.703125 -2.171875 C 1.605469 -2.019531 1.558594 -1.851562 1.558594 -1.671875 C 1.558594 -1.386719 1.664062 -1.152344 1.878906 -0.96875 C 2.089844 -0.78125 2.402344 -0.683594 2.8125 -0.6875 C 3.21875 -0.683594 3.578125 -0.773438 3.898438 -0.953125 C 4.210938 -1.128906 4.445312 -1.371094 4.59375 -1.679688 C 4.707031 -1.917969 4.761719 -2.269531 4.765625 -2.734375 Z M 4.765625 -3.125 "/>
</g>
</g>
<clipPath id="clip-0">
<path clip-rule="nonzero" d="M 0 16.789062 L 576 16.789062 L 576 711 L 0 711 Z M 0 16.789062 "/>
</clipPath>
<clipPath id="clip-1">
<path clip-rule="nonzero" d="M 39.242188 562 L 570.523438 562 L 570.523438 564 L 39.242188 564 Z M 39.242188 562 "/>
</clipPath>
<clipPath id="clip-2">
<path clip-rule="nonzero" d="M 39.242188 396 L 570.523438 396 L 570.523438 398 L 39.242188 398 Z M 39.242188 396 "/>
</clipPath>
<clipPath id="clip-3">
<path clip-rule="nonzero" d="M 39.242188 231 L 570.523438 231 L 570.523438 232 L 39.242188 232 Z M 39.242188 231 "/>
</clipPath>
<clipPath id="clip-4">
<path clip-rule="nonzero" d="M 39.242188 65 L 570.523438 65 L 570.523438 67 L 39.242188 67 Z M 39.242188 65 "/>
</clipPath>
<clipPath id="clip-5">
<path clip-rule="nonzero" d="M 123 40.863281 L 125 40.863281 L 125 674.398438 L 123 674.398438 Z M 123 40.863281 "/>
</clipPath>
<clipPath id="clip-6">
<path clip-rule="nonzero" d="M 244 40.863281 L 245 40.863281 L 245 674.398438 L 244 674.398438 Z M 244 40.863281 "/>
</clipPath>
<clipPath id="clip-7">
<path clip-rule="nonzero" d="M 364 40.863281 L 366 40.863281 L 366 674.398438 L 364 674.398438 Z M 364 40.863281 "/>
</clipPath>
<clipPath id="clip-8">
<path clip-rule="nonzero" d="M 485 40.863281 L 487 40.863281 L 487 674.398438 L 485 674.398438 Z M 485 40.863281 "/>
</clipPath>
<clipPath id="clip-9">
<path clip-rule="nonzero" d="M 39.242188 645 L 570.523438 645 L 570.523438 646 L 39.242188 646 Z M 39.242188 645 "/>
</clipPath>
<clipPath id="clip-10">
<path clip-rule="nonzero" d="M 39.242188 479 L 570.523438 479 L 570.523438 481 L 39.242188 481 Z M 39.242188 479 "/>
</clipPath>
<clipPath id="clip-11">
<path clip-rule="nonzero" d="M 39.242188 314 L 570.523438 314 L 570.523438 315 L 39.242188 315 Z M 39.242188 314 "/>
</clipPath>
<clipPath id="clip-12">
<path clip-rule="nonzero" d="M 39.242188 148 L 570.523438 148 L 570.523438 150 L 39.242188 150 Z M 39.242188 148 "/>
</clipPath>
<clipPath id="clip-13">
<path clip-rule="nonzero" d="M 63 40.863281 L 64 40.863281 L 64 674.398438 L 63 674.398438 Z M 63 40.863281 "/>
</clipPath>
<clipPath id="clip-14">
<path clip-rule="nonzero" d="M 183 40.863281 L 185 40.863281 L 185 674.398438 L 183 674.398438 Z M 183 40.863281 "/>
</clipPath>
<clipPath id="clip-15">
<path clip-rule="nonzero" d="M 304 40.863281 L 306 40.863281 L 306 674.398438 L 304 674.398438 Z M 304 40.863281 "/>
</clipPath>
<clipPath id="clip-16">
<path clip-rule="nonzero" d="M 425 40.863281 L 426 40.863281 L 426 674.398438 L 425 674.398438 Z M 425 40.863281 "/>
</clipPath>
<clipPath id="clip-17">
<path clip-rule="nonzero" d="M 546 40.863281 L 547 40.863281 L 547 674.398438 L 546 674.398438 Z M 546 40.863281 "/>
</clipPath>
<clipPath id="clip-18">
<path clip-rule="nonzero" d="M 63 40.863281 L 196 40.863281 L 196 646 L 63 646 Z M 63 40.863281 "/>
</clipPath>
<clipPath id="clip-19">
<path clip-rule="nonzero" d="M 63 40.863281 L 243 40.863281 L 243 646 L 63 646 Z M 63 40.863281 "/>
</clipPath>
<clipPath id="clip-20">
<path clip-rule="nonzero" d="M 194 40.863281 L 196 40.863281 L 196 674.398438 L 194 674.398438 Z M 194 40.863281 "/>
</clipPath>
<clipPath id="clip-21">
<path clip-rule="nonzero" d="M 241 40.863281 L 244 40.863281 L 244 674.398438 L 241 674.398438 Z M 241 40.863281 "/>
</clipPath>
<clipPath id="clip-22">
<path clip-rule="nonzero" d="M 576 16.789062 L 1152 16.789062 L 1152 711 L 576 711 Z M 576 16.789062 "/>
</clipPath>
<clipPath id="clip-23">
<path clip-rule="nonzero" d="M 615.242188 556 L 1146.523438 556 L 1146.523438 557 L 615.242188 557 Z M 615.242188 556 "/>
</clipPath>
<clipPath id="clip-24">
<path clip-rule="nonzero" d="M 615.242188 378 L 1146.523438 378 L 1146.523438 379 L 615.242188 379 Z M 615.242188 378 "/>
</clipPath>
<clipPath id="clip-25">
<path clip-rule="nonzero" d="M 615.242188 199 L 1146.523438 199 L 1146.523438 201 L 615.242188 201 Z M 615.242188 199 "/>
</clipPath>
<clipPath id="clip-26">
<path clip-rule="nonzero" d="M 719 40.863281 L 721 40.863281 L 721 674.398438 L 719 674.398438 Z M 719 40.863281 "/>
</clipPath>
<clipPath id="clip-27">
<path clip-rule="nonzero" d="M 880 40.863281 L 882 40.863281 L 882 674.398438 L 880 674.398438 Z M 880 40.863281 "/>
</clipPath>
<clipPath id="clip-28">
<path clip-rule="nonzero" d="M 1041 40.863281 L 1043 40.863281 L 1043 674.398438 L 1041 674.398438 Z M 1041 40.863281 "/>
</clipPath>
<clipPath id="clip-29">
<path clip-rule="nonzero" d="M 615.242188 645 L 1146.523438 645 L 1146.523438 646 L 615.242188 646 Z M 615.242188 645 "/>
</clipPath>
<clipPath id="clip-30">
<path clip-rule="nonzero" d="M 615.242188 467 L 1146.523438 467 L 1146.523438 468 L 615.242188 468 Z M 615.242188 467 "/>
</clipPath>
<clipPath id="clip-31">
<path clip-rule="nonzero" d="M 615.242188 288 L 1146.523438 288 L 1146.523438 290 L 615.242188 290 Z M 615.242188 288 "/>
</clipPath>
<clipPath id="clip-32">
<path clip-rule="nonzero" d="M 615.242188 110 L 1146.523438 110 L 1146.523438 112 L 615.242188 112 Z M 615.242188 110 "/>
</clipPath>
<clipPath id="clip-33">
<path clip-rule="nonzero" d="M 639 40.863281 L 640 40.863281 L 640 674.398438 L 639 674.398438 Z M 639 40.863281 "/>
</clipPath>
<clipPath id="clip-34">
<path clip-rule="nonzero" d="M 800 40.863281 L 801 40.863281 L 801 674.398438 L 800 674.398438 Z M 800 40.863281 "/>
</clipPath>
<clipPath id="clip-35">
<path clip-rule="nonzero" d="M 961 40.863281 L 962 40.863281 L 962 674.398438 L 961 674.398438 Z M 961 40.863281 "/>
</clipPath>
<clipPath id="clip-36">
<path clip-rule="nonzero" d="M 1122 40.863281 L 1123 40.863281 L 1123 674.398438 L 1122 674.398438 Z M 1122 40.863281 "/>
</clipPath>
<clipPath id="clip-37">
<path clip-rule="nonzero" d="M 639 40.863281 L 860 40.863281 L 860 646 L 639 646 Z M 639 40.863281 "/>
</clipPath>
<clipPath id="clip-38">
<path clip-rule="nonzero" d="M 639 40.863281 L 880 40.863281 L 880 646 L 639 646 Z M 639 40.863281 "/>
</clipPath>
<clipPath id="clip-39">
<path clip-rule="nonzero" d="M 858 40.863281 L 861 40.863281 L 861 674.398438 L 858 674.398438 Z M 858 40.863281 "/>
</clipPath>
<clipPath id="clip-40">
<path clip-rule="nonzero" d="M 879 40.863281 L 881 40.863281 L 881 674.398438 L 879 674.398438 Z M 879 40.863281 "/>
</clipPath>
</defs>
<rect x="-115.2" y="-71.1" width="1382.4" height="853.2" fill="rgb(100%, 100%, 100%)" fill-opacity="1"/>
<g clip-path="url(#clip-0)">
<path fill-rule="nonzero" fill="rgb(100%, 100%, 100%)" fill-opacity="1" d="M 0 711 L 576 711 L 576 16.789062 L 0 16.789062 Z M 0 711 "/>
</g>
<g clip-path="url(#clip-1)">
<path fill="none" stroke-width="0.533489" stroke-linecap="butt" stroke-linejoin="round" stroke="rgb(92.156863%, 92.156863%, 92.156863%)" stroke-opacity="1" stroke-miterlimit="10" d="M 39.242188 562.816406 L 570.519531 562.816406 "/>
</g>
<g clip-path="url(#clip-2)">
<path fill="none" stroke-width="0.533489" stroke-linecap="butt" stroke-linejoin="round" stroke="rgb(92.156863%, 92.156863%, 92.156863%)" stroke-opacity="1" stroke-miterlimit="10" d="M 39.242188 397.25 L 570.519531 397.25 "/>
</g>
<g clip-path="url(#clip-3)">
<path fill="none" stroke-width="0.533489" stroke-linecap="butt" stroke-linejoin="round" stroke="rgb(92.156863%, 92.156863%, 92.156863%)" stroke-opacity="1" stroke-miterlimit="10" d="M 39.242188 231.683594 L 570.519531 231.683594 "/>
</g>
<g clip-path="url(#clip-4)">
<path fill="none" stroke-width="0.533489" stroke-linecap="butt" stroke-linejoin="round" stroke="rgb(92.156863%, 92.156863%, 92.156863%)" stroke-opacity="1" stroke-miterlimit="10" d="M 39.242188 66.117188 L 570.519531 66.117188 "/>
</g>
<g clip-path="url(#clip-5)">
<path fill="none" stroke-width="0.533489" stroke-linecap="butt" stroke-linejoin="round" stroke="rgb(92.156863%, 92.156863%, 92.156863%)" stroke-opacity="1" stroke-miterlimit="10" d="M 123.761719 674.398438 L 123.761719 40.863281 "/>
</g>
<g clip-path="url(#clip-6)">
<path fill="none" stroke-width="0.533489" stroke-linecap="butt" stroke-linejoin="round" stroke="rgb(92.156863%, 92.156863%, 92.156863%)" stroke-opacity="1" stroke-miterlimit="10" d="M 244.507812 674.398438 L 244.507812 40.863281 "/>
</g>
<g clip-path="url(#clip-7)">
<path fill="none" stroke-width="0.533489" stroke-linecap="butt" stroke-linejoin="round" stroke="rgb(92.156863%, 92.156863%, 92.156863%)" stroke-opacity="1" stroke-miterlimit="10" d="M 365.253906 674.398438 L 365.253906 40.863281 "/>
</g>
<g clip-path="url(#clip-8)">
<path fill="none" stroke-width="0.533489" stroke-linecap="butt" stroke-linejoin="round" stroke="rgb(92.156863%, 92.156863%, 92.156863%)" stroke-opacity="1" stroke-miterlimit="10" d="M 486 674.398438 L 486 40.863281 "/>
</g>
<g clip-path="url(#clip-9)">
<path fill="none" stroke-width="0.426791" stroke-linecap="butt" stroke-linejoin="round" stroke="rgb(82.745098%, 82.745098%, 82.745098%)" stroke-opacity="1" stroke-miterlimit="10" d="M 39.242188 645.601562 L 570.519531 645.601562 "/>
</g>
<g clip-path="url(#clip-10)">
<path fill="none" stroke-width="0.426791" stroke-linecap="butt" stroke-linejoin="round" stroke="rgb(82.745098%, 82.745098%, 82.745098%)" stroke-opacity="1" stroke-miterlimit="10" d="M 39.242188 480.035156 L 570.519531 480.035156 "/>
</g>
<g clip-path="url(#clip-11)">
<path fill="none" stroke-width="0.426791" stroke-linecap="butt" stroke-linejoin="round" stroke="rgb(82.745098%, 82.745098%, 82.745098%)" stroke-opacity="1" stroke-miterlimit="10" d="M 39.242188 314.46875 L 570.519531 314.46875 "/>
</g>
<g clip-path="url(#clip-12)">
<path fill="none" stroke-width="0.426791" stroke-linecap="butt" stroke-linejoin="round" stroke="rgb(82.745098%, 82.745098%, 82.745098%)" stroke-opacity="1" stroke-miterlimit="10" d="M 39.242188 148.898438 L 570.519531 148.898438 "/>
</g>
<g clip-path="url(#clip-13)">
<path fill="none" stroke-width="0.426791" stroke-linecap="butt" stroke-linejoin="round" stroke="rgb(82.745098%, 82.745098%, 82.745098%)" stroke-opacity="1" stroke-miterlimit="10" d="M 63.390625 674.398438 L 63.390625 40.863281 "/>
</g>
<g clip-path="url(#clip-14)">
<path fill="none" stroke-width="0.426791" stroke-linecap="butt" stroke-linejoin="round" stroke="rgb(82.745098%, 82.745098%, 82.745098%)" stroke-opacity="1" stroke-miterlimit="10" d="M 184.136719 674.398438 L 184.136719 40.863281 "/>
</g>
<g clip-path="url(#clip-15)">
<path fill="none" stroke-width="0.426791" stroke-linecap="butt" stroke-linejoin="round" stroke="rgb(82.745098%, 82.745098%, 82.745098%)" stroke-opacity="1" stroke-miterlimit="10" d="M 304.878906 674.398438 L 304.878906 40.863281 "/>
</g>
<g clip-path="url(#clip-16)">
<path fill="none" stroke-width="0.426791" stroke-linecap="butt" stroke-linejoin="round" stroke="rgb(82.745098%, 82.745098%, 82.745098%)" stroke-opacity="1" stroke-miterlimit="10" d="M 425.625 674.398438 L 425.625 40.863281 "/>
</g>
<g clip-path="url(#clip-17)">
<path fill="none" stroke-width="0.426791" stroke-linecap="butt" stroke-linejoin="round" stroke="rgb(82.745098%, 82.745098%, 82.745098%)" stroke-opacity="1" stroke-miterlimit="10" d="M 546.371094 674.398438 L 546.371094 40.863281 "/>
</g>
<g clip-path="url(#clip-18)">
<path fill-rule="nonzero" fill="rgb(0%, 100%, 0%)" fill-opacity="0.14902" d="M 63.390625 645.601562 L 195.132812 645.601562 L 195.132812 40.863281 L 63.390625 40.863281 Z M 63.390625 645.601562 "/>
</g>
<g clip-path="url(#clip-19)">
<path fill-rule="nonzero" fill="rgb(100%, 64.705882%, 0%)" fill-opacity="0.0784314" d="M 63.390625 645.601562 L 242.492188 645.601562 L 242.492188 40.863281 L 63.390625 40.863281 Z M 63.390625 645.601562 "/>
</g>
<path fill="none" stroke-width="2.560748" stroke-linecap="butt" stroke-linejoin="round" stroke="rgb(100%, 45.490196%, 30.588235%)" stroke-opacity="1" stroke-miterlimit="10" d="M 63.390625 645.601562 L 68.21875 165.152344 L 73.050781 81.8125 L 77.878906 69.660156 L 82.710938 88.15625 L 87.539062 120.746094 L 92.367188 159.269531 L 97.199219 199.398438 L 102.027344 238.789062 L 106.859375 276.210938 L 111.6875 311.054688 L 116.519531 343.085938 L 121.347656 372.277344 L 126.175781 398.734375 L 131.007812 422.613281 L 135.835938 444.117188 L 140.667969 463.441406 L 145.496094 480.796875 L 150.328125 496.375 L 155.15625 510.355469 L 159.988281 522.90625 L 164.816406 534.175781 L 169.644531 544.304688 L 174.476562 553.410156 L 179.304688 561.605469 L 184.136719 568.984375 L 188.964844 575.640625 L 193.796875 581.648438 L 198.625 587.074219 L 203.453125 591.980469 L 208.285156 596.425781 L 213.113281 600.453125 L 217.945312 604.105469 L 222.773438 607.421875 L 227.605469 610.441406 L 232.433594 613.1875 L 237.261719 615.691406 L 242.09375 617.972656 L 246.921875 620.054688 L 251.753906 621.960938 L 256.582031 623.703125 L 261.414062 625.300781 L 266.242188 626.765625 L 271.070312 628.105469 L 275.902344 629.339844 L 280.730469 630.472656 L 285.5625 631.515625 L 290.390625 632.476562 L 295.222656 633.363281 L 300.050781 634.179688 L 304.878906 634.9375 L 309.710938 635.632812 L 314.539062 636.277344 L 319.371094 636.875 L 324.199219 637.429688 L 329.03125 637.941406 L 333.859375 638.417969 L 338.691406 638.859375 L 343.519531 639.269531 L 348.347656 639.652344 L 353.179688 640.007812 L 358.007812 640.339844 L 362.839844 640.648438 L 367.667969 640.933594 L 372.5 641.203125 L 377.328125 641.453125 L 382.15625 641.6875 L 386.988281 641.90625 L 391.816406 642.113281 L 396.648438 642.304688 L 401.476562 642.484375 L 406.308594 642.652344 L 411.136719 642.808594 L 415.964844 642.957031 L 420.796875 643.097656 L 425.625 643.226562 L 430.457031 643.351562 L 435.285156 643.464844 L 440.117188 643.574219 L 444.945312 643.675781 L 449.773438 643.773438 L 454.605469 643.863281 L 459.433594 643.949219 L 464.265625 644.03125 L 469.09375 644.105469 L 473.925781 644.175781 L 478.753906 644.246094 L 483.582031 644.308594 L 488.414062 644.371094 L 493.242188 644.425781 L 498.074219 644.480469 L 502.902344 644.53125 L 507.734375 644.582031 L 512.5625 644.628906 L 517.394531 644.671875 L 527.050781 644.75 L 531.882812 644.789062 L 536.710938 644.824219 L 541.542969 644.859375 L 546.371094 644.890625 "/>
<g clip-path="url(#clip-20)">
<path fill="none" stroke-width="1.707165" stroke-linecap="butt" stroke-linejoin="round" stroke="rgb(0%, 39.215686%, 0%)" stroke-opacity="1" stroke-dasharray="1.707165 5.121496" stroke-miterlimit="10" d="M 195.132812 674.398438 L 195.132812 40.863281 "/>
</g>
<g clip-path="url(#clip-21)">
<path fill="none" stroke-width="1.707165" stroke-linecap="butt" stroke-linejoin="round" stroke="rgb(100%, 54.901961%, 0%)" stroke-opacity="1" stroke-dasharray="6.828661 6.828661" stroke-miterlimit="10" d="M 242.492188 674.398438 L 242.492188 40.863281 "/>
</g>
<g fill="rgb(0%, 39.215686%, 0%)" fill-opacity="1">
<use xlink:href="#glyph-0-0" x="219.28125" y="593.507812"/>
<use xlink:href="#glyph-0-1" x="224.819673" y="593.507812"/>
<use xlink:href="#glyph-0-2" x="230.358097" y="593.507812"/>
<use xlink:href="#glyph-0-3" x="239.212767" y="593.507812"/>
<use xlink:href="#glyph-0-4" x="242.529013" y="593.507812"/>
<use xlink:href="#glyph-0-5" x="245.295794" y="593.507812"/>
<use xlink:href="#glyph-0-6" x="250.834217" y="593.507812"/>
<use xlink:href="#glyph-0-7" x="253.600998" y="593.507812"/>
<use xlink:href="#glyph-0-8" x="259.139421" y="593.507812"/>
</g>
<g fill="rgb(100%, 54.901961%, 0%)" fill-opacity="1">
<use xlink:href="#glyph-0-0" x="266.640625" y="605.988281"/>
<use xlink:href="#glyph-0-9" x="272.179048" y="605.988281"/>
<use xlink:href="#glyph-0-2" x="277.717472" y="605.988281"/>
<use xlink:href="#glyph-0-3" x="286.572142" y="605.988281"/>
<use xlink:href="#glyph-0-4" x="289.888388" y="605.988281"/>
<use xlink:href="#glyph-0-8" x="292.655169" y="605.988281"/>
<use xlink:href="#glyph-0-6" x="298.193592" y="605.988281"/>
<use xlink:href="#glyph-0-7" x="300.960373" y="605.988281"/>
<use xlink:href="#glyph-0-10" x="306.498796" y="605.988281"/>
</g>
<g fill="rgb(30.196078%, 30.196078%, 30.196078%)" fill-opacity="1">
<use xlink:href="#glyph-1-0" x="20.40625" y="649.679688"/>
<use xlink:href="#glyph-1-1" x="25.967773" y="649.679688"/>
<use xlink:href="#glyph-1-0" x="28.746094" y="649.679688"/>
</g>
<g fill="rgb(30.196078%, 30.196078%, 30.196078%)" fill-opacity="1">
<use xlink:href="#glyph-1-0" x="20.40625" y="484.113281"/>
<use xlink:href="#glyph-1-1" x="25.967773" y="484.113281"/>
<use xlink:href="#glyph-1-2" x="28.746094" y="484.113281"/>
</g>
<g fill="rgb(30.196078%, 30.196078%, 30.196078%)" fill-opacity="1">
<use xlink:href="#glyph-1-0" x="20.40625" y="318.546875"/>
<use xlink:href="#glyph-1-1" x="25.967773" y="318.546875"/>
<use xlink:href="#glyph-1-3" x="28.746094" y="318.546875"/>
</g>
<g fill="rgb(30.196078%, 30.196078%, 30.196078%)" fill-opacity="1">
<use xlink:href="#glyph-1-0" x="20.40625" y="152.980469"/>
<use xlink:href="#glyph-1-1" x="25.967773" y="152.980469"/>
<use xlink:href="#glyph-1-4" x="28.746094" y="152.980469"/>
</g>
<g fill="rgb(30.196078%, 30.196078%, 30.196078%)" fill-opacity="1">
<use xlink:href="#glyph-1-0" x="56.441406" y="687.488281"/>
<use xlink:href="#glyph-1-1" x="62.00293" y="687.488281"/>
<use xlink:href="#glyph-1-0" x="64.78125" y="687.488281"/>
</g>
<g fill="rgb(30.196078%, 30.196078%, 30.196078%)" fill-opacity="1">
<use xlink:href="#glyph-1-2" x="177.1875" y="687.488281"/>
<use xlink:href="#glyph-1-1" x="182.749023" y="687.488281"/>
<use xlink:href="#glyph-1-5" x="185.527344" y="687.488281"/>
</g>
<g fill="rgb(30.196078%, 30.196078%, 30.196078%)" fill-opacity="1">
<use xlink:href="#glyph-1-5" x="297.929688" y="687.488281"/>
<use xlink:href="#glyph-1-1" x="303.491211" y="687.488281"/>
<use xlink:href="#glyph-1-0" x="306.269531" y="687.488281"/>
</g>
<g fill="rgb(30.196078%, 30.196078%, 30.196078%)" fill-opacity="1">
<use xlink:href="#glyph-1-6" x="418.675781" y="687.488281"/>
<use xlink:href="#glyph-1-1" x="424.237305" y="687.488281"/>
<use xlink:href="#glyph-1-5" x="427.015625" y="687.488281"/>
</g>
<g fill="rgb(30.196078%, 30.196078%, 30.196078%)" fill-opacity="1">
<use xlink:href="#glyph-1-7" x="536.640625" y="687.488281"/>
<use xlink:href="#glyph-1-0" x="542.202148" y="687.488281"/>
<use xlink:href="#glyph-1-1" x="547.763672" y="687.488281"/>
<use xlink:href="#glyph-1-0" x="550.541992" y="687.488281"/>
</g>
<g fill="rgb(0%, 0%, 0%)" fill-opacity="1">
<use xlink:href="#glyph-2-0" x="288.078125" y="702.207031"/>
<use xlink:href="#glyph-2-1" x="294.797363" y="702.207031"/>
<use xlink:href="#glyph-2-2" x="298.460449" y="702.207031"/>
<use xlink:href="#glyph-2-3" x="308.842773" y="702.207031"/>
<use xlink:href="#glyph-2-4" x="314.960449" y="702.207031"/>
<use xlink:href="#glyph-2-5" x="318.623535" y="702.207031"/>
</g>
<g fill="rgb(0%, 0%, 0%)" fill-opacity="1">
<use xlink:href="#glyph-3-0" x="14.351562" y="373.21875"/>
<use xlink:href="#glyph-3-1" x="14.351562" y="365.274902"/>
<use xlink:href="#glyph-3-2" x="14.351562" y="362.831055"/>
<use xlink:href="#glyph-3-3" x="14.351563" y="357.331055"/>
<use xlink:href="#glyph-3-4" x="14.351563" y="351.213379"/>
<use xlink:href="#glyph-3-5" x="14.351563" y="348.157227"/>
</g>
<g fill="rgb(0%, 0%, 0%)" fill-opacity="1">
<use xlink:href="#glyph-4-0" x="39.242188" y="31.859375"/>
<use xlink:href="#glyph-4-1" x="46.572266" y="31.859375"/>
<use xlink:href="#glyph-4-2" x="50.568359" y="31.859375"/>
<use xlink:href="#glyph-4-3" x="58.572266" y="31.859375"/>
<use xlink:href="#glyph-4-4" x="65.246094" y="31.859375"/>
<use xlink:href="#glyph-4-5" x="69.916016" y="31.859375"/>
<use xlink:href="#glyph-4-3" x="73.912109" y="31.859375"/>
<use xlink:href="#glyph-4-6" x="80.585938" y="31.859375"/>
<use xlink:href="#glyph-4-7" x="83.919922" y="31.859375"/>
<use xlink:href="#glyph-4-8" x="87.253906" y="31.859375"/>
<use xlink:href="#glyph-4-9" x="94.583984" y="31.859375"/>
<use xlink:href="#glyph-4-10" x="101.914062" y="31.859375"/>
<use xlink:href="#glyph-4-11" x="109.244141" y="31.859375"/>
<use xlink:href="#glyph-4-12" x="112.578125" y="31.859375"/>
<use xlink:href="#glyph-4-13" x="116.574219" y="31.859375"/>
<use xlink:href="#glyph-4-14" x="123.904297" y="31.859375"/>
<use xlink:href="#glyph-4-11" x="127.900391" y="31.859375"/>
<use xlink:href="#glyph-4-15" x="131.234375" y="31.859375"/>
<use xlink:href="#glyph-4-11" x="138.242188" y="31.859375"/>
<use xlink:href="#glyph-4-16" x="141.576172" y="31.859375"/>
<use xlink:href="#glyph-4-17" x="148.25" y="31.859375"/>
<use xlink:href="#glyph-4-18" x="151.583984" y="31.859375"/>
<use xlink:href="#glyph-4-19" x="158.257812" y="31.859375"/>
<use xlink:href="#glyph-4-20" x="164.931641" y="31.859375"/>
</g>
<g clip-path="url(#clip-22)">
<path fill-rule="nonzero" fill="rgb(100%, 100%, 100%)" fill-opacity="1" d="M 576 711 L 1152 711 L 1152 16.789062 L 576 16.789062 Z M 576 711 "/>
</g>
<g clip-path="url(#clip-23)">
<path fill="none" stroke-width="0.533489" stroke-linecap="butt" stroke-linejoin="round" stroke="rgb(92.156863%, 92.156863%, 92.156863%)" stroke-opacity="1" stroke-miterlimit="10" d="M 615.242188 556.496094 L 1146.519531 556.496094 "/>
</g>
<g clip-path="url(#clip-24)">
<path fill="none" stroke-width="0.533489" stroke-linecap="butt" stroke-linejoin="round" stroke="rgb(92.156863%, 92.156863%, 92.156863%)" stroke-opacity="1" stroke-miterlimit="10" d="M 615.242188 378.289062 L 1146.519531 378.289062 "/>
</g>
<g clip-path="url(#clip-25)">
<path fill="none" stroke-width="0.533489" stroke-linecap="butt" stroke-linejoin="round" stroke="rgb(92.156863%, 92.156863%, 92.156863%)" stroke-opacity="1" stroke-miterlimit="10" d="M 615.242188 200.082031 L 1146.519531 200.082031 "/>
</g>
<g clip-path="url(#clip-26)">
<path fill="none" stroke-width="0.533489" stroke-linecap="butt" stroke-linejoin="round" stroke="rgb(92.156863%, 92.156863%, 92.156863%)" stroke-opacity="1" stroke-miterlimit="10" d="M 719.886719 674.398438 L 719.886719 40.863281 "/>
</g>
<g clip-path="url(#clip-27)">
<path fill="none" stroke-width="0.533489" stroke-linecap="butt" stroke-linejoin="round" stroke="rgb(92.156863%, 92.156863%, 92.156863%)" stroke-opacity="1" stroke-miterlimit="10" d="M 880.878906 674.398438 L 880.878906 40.863281 "/>
</g>
<g clip-path="url(#clip-28)">
<path fill="none" stroke-width="0.533489" stroke-linecap="butt" stroke-linejoin="round" stroke="rgb(92.156863%, 92.156863%, 92.156863%)" stroke-opacity="1" stroke-miterlimit="10" d="M 1041.875 674.398438 L 1041.875 40.863281 "/>
</g>
<g clip-path="url(#clip-29)">
<path fill="none" stroke-width="0.426791" stroke-linecap="butt" stroke-linejoin="round" stroke="rgb(82.745098%, 82.745098%, 82.745098%)" stroke-opacity="1" stroke-miterlimit="10" d="M 615.242188 645.601562 L 1146.519531 645.601562 "/>
</g>
<g clip-path="url(#clip-30)">
<path fill="none" stroke-width="0.426791" stroke-linecap="butt" stroke-linejoin="round" stroke="rgb(82.745098%, 82.745098%, 82.745098%)" stroke-opacity="1" stroke-miterlimit="10" d="M 615.242188 467.394531 L 1146.519531 467.394531 "/>
</g>
<g clip-path="url(#clip-31)">
<path fill="none" stroke-width="0.426791" stroke-linecap="butt" stroke-linejoin="round" stroke="rgb(82.745098%, 82.745098%, 82.745098%)" stroke-opacity="1" stroke-miterlimit="10" d="M 615.242188 289.183594 L 1146.519531 289.183594 "/>
</g>
<g clip-path="url(#clip-32)">
<path fill="none" stroke-width="0.426791" stroke-linecap="butt" stroke-linejoin="round" stroke="rgb(82.745098%, 82.745098%, 82.745098%)" stroke-opacity="1" stroke-miterlimit="10" d="M 615.242188 110.976562 L 1146.519531 110.976562 "/>
</g>
<g clip-path="url(#clip-33)">
<path fill="none" stroke-width="0.426791" stroke-linecap="butt" stroke-linejoin="round" stroke="rgb(82.745098%, 82.745098%, 82.745098%)" stroke-opacity="1" stroke-miterlimit="10" d="M 639.390625 674.398438 L 639.390625 40.863281 "/>
</g>
<g clip-path="url(#clip-34)">
<path fill="none" stroke-width="0.426791" stroke-linecap="butt" stroke-linejoin="round" stroke="rgb(82.745098%, 82.745098%, 82.745098%)" stroke-opacity="1" stroke-miterlimit="10" d="M 800.382812 674.398438 L 800.382812 40.863281 "/>
</g>
<g clip-path="url(#clip-35)">
<path fill="none" stroke-width="0.426791" stroke-linecap="butt" stroke-linejoin="round" stroke="rgb(82.745098%, 82.745098%, 82.745098%)" stroke-opacity="1" stroke-miterlimit="10" d="M 961.378906 674.398438 L 961.378906 40.863281 "/>
</g>
<g clip-path="url(#clip-36)">
<path fill="none" stroke-width="0.426791" stroke-linecap="butt" stroke-linejoin="round" stroke="rgb(82.745098%, 82.745098%, 82.745098%)" stroke-opacity="1" stroke-miterlimit="10" d="M 1122.371094 674.398438 L 1122.371094 40.863281 "/>
</g>
<g clip-path="url(#clip-37)">
<path fill-rule="nonzero" fill="rgb(0%, 100%, 0%)" fill-opacity="0.14902" d="M 639.390625 645.601562 L 859.472656 645.601562 L 859.472656 40.863281 L 639.390625 40.863281 Z M 639.390625 645.601562 "/>
</g>
<g clip-path="url(#clip-38)">
<path fill-rule="nonzero" fill="rgb(100%, 64.705882%, 0%)" fill-opacity="0.0784314" d="M 639.390625 645.601562 L 879.980469 645.601562 L 879.980469 40.863281 L 639.390625 40.863281 Z M 639.390625 645.601562 "/>
</g>
<path fill="none" stroke-width="2.560748" stroke-linecap="butt" stroke-linejoin="round" stroke="rgb(45.882353%, 66.666667%, 85.882353%)" stroke-opacity="1" stroke-miterlimit="10" d="M 639.390625 645.601562 L 668.367188 645.601562 L 673.199219 645.597656 L 678.027344 645.59375 L 682.859375 645.558594 L 687.6875 645.4375 L 692.519531 645.058594 L 697.347656 644.089844 L 702.175781 641.949219 L 707.007812 637.753906 L 711.835938 630.34375 L 716.667969 618.398438 L 721.496094 600.617188 L 726.328125 575.949219 L 731.15625 543.824219 L 735.988281 504.3125 L 740.816406 458.210938 L 745.644531 407.003906 L 750.476562 352.71875 L 755.304688 297.75 L 760.136719 244.605469 L 764.964844 195.671875 L 769.796875 153.03125 L 774.625 118.300781 L 779.453125 92.566406 L 784.285156 76.351562 L 789.113281 69.660156 L 793.945312 72.035156 L 798.773438 82.65625 L 803.605469 100.449219 L 808.433594 124.1875 L 813.261719 152.578125 L 818.09375 184.339844 L 822.921875 218.28125 L 827.753906 253.320312 L 832.582031 288.519531 L 837.414062 323.113281 L 842.242188 356.476562 L 847.070312 388.148438 L 851.902344 417.796875 L 856.730469 445.222656 L 861.5625 470.3125 L 866.390625 493.046875 L 871.222656 513.464844 L 876.050781 531.664062 L 880.878906 547.761719 L 885.710938 561.914062 L 890.539062 574.277344 L 895.371094 585.019531 L 900.199219 594.308594 L 905.03125 602.300781 L 909.859375 609.148438 L 914.691406 614.988281 L 919.519531 619.957031 L 924.347656 624.167969 L 929.179688 627.722656 L 934.007812 630.71875 L 938.839844 633.234375 L 943.667969 635.34375 L 948.5 637.105469 L 953.328125 638.574219 L 958.15625 639.796875 L 962.988281 640.8125 L 967.816406 641.65625 L 972.648438 642.351562 L 977.476562 642.929688 L 982.308594 643.40625 L 987.136719 643.800781 L 991.964844 644.121094 L 996.796875 644.390625 L 1001.625 644.609375 L 1006.457031 644.789062 L 1011.285156 644.9375 L 1016.117188 645.058594 L 1020.945312 645.15625 L 1025.773438 645.238281 L 1030.605469 645.304688 L 1035.433594 645.359375 L 1040.265625 645.402344 L 1045.09375 645.4375 L 1049.925781 645.46875 L 1054.753906 645.492188 L 1059.582031 645.511719 L 1064.414062 645.527344 L 1069.242188 645.542969 L 1074.074219 645.554688 L 1078.902344 645.5625 L 1083.734375 645.570312 L 1088.5625 645.574219 L 1093.394531 645.578125 L 1103.050781 645.585938 L 1107.882812 645.589844 L 1112.710938 645.589844 L 1117.542969 645.59375 L 1122.371094 645.59375 "/>
<g clip-path="url(#clip-39)">
<path fill="none" stroke-width="1.707165" stroke-linecap="butt" stroke-linejoin="round" stroke="rgb(0%, 39.215686%, 0%)" stroke-opacity="1" stroke-dasharray="1.707165 5.121496" stroke-miterlimit="10" d="M 859.472656 674.398438 L 859.472656 40.863281 "/>
</g>
<g clip-path="url(#clip-40)">
<path fill="none" stroke-width="1.707165" stroke-linecap="butt" stroke-linejoin="round" stroke="rgb(100%, 54.901961%, 0%)" stroke-opacity="1" stroke-dasharray="6.828661 6.828661" stroke-miterlimit="10" d="M 879.976562 674.398438 L 879.976562 40.863281 "/>
</g>
<g fill="rgb(0%, 39.215686%, 0%)" fill-opacity="1">
<use xlink:href="#glyph-0-0" x="883.621094" y="482.394531"/>
<use xlink:href="#glyph-0-1" x="889.159517" y="482.394531"/>
<use xlink:href="#glyph-0-2" x="894.697941" y="482.394531"/>
<use xlink:href="#glyph-0-3" x="903.55261" y="482.394531"/>
<use xlink:href="#glyph-0-4" x="906.868857" y="482.394531"/>
<use xlink:href="#glyph-0-10" x="909.635637" y="482.394531"/>
<use xlink:href="#glyph-0-6" x="915.174061" y="482.394531"/>
<use xlink:href="#glyph-0-8" x="917.940841" y="482.394531"/>
<use xlink:href="#glyph-0-7" x="923.479265" y="482.394531"/>
</g>
<g fill="rgb(100%, 54.901961%, 0%)" fill-opacity="1">
<use xlink:href="#glyph-0-0" x="904.128906" y="519.566406"/>
<use xlink:href="#glyph-0-9" x="909.66733" y="519.566406"/>
<use xlink:href="#glyph-0-2" x="915.205753" y="519.566406"/>
<use xlink:href="#glyph-0-3" x="924.060423" y="519.566406"/>
<use xlink:href="#glyph-0-4" x="927.376669" y="519.566406"/>
<use xlink:href="#glyph-0-10" x="930.14345" y="519.566406"/>
<use xlink:href="#glyph-0-6" x="935.681873" y="519.566406"/>
<use xlink:href="#glyph-0-11" x="938.448654" y="519.566406"/>
<use xlink:href="#glyph-0-0" x="943.987077" y="519.566406"/>
</g>
<g fill="rgb(30.196078%, 30.196078%, 30.196078%)" fill-opacity="1">
<use xlink:href="#glyph-1-0" x="596.40625" y="649.679688"/>
<use xlink:href="#glyph-1-1" x="601.967773" y="649.679688"/>
<use xlink:href="#glyph-1-0" x="604.746094" y="649.679688"/>
</g>
<g fill="rgb(30.196078%, 30.196078%, 30.196078%)" fill-opacity="1">
<use xlink:href="#glyph-1-0" x="596.40625" y="471.472656"/>
<use xlink:href="#glyph-1-1" x="601.967773" y="471.472656"/>
<use xlink:href="#glyph-1-5" x="604.746094" y="471.472656"/>
</g>
<g fill="rgb(30.196078%, 30.196078%, 30.196078%)" fill-opacity="1">
<use xlink:href="#glyph-1-7" x="596.40625" y="293.265625"/>
<use xlink:href="#glyph-1-1" x="601.967773" y="293.265625"/>
<use xlink:href="#glyph-1-0" x="604.746094" y="293.265625"/>
</g>
<g fill="rgb(30.196078%, 30.196078%, 30.196078%)" fill-opacity="1">
<use xlink:href="#glyph-1-7" x="596.40625" y="115.058594"/>
<use xlink:href="#glyph-1-1" x="601.967773" y="115.058594"/>
<use xlink:href="#glyph-1-5" x="604.746094" y="115.058594"/>
</g>
<g fill="rgb(30.196078%, 30.196078%, 30.196078%)" fill-opacity="1">
<use xlink:href="#glyph-1-0" x="636.609375" y="687.488281"/>
</g>
<g fill="rgb(30.196078%, 30.196078%, 30.196078%)" fill-opacity="1">
<use xlink:href="#glyph-1-7" x="797.601562" y="687.488281"/>
</g>
<g fill="rgb(30.196078%, 30.196078%, 30.196078%)" fill-opacity="1">
<use xlink:href="#glyph-1-2" x="958.597656" y="687.488281"/>
</g>
<g fill="rgb(30.196078%, 30.196078%, 30.196078%)" fill-opacity="1">
<use xlink:href="#glyph-1-8" x="1119.589844" y="687.488281"/>
</g>
<g fill="rgb(0%, 0%, 0%)" fill-opacity="1">
<use xlink:href="#glyph-2-0" x="864.078125" y="702.207031"/>
<use xlink:href="#glyph-2-1" x="870.797363" y="702.207031"/>
<use xlink:href="#glyph-2-2" x="874.460449" y="702.207031"/>
<use xlink:href="#glyph-2-3" x="884.842773" y="702.207031"/>
<use xlink:href="#glyph-2-4" x="890.960449" y="702.207031"/>
<use xlink:href="#glyph-2-5" x="894.623535" y="702.207031"/>
</g>
<g fill="rgb(0%, 0%, 0%)" fill-opacity="1">
<use xlink:href="#glyph-3-0" x="590.351562" y="373.21875"/>
<use xlink:href="#glyph-3-1" x="590.351562" y="365.274902"/>
<use xlink:href="#glyph-3-2" x="590.351562" y="362.831055"/>
<use xlink:href="#glyph-3-3" x="590.351562" y="357.331055"/>
<use xlink:href="#glyph-3-4" x="590.351562" y="351.213379"/>
<use xlink:href="#glyph-3-5" x="590.351562" y="348.157227"/>
</g>
<g fill="rgb(0%, 0%, 0%)" fill-opacity="1">
<use xlink:href="#glyph-4-0" x="615.242188" y="31.859375"/>
<use xlink:href="#glyph-4-1" x="622.572266" y="31.859375"/>
<use xlink:href="#glyph-4-2" x="626.568359" y="31.859375"/>
<use xlink:href="#glyph-4-3" x="634.572266" y="31.859375"/>
<use xlink:href="#glyph-4-4" x="641.246094" y="31.859375"/>
<use xlink:href="#glyph-4-5" x="645.916016" y="31.859375"/>
<use xlink:href="#glyph-4-3" x="649.912109" y="31.859375"/>
<use xlink:href="#glyph-4-6" x="656.585938" y="31.859375"/>
<use xlink:href="#glyph-4-7" x="659.919922" y="31.859375"/>
<use xlink:href="#glyph-4-8" x="663.253906" y="31.859375"/>
<use xlink:href="#glyph-4-9" x="670.583984" y="31.859375"/>
<use xlink:href="#glyph-4-10" x="677.914062" y="31.859375"/>
<use xlink:href="#glyph-4-11" x="685.244141" y="31.859375"/>
<use xlink:href="#glyph-4-12" x="688.578125" y="31.859375"/>
<use xlink:href="#glyph-4-13" x="692.574219" y="31.859375"/>
<use xlink:href="#glyph-4-14" x="699.904297" y="31.859375"/>
<use xlink:href="#glyph-4-11" x="703.900391" y="31.859375"/>
<use xlink:href="#glyph-4-15" x="707.234375" y="31.859375"/>
<use xlink:href="#glyph-4-11" x="714.242188" y="31.859375"/>
<use xlink:href="#glyph-4-21" x="717.576172" y="31.859375"/>
<use xlink:href="#glyph-4-22" x="724.25" y="31.859375"/>
<use xlink:href="#glyph-4-17" x="730.923828" y="31.859375"/>
<use xlink:href="#glyph-4-18" x="734.257812" y="31.859375"/>
<use xlink:href="#glyph-4-19" x="740.931641" y="31.859375"/>
<use xlink:href="#glyph-4-19" x="747.605469" y="31.859375"/>
<use xlink:href="#glyph-4-20" x="754.279297" y="31.859375"/>
</g>
<g fill="rgb(0%, 0%, 0%)" fill-opacity="1">
<use xlink:href="#glyph-5-0" x="443.585938" y="13.191406"/>
<use xlink:href="#glyph-5-1" x="450.916016" y="13.191406"/>
<use xlink:href="#glyph-5-2" x="454.912109" y="13.191406"/>
<use xlink:href="#glyph-5-3" x="462.916016" y="13.191406"/>
<use xlink:href="#glyph-5-4" x="469.589844" y="13.191406"/>
<use xlink:href="#glyph-5-5" x="473.585938" y="13.191406"/>
<use xlink:href="#glyph-5-3" x="476.919922" y="13.191406"/>
<use xlink:href="#glyph-5-6" x="483.59375" y="13.191406"/>
<use xlink:href="#glyph-5-7" x="486.259766" y="13.191406"/>
<use xlink:href="#glyph-5-8" x="488.925781" y="13.191406"/>
<use xlink:href="#glyph-5-9" x="495.599609" y="13.191406"/>
<use xlink:href="#glyph-5-10" x="502.273438" y="13.191406"/>
<use xlink:href="#glyph-5-3" x="508.947266" y="13.191406"/>
<use xlink:href="#glyph-5-9" x="515.621094" y="13.191406"/>
<use xlink:href="#glyph-5-11" x="522.294922" y="13.191406"/>
<use xlink:href="#glyph-5-12" x="525.628906" y="13.191406"/>
<use xlink:href="#glyph-5-13" x="528.962891" y="13.191406"/>
<use xlink:href="#glyph-5-14" x="535.636719" y="13.191406"/>
<use xlink:href="#glyph-5-15" x="542.310547" y="13.191406"/>
<use xlink:href="#glyph-5-12" x="552.980469" y="13.191406"/>
<use xlink:href="#glyph-5-8" x="556.314453" y="13.191406"/>
<use xlink:href="#glyph-5-9" x="562.988281" y="13.191406"/>
<use xlink:href="#glyph-5-16" x="569.662109" y="13.191406"/>
<use xlink:href="#glyph-5-12" x="576.335938" y="13.191406"/>
<use xlink:href="#glyph-5-13" x="579.669922" y="13.191406"/>
<use xlink:href="#glyph-5-17" x="586.34375" y="13.191406"/>
<use xlink:href="#glyph-5-15" x="593.017578" y="13.191406"/>
<use xlink:href="#glyph-5-12" x="603.6875" y="13.191406"/>
<use xlink:href="#glyph-5-18" x="607.021484" y="13.191406"/>
<use xlink:href="#glyph-5-19" x="615.025391" y="13.191406"/>
<use xlink:href="#glyph-5-9" x="621.699219" y="13.191406"/>
<use xlink:href="#glyph-5-20" x="628.373047" y="13.191406"/>
<use xlink:href="#glyph-5-6" x="631.707031" y="13.191406"/>
<use xlink:href="#glyph-5-16" x="634.373047" y="13.191406"/>
<use xlink:href="#glyph-5-3" x="641.046875" y="13.191406"/>
<use xlink:href="#glyph-5-9" x="647.720703" y="13.191406"/>
<use xlink:href="#glyph-5-21" x="654.394531" y="13.191406"/>
<use xlink:href="#glyph-5-6" x="660.394531" y="13.191406"/>
<use xlink:href="#glyph-5-9" x="663.060547" y="13.191406"/>
<use xlink:href="#glyph-5-5" x="669.734375" y="13.191406"/>
<use xlink:href="#glyph-5-3" x="673.068359" y="13.191406"/>
<use xlink:href="#glyph-5-4" x="679.742188" y="13.191406"/>
<use xlink:href="#glyph-5-22" x="683.738281" y="13.191406"/>
<use xlink:href="#glyph-5-23" x="689.738281" y="13.191406"/>
<use xlink:href="#glyph-5-7" x="696.412109" y="13.191406"/>
<use xlink:href="#glyph-5-7" x="699.078125" y="13.191406"/>
<use xlink:href="#glyph-5-3" x="701.744141" y="13.191406"/>
</g>
</svg>
