<?xml version="1.0" encoding="UTF-8"?>
<svg xmlns="http://www.w3.org/2000/svg" xmlns:xlink="http://www.w3.org/1999/xlink" width="1008pt" height="403pt" viewBox="0 0 1008 403">
<defs>
<g>
<g id="glyph-0-0">
<path d="M 0.277344 0 L 0.277344 -1.015625 L 4.972656 -6.40625 C 4.441406 -6.375 3.972656 -6.363281 3.5625 -6.363281 L 0.554688 -6.363281 L 0.554688 -7.378906 L 6.585938 -7.378906 L 6.585938 -6.550781 L 2.589844 -1.867188 L 1.820312 -1.015625 C 2.378906 -1.054688 2.90625 -1.078125 3.398438 -1.078125 L 6.808594 -1.078125 L 6.808594 0 Z M 0.277344 0 "/>
</g>
<g id="glyph-0-1">
<path d="M 5.300781 0 L 4.050781 0 L 4.050781 -7.96875 C 3.75 -7.679688 3.355469 -7.394531 2.867188 -7.105469 C 2.375 -6.820312 1.9375 -6.605469 1.550781 -6.460938 L 1.550781 -7.667969 C 2.25 -7.996094 2.859375 -8.394531 3.382812 -8.863281 C 3.90625 -9.332031 4.277344 -9.785156 4.496094 -10.226562 L 5.300781 -10.226562 Z M 5.300781 0 "/>
</g>
<g id="glyph-0-2">
<path d="M 1.292969 0 L 1.292969 -1.425781 L 2.714844 -1.425781 L 2.714844 0 Z M 1.292969 0 "/>
</g>
<g id="glyph-0-3">
<path d="M 0.777344 -2.355469 L 1.980469 -2.464844 C 2.082031 -1.902344 2.277344 -1.492188 2.5625 -1.238281 C 2.851562 -0.980469 3.21875 -0.855469 3.667969 -0.855469 C 4.050781 -0.855469 4.390625 -0.941406 4.679688 -1.117188 C 4.96875 -1.292969 5.207031 -1.53125 5.390625 -1.824219 C 5.574219 -2.117188 5.730469 -2.515625 5.855469 -3.015625 C 5.980469 -3.515625 6.042969 -4.023438 6.042969 -4.542969 C 6.042969 -4.597656 6.042969 -4.683594 6.035156 -4.792969 C 5.785156 -4.394531 5.445312 -4.070312 5.011719 -3.824219 C 4.578125 -3.578125 4.109375 -3.453125 3.605469 -3.453125 C 2.761719 -3.453125 2.050781 -3.757812 1.464844 -4.371094 C 0.882812 -4.980469 0.589844 -5.785156 0.589844 -6.785156 C 0.589844 -7.820312 0.894531 -8.652344 1.503906 -9.28125 C 2.113281 -9.910156 2.875 -10.226562 3.792969 -10.226562 C 4.453125 -10.226562 5.058594 -10.046875 5.609375 -9.691406 C 6.15625 -9.332031 6.574219 -8.824219 6.859375 -8.164062 C 7.144531 -7.503906 7.285156 -6.550781 7.285156 -5.300781 C 7.285156 -4 7.144531 -2.960938 6.863281 -2.191406 C 6.582031 -1.421875 6.160156 -0.832031 5.601562 -0.429688 C 5.042969 -0.0273438 4.390625 0.171875 3.640625 0.171875 C 2.84375 0.171875 2.191406 -0.046875 1.6875 -0.488281 C 1.183594 -0.933594 0.878906 -1.554688 0.777344 -2.355469 M 5.898438 -6.847656 C 5.898438 -7.566406 5.707031 -8.136719 5.324219 -8.558594 C 4.941406 -8.980469 4.484375 -9.191406 3.945312 -9.191406 C 3.390625 -9.191406 2.90625 -8.964844 2.492188 -8.507812 C 2.082031 -8.054688 1.875 -7.46875 1.875 -6.746094 C 1.875 -6.097656 2.070312 -5.570312 2.460938 -5.164062 C 2.855469 -4.757812 3.335938 -4.558594 3.910156 -4.558594 C 4.488281 -4.558594 4.964844 -4.757812 5.339844 -5.164062 C 5.710938 -5.570312 5.898438 -6.132812 5.898438 -6.847656 Z M 5.898438 -6.847656 "/>
</g>
<g id="glyph-0-4">
<path d="M 7.078125 -7.691406 L 5.835938 -7.59375 C 5.722656 -8.082031 5.566406 -8.441406 5.363281 -8.664062 C 5.023438 -9.019531 4.609375 -9.195312 4.113281 -9.195312 C 3.714844 -9.195312 3.363281 -9.085938 3.0625 -8.863281 C 2.667969 -8.578125 2.359375 -8.15625 2.132812 -7.605469 C 1.90625 -7.054688 1.789062 -6.269531 1.777344 -5.25 C 2.078125 -5.710938 2.449219 -6.050781 2.882812 -6.273438 C 3.316406 -6.496094 3.773438 -6.605469 4.25 -6.605469 C 5.085938 -6.605469 5.792969 -6.300781 6.378906 -5.6875 C 6.964844 -5.070312 7.257812 -4.277344 7.257812 -3.304688 C 7.257812 -2.667969 7.121094 -2.074219 6.847656 -1.523438 C 6.570312 -0.976562 6.191406 -0.554688 5.710938 -0.265625 C 5.226562 0.0273438 4.683594 0.171875 4.070312 0.171875 C 3.027344 0.171875 2.179688 -0.210938 1.519531 -0.976562 C 0.863281 -1.742188 0.535156 -3.003906 0.535156 -4.765625 C 0.535156 -6.734375 0.898438 -8.164062 1.625 -9.058594 C 2.261719 -9.835938 3.113281 -10.226562 4.1875 -10.226562 C 4.988281 -10.226562 5.644531 -10 6.15625 -9.550781 C 6.667969 -9.101562 6.976562 -8.480469 7.078125 -7.691406 M 1.972656 -3.300781 C 1.972656 -2.867188 2.0625 -2.457031 2.246094 -2.0625 C 2.429688 -1.667969 2.6875 -1.371094 3.015625 -1.164062 C 3.34375 -0.957031 3.6875 -0.855469 4.050781 -0.855469 C 4.578125 -0.855469 5.03125 -1.066406 5.410156 -1.492188 C 5.792969 -1.917969 5.980469 -2.5 5.980469 -3.230469 C 5.980469 -3.933594 5.792969 -4.488281 5.417969 -4.894531 C 5.042969 -5.300781 4.570312 -5.5 4 -5.5 C 3.4375 -5.5 2.957031 -5.300781 2.5625 -4.894531 C 2.167969 -4.488281 1.972656 -3.957031 1.972656 -3.300781 Z M 1.972656 -3.300781 "/>
</g>
<g id="glyph-1-0">
<path d="M 0.660156 0 L 0.660156 -7.128906 L 1.535156 -7.128906 L 1.535156 -3.0625 L 3.609375 -5.164062 L 4.742188 -5.164062 L 2.765625 -3.25 L 4.941406 0 L 3.859375 0 L 2.152344 -2.640625 L 1.535156 -2.046875 L 1.535156 0 Z M 0.660156 0 "/>
</g>
<g id="glyph-1-1">
<path d="M 0.648438 0 L 0.648438 -5.164062 L 1.433594 -5.164062 L 1.433594 -4.382812 C 1.636719 -4.746094 1.820312 -4.988281 1.992188 -5.105469 C 2.160156 -5.222656 2.347656 -5.28125 2.554688 -5.28125 C 2.847656 -5.28125 3.148438 -5.1875 3.453125 -5 L 3.152344 -4.1875 C 2.9375 -4.3125 2.722656 -4.375 2.507812 -4.375 C 2.316406 -4.375 2.144531 -4.320312 1.992188 -4.203125 C 1.839844 -4.089844 1.734375 -3.929688 1.667969 -3.726562 C 1.570312 -3.414062 1.523438 -3.074219 1.523438 -2.703125 L 1.523438 0 Z M 0.648438 0 "/>
</g>
<g id="glyph-1-2">
<path d="M 0.660156 -6.121094 L 0.660156 -7.128906 L 1.535156 -7.128906 L 1.535156 -6.121094 L 0.660156 -6.121094 M 0.660156 0 L 0.660156 -5.164062 L 1.535156 -5.164062 L 1.535156 0 Z M 0.660156 0 "/>
</g>
<g id="glyph-1-3">
<path d="M 2.566406 -0.78125 L 2.695312 -0.0078125 C 2.449219 0.0429688 2.226562 0.0664062 2.03125 0.0664062 C 1.714844 0.0664062 1.46875 0.0195312 1.292969 -0.0820312 C 1.117188 -0.183594 0.996094 -0.316406 0.925781 -0.480469 C 0.851562 -0.644531 0.816406 -0.988281 0.816406 -1.511719 L 0.816406 -4.484375 L 0.175781 -4.484375 L 0.175781 -5.164062 L 0.816406 -5.164062 L 0.816406 -6.441406 L 1.6875 -6.96875 L 1.6875 -5.164062 L 2.566406 -5.164062 L 2.566406 -4.484375 L 1.6875 -4.484375 L 1.6875 -1.464844 C 1.6875 -1.214844 1.703125 -1.054688 1.734375 -0.980469 C 1.765625 -0.910156 1.816406 -0.855469 1.882812 -0.8125 C 1.953125 -0.769531 2.054688 -0.75 2.183594 -0.75 C 2.28125 -0.75 2.410156 -0.761719 2.566406 -0.78125 Z M 2.566406 -0.78125 "/>
</g>
<g id="glyph-2-0">
<path d="M 0.257812 -5.273438 L 7.550781 -5.273438 L 7.550781 -4.597656 L 0.257812 -4.597656 L 0.257812 -5.273438 M 0.257812 -2.679688 L 7.550781 -2.679688 L 7.550781 -1.992188 L 0.257812 -1.992188 Z M 0.257812 -2.679688 "/>
</g>
<g id="glyph-2-1">
<path d="M 0.257812 -4 L 7.550781 -4 L 7.550781 -3.3125 L 0.257812 -3.3125 Z M 0.257812 -4 "/>
</g>
<g id="glyph-3-0">
<path d="M 0.464844 -3.953125 C 0.464844 -4.902344 0.5625 -5.664062 0.757812 -6.242188 C 0.953125 -6.820312 1.242188 -7.265625 1.628906 -7.578125 C 2.011719 -7.894531 2.496094 -8.050781 3.078125 -8.050781 C 3.507812 -8.050781 3.886719 -7.964844 4.210938 -7.789062 C 4.535156 -7.617188 4.804688 -7.367188 5.015625 -7.042969 C 5.226562 -6.714844 5.390625 -6.316406 5.511719 -5.847656 C 5.632812 -5.378906 5.691406 -4.75 5.691406 -3.953125 C 5.691406 -3.011719 5.597656 -2.253906 5.402344 -1.675781 C 5.210938 -1.097656 4.921875 -0.652344 4.535156 -0.335938 C 4.152344 -0.0195312 3.664062 0.136719 3.078125 0.136719 C 2.304688 0.136719 1.699219 -0.140625 1.257812 -0.695312 C 0.730469 -1.363281 0.464844 -2.449219 0.464844 -3.953125 M 1.476562 -3.953125 C 1.476562 -2.636719 1.628906 -1.761719 1.9375 -1.328125 C 2.246094 -0.890625 2.625 -0.671875 3.078125 -0.671875 C 3.53125 -0.671875 3.910156 -0.890625 4.21875 -1.328125 C 4.527344 -1.765625 4.679688 -2.640625 4.679688 -3.953125 C 4.679688 -5.273438 4.527344 -6.152344 4.21875 -6.585938 C 3.910156 -7.019531 3.527344 -7.234375 3.066406 -7.234375 C 2.617188 -7.234375 2.253906 -7.042969 1.984375 -6.660156 C 1.644531 -6.171875 1.476562 -5.269531 1.476562 -3.953125 Z M 1.476562 -3.953125 "/>
</g>
<g id="glyph-3-1">
<path d="M 1.015625 0 L 1.015625 -1.121094 L 2.136719 -1.121094 L 2.136719 0 Z M 1.015625 0 "/>
</g>
<g id="glyph-3-2">
<path d="M 4.171875 0 L 3.1875 0 L 3.1875 -6.273438 C 2.953125 -6.046875 2.640625 -5.820312 2.257812 -5.59375 C 1.871094 -5.367188 1.527344 -5.199219 1.21875 -5.085938 L 1.21875 -6.039062 C 1.769531 -6.296875 2.25 -6.609375 2.664062 -6.976562 C 3.074219 -7.347656 3.367188 -7.703125 3.539062 -8.050781 L 4.171875 -8.050781 Z M 4.171875 0 "/>
</g>
<g id="glyph-3-3">
<path d="M 5.636719 -0.945312 L 5.636719 0 L 0.339844 0 C 0.332031 -0.238281 0.371094 -0.464844 0.453125 -0.683594 C 0.589844 -1.042969 0.804688 -1.398438 1.101562 -1.75 C 1.398438 -2.101562 1.828125 -2.503906 2.390625 -2.964844 C 3.261719 -3.679688 3.851562 -4.246094 4.15625 -4.664062 C 4.460938 -5.078125 4.617188 -5.472656 4.617188 -5.847656 C 4.617188 -6.234375 4.476562 -6.566406 4.195312 -6.832031 C 3.917969 -7.101562 3.554688 -7.234375 3.105469 -7.234375 C 2.632812 -7.234375 2.253906 -7.09375 1.96875 -6.808594 C 1.683594 -6.523438 1.539062 -6.128906 1.535156 -5.628906 L 0.523438 -5.730469 C 0.59375 -6.484375 0.855469 -7.0625 1.308594 -7.457031 C 1.757812 -7.851562 2.367188 -8.050781 3.128906 -8.050781 C 3.898438 -8.050781 4.507812 -7.835938 4.953125 -7.410156 C 5.402344 -6.984375 5.628906 -6.453125 5.628906 -5.824219 C 5.628906 -5.503906 5.5625 -5.1875 5.429688 -4.878906 C 5.300781 -4.566406 5.082031 -4.242188 4.777344 -3.898438 C 4.472656 -3.554688 3.964844 -3.085938 3.257812 -2.488281 C 2.667969 -1.992188 2.289062 -1.65625 2.121094 -1.480469 C 1.953125 -1.300781 1.816406 -1.125 1.707031 -0.945312 Z M 5.636719 -0.945312 "/>
</g>
<g id="glyph-3-4">
<path d="M 0.46875 -2.117188 L 1.453125 -2.246094 C 1.566406 -1.691406 1.761719 -1.289062 2.03125 -1.042969 C 2.304688 -0.796875 2.632812 -0.671875 3.023438 -0.671875 C 3.488281 -0.671875 3.878906 -0.832031 4.195312 -1.152344 C 4.515625 -1.476562 4.675781 -1.871094 4.675781 -2.347656 C 4.675781 -2.796875 4.527344 -3.171875 4.234375 -3.464844 C 3.9375 -3.757812 3.5625 -3.90625 3.105469 -3.90625 C 2.921875 -3.90625 2.6875 -3.867188 2.410156 -3.796875 L 2.519531 -4.660156 C 2.585938 -4.652344 2.640625 -4.648438 2.679688 -4.648438 C 3.097656 -4.648438 3.476562 -4.757812 3.8125 -4.976562 C 4.148438 -5.195312 4.316406 -5.53125 4.316406 -5.988281 C 4.316406 -6.347656 4.191406 -6.648438 3.949219 -6.886719 C 3.703125 -7.121094 3.390625 -7.242188 3.003906 -7.242188 C 2.621094 -7.242188 2.300781 -7.121094 2.046875 -6.878906 C 1.789062 -6.640625 1.625 -6.277344 1.554688 -5.796875 L 0.570312 -5.972656 C 0.6875 -6.632812 0.960938 -7.144531 1.390625 -7.507812 C 1.816406 -7.867188 2.347656 -8.050781 2.980469 -8.050781 C 3.417969 -8.050781 3.820312 -7.957031 4.1875 -7.769531 C 4.558594 -7.582031 4.839844 -7.324219 5.035156 -7 C 5.230469 -6.675781 5.328125 -6.332031 5.328125 -5.964844 C 5.328125 -5.621094 5.234375 -5.304688 5.046875 -5.019531 C 4.863281 -4.734375 4.585938 -4.511719 4.222656 -4.34375 C 4.695312 -4.234375 5.0625 -4.007812 5.328125 -3.660156 C 5.589844 -3.316406 5.71875 -2.886719 5.71875 -2.367188 C 5.71875 -1.667969 5.464844 -1.074219 4.953125 -0.589844 C 4.445312 -0.101562 3.800781 0.140625 3.019531 0.140625 C 2.316406 0.140625 1.730469 -0.0664062 1.265625 -0.488281 C 0.800781 -0.90625 0.535156 -1.449219 0.46875 -2.117188 Z M 0.46875 -2.117188 "/>
</g>
<g id="glyph-3-5">
<path d="M 3.621094 0 L 3.621094 -1.917969 L 0.140625 -1.917969 L 0.140625 -2.820312 L 3.800781 -8.015625 L 4.605469 -8.015625 L 4.605469 -2.820312 L 5.6875 -2.820312 L 5.6875 -1.917969 L 4.605469 -1.917969 L 4.605469 0 L 3.621094 0 M 3.621094 -2.820312 L 3.621094 -6.4375 L 1.109375 -2.820312 Z M 3.621094 -2.820312 "/>
</g>
<g id="glyph-3-6">
<path d="M 0.355469 -2.40625 L 0.355469 -3.394531 L 3.378906 -3.394531 L 3.378906 -2.40625 Z M 0.355469 -2.40625 "/>
</g>
<g id="glyph-4-0">
<path d="M 0.273438 0 L 0.273438 -1 L 4.894531 -6.304688 C 4.371094 -6.273438 3.90625 -6.261719 3.507812 -6.261719 L 0.546875 -6.261719 L 0.546875 -7.257812 L 6.480469 -7.257812 L 6.480469 -6.445312 L 2.550781 -1.839844 L 1.789062 -1 C 2.34375 -1.039062 2.859375 -1.058594 3.34375 -1.058594 L 6.699219 -1.058594 L 6.699219 0 Z M 0.273438 0 "/>
</g>
<g id="glyph-5-0">
<path d="M 0 -1.078125 L -10.023438 -1.082031 L -10.023438 -4.53125 C -10.023438 -5.3125 -9.972656 -5.90625 -9.878906 -6.316406 C -9.746094 -6.890625 -9.507812 -7.378906 -9.160156 -7.785156 C -8.714844 -8.316406 -8.144531 -8.710938 -7.449219 -8.972656 C -6.753906 -9.234375 -5.957031 -9.367188 -5.066406 -9.367188 C -4.304688 -9.367188 -3.628906 -9.277344 -3.042969 -9.097656 C -2.453125 -8.921875 -1.96875 -8.691406 -1.582031 -8.414062 C -1.199219 -8.136719 -0.894531 -7.832031 -0.671875 -7.503906 C -0.453125 -7.171875 -0.285156 -6.773438 -0.171875 -6.304688 C -0.0585938 -5.839844 0 -5.300781 0 -4.695312 L 0 -1.078125 M -1.183594 -2.40625 L -1.183594 -4.546875 C -1.183594 -5.207031 -1.242188 -5.726562 -1.367188 -6.101562 C -1.488281 -6.476562 -1.664062 -6.777344 -1.886719 -7 C -2.199219 -7.3125 -2.625 -7.558594 -3.15625 -7.734375 C -3.6875 -7.910156 -4.328125 -8 -5.085938 -8 C -6.132812 -8 -6.941406 -7.824219 -7.503906 -7.480469 C -8.066406 -7.136719 -8.441406 -6.71875 -8.632812 -6.226562 C -8.769531 -5.871094 -8.839844 -5.300781 -8.839844 -4.511719 L -8.839844 -2.40625 Z M -1.183594 -2.40625 "/>
</g>
<g id="glyph-5-1">
<path d="M -8.605469 -0.929688 L -10.023438 -0.929688 L -10.023438 -2.160156 L -8.605469 -2.160156 L -8.605469 -0.929688 M 0 -0.929688 L -7.257812 -0.929688 L -7.257812 -2.160156 L 0 -2.160156 Z M 0 -0.929688 "/>
</g>
<g id="glyph-5-2">
<path d="M -2.660156 -5.660156 L -2.5 -6.871094 C -1.667969 -6.738281 -1.015625 -6.398438 -0.542969 -5.855469 C -0.0703125 -5.308594 0.164062 -4.640625 0.164062 -3.847656 C 0.164062 -2.855469 -0.160156 -2.054688 -0.808594 -1.453125 C -1.460938 -0.847656 -2.390625 -0.546875 -3.601562 -0.546875 C -4.386719 -0.546875 -5.070312 -0.675781 -5.660156 -0.9375 C -6.246094 -1.195312 -6.6875 -1.589844 -6.984375 -2.121094 C -7.277344 -2.652344 -7.421875 -3.230469 -7.421875 -3.855469 C -7.421875 -4.644531 -7.222656 -5.289062 -6.824219 -5.789062 C -6.425781 -6.292969 -5.859375 -6.613281 -5.125 -6.753906 L -4.941406 -5.558594 C -5.429688 -5.445312 -5.796875 -5.242188 -6.042969 -4.953125 C -6.289062 -4.664062 -6.414062 -4.3125 -6.414062 -3.902344 C -6.414062 -3.285156 -6.191406 -2.78125 -5.746094 -2.394531 C -5.300781 -2.003906 -4.597656 -1.8125 -3.636719 -1.8125 C -2.660156 -1.8125 -1.953125 -2 -1.511719 -2.371094 C -1.070312 -2.746094 -0.847656 -3.234375 -0.847656 -3.835938 C -0.847656 -4.316406 -0.996094 -4.722656 -1.292969 -5.046875 C -1.589844 -5.367188 -2.042969 -5.574219 -2.660156 -5.660156 Z M -2.660156 -5.660156 "/>
</g>
<g id="glyph-5-3">
<path d="M 0 -0.921875 L -10.023438 -0.921875 L -10.023438 -2.152344 L -6.425781 -2.152344 C -7.089844 -2.726562 -7.421875 -3.453125 -7.421875 -4.328125 C -7.421875 -4.863281 -7.316406 -5.332031 -7.105469 -5.726562 C -6.894531 -6.125 -6.601562 -6.410156 -6.226562 -6.578125 C -5.855469 -6.75 -5.3125 -6.835938 -4.601562 -6.835938 L 0 -6.835938 L 0 -5.605469 L -4.601562 -5.605469 C -5.214844 -5.605469 -5.664062 -5.472656 -5.945312 -5.207031 C -6.222656 -4.9375 -6.363281 -4.5625 -6.363281 -4.074219 C -6.363281 -3.710938 -6.269531 -3.367188 -6.082031 -3.046875 C -5.890625 -2.722656 -5.636719 -2.496094 -5.3125 -2.359375 C -4.988281 -2.222656 -4.542969 -2.152344 -3.972656 -2.152344 L 0 -2.152344 Z M 0 -0.921875 "/>
</g>
<g id="glyph-5-4">
<path d="M -1.101562 -3.609375 L -0.0117188 -3.789062 C 0.0585938 -3.441406 0.0976562 -3.132812 0.0976562 -2.859375 C 0.0976562 -2.410156 0.0234375 -2.0625 -0.117188 -1.820312 C -0.257812 -1.570312 -0.441406 -1.398438 -0.671875 -1.296875 C -0.902344 -1.199219 -1.386719 -1.148438 -2.125 -1.148438 L -6.304688 -1.148438 L -6.304688 -0.246094 L -7.257812 -0.246094 L -7.257812 -1.148438 L -9.058594 -1.148438 L -9.796875 -2.371094 L -7.257812 -2.371094 L -7.257812 -3.609375 L -6.304688 -3.609375 L -6.304688 -2.371094 L -2.058594 -2.371094 C -1.707031 -2.371094 -1.480469 -2.394531 -1.378906 -2.4375 C -1.28125 -2.480469 -1.199219 -2.550781 -1.140625 -2.648438 C -1.082031 -2.746094 -1.050781 -2.886719 -1.050781 -3.070312 C -1.050781 -3.207031 -1.070312 -3.386719 -1.101562 -3.609375 Z M -1.101562 -3.609375 "/>
</g>
<g id="glyph-5-5">
<path d="M -2.335938 -5.890625 L -2.179688 -7.164062 C -1.4375 -6.964844 -0.859375 -6.59375 -0.449219 -6.050781 C -0.0429688 -5.507812 0.164062 -4.816406 0.164062 -3.972656 C 0.164062 -2.910156 -0.164062 -2.066406 -0.816406 -1.445312 C -1.472656 -0.824219 -2.386719 -0.511719 -3.570312 -0.511719 C -4.789062 -0.511719 -5.738281 -0.828125 -6.414062 -1.457031 C -7.085938 -2.085938 -7.421875 -2.902344 -7.421875 -3.902344 C -7.421875 -4.875 -7.09375 -5.667969 -6.433594 -6.28125 C -5.773438 -6.898438 -4.84375 -7.203125 -3.644531 -7.203125 C -3.570312 -7.203125 -3.460938 -7.203125 -3.316406 -7.199219 L -3.316406 -1.785156 C -2.519531 -1.828125 -1.90625 -2.054688 -1.484375 -2.460938 C -1.058594 -2.867188 -0.847656 -3.371094 -0.847656 -3.976562 C -0.847656 -4.429688 -0.964844 -4.816406 -1.203125 -5.132812 C -1.441406 -5.453125 -1.816406 -5.707031 -2.335938 -5.890625 M -4.328125 -1.851562 L -4.328125 -5.90625 C -4.9375 -5.851562 -5.394531 -5.695312 -5.703125 -5.441406 C -6.175781 -5.050781 -6.414062 -4.542969 -6.414062 -3.917969 C -6.414062 -3.351562 -6.222656 -2.875 -5.84375 -2.492188 C -5.464844 -2.105469 -4.960938 -1.894531 -4.328125 -1.851562 Z M -4.328125 -1.851562 "/>
</g>
</g>
<clipPath id="clip-0">
<path clip-rule="nonzero" d="M 47.273438 302 L 1001.023438 302 L 1001.023438 304 L 47.273438 304 Z M 47.273438 302 "/>
</clipPath>
<clipPath id="clip-1">
<path clip-rule="nonzero" d="M 47.273438 222 L 1001.023438 222 L 1001.023438 223 L 47.273438 223 Z M 47.273438 222 "/>
</clipPath>
<clipPath id="clip-2">
<path clip-rule="nonzero" d="M 47.273438 142 L 1001.023438 142 L 1001.023438 143 L 47.273438 143 Z M 47.273438 142 "/>
</clipPath>
<clipPath id="clip-3">
<path clip-rule="nonzero" d="M 47.273438 61 L 1001.023438 61 L 1001.023438 63 L 47.273438 63 Z M 47.273438 61 "/>
</clipPath>
<clipPath id="clip-4">
<path clip-rule="nonzero" d="M 198 6.972656 L 200 6.972656 L 200 358.917969 L 198 358.917969 Z M 198 6.972656 "/>
</clipPath>
<clipPath id="clip-5">
<path clip-rule="nonzero" d="M 415 6.972656 L 417 6.972656 L 417 358.917969 L 415 358.917969 Z M 415 6.972656 "/>
</clipPath>
<clipPath id="clip-6">
<path clip-rule="nonzero" d="M 632 6.972656 L 633 6.972656 L 633 358.917969 L 632 358.917969 Z M 632 6.972656 "/>
</clipPath>
<clipPath id="clip-7">
<path clip-rule="nonzero" d="M 848 6.972656 L 850 6.972656 L 850 358.917969 L 848 358.917969 Z M 848 6.972656 "/>
</clipPath>
<clipPath id="clip-8">
<path clip-rule="nonzero" d="M 47.273438 342 L 1001.023438 342 L 1001.023438 344 L 47.273438 344 Z M 47.273438 342 "/>
</clipPath>
<clipPath id="clip-9">
<path clip-rule="nonzero" d="M 47.273438 262 L 1001.023438 262 L 1001.023438 264 L 47.273438 264 Z M 47.273438 262 "/>
</clipPath>
<clipPath id="clip-10">
<path clip-rule="nonzero" d="M 47.273438 181 L 1001.023438 181 L 1001.023438 184 L 47.273438 184 Z M 47.273438 181 "/>
</clipPath>
<clipPath id="clip-11">
<path clip-rule="nonzero" d="M 47.273438 101 L 1001.023438 101 L 1001.023438 103 L 47.273438 103 Z M 47.273438 101 "/>
</clipPath>
<clipPath id="clip-12">
<path clip-rule="nonzero" d="M 47.273438 21 L 1001.023438 21 L 1001.023438 23 L 47.273438 23 Z M 47.273438 21 "/>
</clipPath>
<clipPath id="clip-13">
<path clip-rule="nonzero" d="M 89 6.972656 L 92 6.972656 L 92 358.917969 L 89 358.917969 Z M 89 6.972656 "/>
</clipPath>
<clipPath id="clip-14">
<path clip-rule="nonzero" d="M 306 6.972656 L 309 6.972656 L 309 358.917969 L 306 358.917969 Z M 306 6.972656 "/>
</clipPath>
<clipPath id="clip-15">
<path clip-rule="nonzero" d="M 523 6.972656 L 525 6.972656 L 525 358.917969 L 523 358.917969 Z M 523 6.972656 "/>
</clipPath>
<clipPath id="clip-16">
<path clip-rule="nonzero" d="M 740 6.972656 L 742 6.972656 L 742 358.917969 L 740 358.917969 Z M 740 6.972656 "/>
</clipPath>
<clipPath id="clip-17">
<path clip-rule="nonzero" d="M 956 6.972656 L 959 6.972656 L 959 358.917969 L 956 358.917969 Z M 956 6.972656 "/>
</clipPath>
<clipPath id="clip-18">
<path clip-rule="nonzero" d="M 310 6.972656 L 313 6.972656 L 313 358.917969 L 310 358.917969 Z M 310 6.972656 "/>
</clipPath>
<clipPath id="clip-19">
<path clip-rule="nonzero" d="M 735 6.972656 L 738 6.972656 L 738 358.917969 L 735 358.917969 Z M 735 6.972656 "/>
</clipPath>
</defs>
<rect x="-100.8" y="-40.3" width="1209.6" height="483.6" fill="rgb(100%, 100%, 100%)" fill-opacity="1"/>
<rect x="-100.8" y="-40.3" width="1209.6" height="483.6" fill="rgb(100%, 100%, 100%)" fill-opacity="1"/>
<g clip-path="url(#clip-0)">
<path fill="none" stroke-width="0.678986" stroke-linecap="butt" stroke-linejoin="round" stroke="rgb(92.156863%, 92.156863%, 92.156863%)" stroke-opacity="1" stroke-miterlimit="10" d="M 47.273438 302.820312 L 1001.027344 302.820312 "/>
</g>
<g clip-path="url(#clip-1)">
<path fill="none" stroke-width="0.678986" stroke-linecap="butt" stroke-linejoin="round" stroke="rgb(92.156863%, 92.156863%, 92.156863%)" stroke-opacity="1" stroke-miterlimit="10" d="M 47.273438 222.621094 L 1001.027344 222.621094 "/>
</g>
<g clip-path="url(#clip-2)">
<path fill="none" stroke-width="0.678986" stroke-linecap="butt" stroke-linejoin="round" stroke="rgb(92.156863%, 92.156863%, 92.156863%)" stroke-opacity="1" stroke-miterlimit="10" d="M 47.273438 142.417969 L 1001.027344 142.417969 "/>
</g>
<g clip-path="url(#clip-3)">
<path fill="none" stroke-width="0.678986" stroke-linecap="butt" stroke-linejoin="round" stroke="rgb(92.156863%, 92.156863%, 92.156863%)" stroke-opacity="1" stroke-miterlimit="10" d="M 47.273438 62.214844 L 1001.027344 62.214844 "/>
</g>
<g clip-path="url(#clip-4)">
<path fill="none" stroke-width="0.678986" stroke-linecap="butt" stroke-linejoin="round" stroke="rgb(92.156863%, 92.156863%, 92.156863%)" stroke-opacity="1" stroke-miterlimit="10" d="M 199.007812 358.921875 L 199.007812 6.972656 "/>
</g>
<g clip-path="url(#clip-5)">
<path fill="none" stroke-width="0.678986" stroke-linecap="butt" stroke-linejoin="round" stroke="rgb(92.156863%, 92.156863%, 92.156863%)" stroke-opacity="1" stroke-miterlimit="10" d="M 415.769531 358.921875 L 415.769531 6.972656 "/>
</g>
<g clip-path="url(#clip-6)">
<path fill="none" stroke-width="0.678986" stroke-linecap="butt" stroke-linejoin="round" stroke="rgb(92.156863%, 92.156863%, 92.156863%)" stroke-opacity="1" stroke-miterlimit="10" d="M 632.53125 358.921875 L 632.53125 6.972656 "/>
</g>
<g clip-path="url(#clip-7)">
<path fill="none" stroke-width="0.678986" stroke-linecap="butt" stroke-linejoin="round" stroke="rgb(92.156863%, 92.156863%, 92.156863%)" stroke-opacity="1" stroke-miterlimit="10" d="M 849.292969 358.921875 L 849.292969 6.972656 "/>
</g>
<g clip-path="url(#clip-8)">
<path fill="none" stroke-width="1.357972" stroke-linecap="butt" stroke-linejoin="round" stroke="rgb(92.156863%, 92.156863%, 92.156863%)" stroke-opacity="1" stroke-miterlimit="10" d="M 47.273438 342.921875 L 1001.027344 342.921875 "/>
</g>
<g clip-path="url(#clip-9)">
<path fill="none" stroke-width="1.357972" stroke-linecap="butt" stroke-linejoin="round" stroke="rgb(92.156863%, 92.156863%, 92.156863%)" stroke-opacity="1" stroke-miterlimit="10" d="M 47.273438 262.71875 L 1001.027344 262.71875 "/>
</g>
<g clip-path="url(#clip-10)">
<path fill="none" stroke-width="1.357972" stroke-linecap="butt" stroke-linejoin="round" stroke="rgb(92.156863%, 92.156863%, 92.156863%)" stroke-opacity="1" stroke-miterlimit="10" d="M 47.273438 182.519531 L 1001.027344 182.519531 "/>
</g>
<g clip-path="url(#clip-11)">
<path fill="none" stroke-width="1.357972" stroke-linecap="butt" stroke-linejoin="round" stroke="rgb(92.156863%, 92.156863%, 92.156863%)" stroke-opacity="1" stroke-miterlimit="10" d="M 47.273438 102.316406 L 1001.027344 102.316406 "/>
</g>
<g clip-path="url(#clip-12)">
<path fill="none" stroke-width="1.357972" stroke-linecap="butt" stroke-linejoin="round" stroke="rgb(92.156863%, 92.156863%, 92.156863%)" stroke-opacity="1" stroke-miterlimit="10" d="M 47.273438 22.113281 L 1001.027344 22.113281 "/>
</g>
<g clip-path="url(#clip-13)">
<path fill="none" stroke-width="1.357972" stroke-linecap="butt" stroke-linejoin="round" stroke="rgb(92.156863%, 92.156863%, 92.156863%)" stroke-opacity="1" stroke-miterlimit="10" d="M 90.625 358.921875 L 90.625 6.972656 "/>
</g>
<g clip-path="url(#clip-14)">
<path fill="none" stroke-width="1.357972" stroke-linecap="butt" stroke-linejoin="round" stroke="rgb(92.156863%, 92.156863%, 92.156863%)" stroke-opacity="1" stroke-miterlimit="10" d="M 307.386719 358.921875 L 307.386719 6.972656 "/>
</g>
<g clip-path="url(#clip-15)">
<path fill="none" stroke-width="1.357972" stroke-linecap="butt" stroke-linejoin="round" stroke="rgb(92.156863%, 92.156863%, 92.156863%)" stroke-opacity="1" stroke-miterlimit="10" d="M 524.148438 358.921875 L 524.148438 6.972656 "/>
</g>
<g clip-path="url(#clip-16)">
<path fill="none" stroke-width="1.357972" stroke-linecap="butt" stroke-linejoin="round" stroke="rgb(92.156863%, 92.156863%, 92.156863%)" stroke-opacity="1" stroke-miterlimit="10" d="M 740.910156 358.921875 L 740.910156 6.972656 "/>
</g>
<g clip-path="url(#clip-17)">
<path fill="none" stroke-width="1.357972" stroke-linecap="butt" stroke-linejoin="round" stroke="rgb(92.156863%, 92.156863%, 92.156863%)" stroke-opacity="1" stroke-miterlimit="10" d="M 957.671875 358.921875 L 957.671875 6.972656 "/>
</g>
<path fill-rule="nonzero" fill="rgb(100%, 45.490196%, 30.588235%)" fill-opacity="0.298039" d="M 90.625 342.816406 L 99.316406 342.777344 L 101.050781 342.765625 L 102.789062 342.757812 L 108.003906 342.722656 L 109.738281 342.710938 L 113.214844 342.679688 L 114.953125 342.667969 L 116.691406 342.648438 L 118.429688 342.632812 L 120.164062 342.617188 L 123.640625 342.578125 L 125.378906 342.554688 L 127.117188 342.535156 L 128.851562 342.507812 L 130.589844 342.484375 L 135.804688 342.402344 L 137.542969 342.371094 L 139.277344 342.339844 L 142.753906 342.269531 L 146.230469 342.191406 L 147.964844 342.148438 L 149.703125 342.105469 L 151.441406 342.058594 L 154.917969 341.957031 L 156.65625 341.902344 L 158.390625 341.847656 L 163.605469 341.660156 L 165.34375 341.589844 L 167.078125 341.515625 L 168.816406 341.441406 L 172.292969 341.277344 L 174.03125 341.191406 L 175.769531 341.097656 L 177.503906 341 L 179.242188 340.902344 L 182.71875 340.683594 L 184.457031 340.570312 L 186.191406 340.449219 L 187.929688 340.320312 L 189.667969 340.1875 L 191.40625 340.050781 L 193.144531 339.90625 L 194.882812 339.753906 L 196.617188 339.597656 L 198.355469 339.433594 L 200.09375 339.261719 L 201.832031 339.082031 L 203.570312 338.894531 L 205.304688 338.699219 L 207.042969 338.496094 L 208.78125 338.285156 L 210.519531 338.0625 L 212.257812 337.832031 L 213.996094 337.59375 L 215.730469 337.34375 L 217.46875 337.082031 L 219.207031 336.8125 L 220.945312 336.53125 L 222.683594 336.238281 L 224.417969 335.9375 L 226.15625 335.621094 L 227.894531 335.292969 L 229.632812 334.949219 L 231.371094 334.597656 L 233.109375 334.230469 L 234.84375 333.847656 L 236.582031 333.453125 L 238.320312 333.042969 L 240.058594 332.617188 L 241.796875 332.175781 L 243.53125 331.71875 L 245.269531 331.246094 L 247.007812 330.753906 L 248.746094 330.246094 L 250.484375 329.722656 L 252.222656 329.179688 L 253.957031 328.617188 L 255.695312 328.035156 L 257.433594 327.433594 L 259.171875 326.8125 L 260.910156 326.171875 L 262.644531 325.507812 L 264.382812 324.824219 L 266.121094 324.117188 L 267.859375 323.386719 L 269.597656 322.636719 L 271.335938 321.859375 L 273.070312 321.058594 L 274.808594 320.234375 L 276.546875 319.386719 L 278.285156 318.511719 L 280.023438 317.609375 L 281.757812 316.683594 L 283.496094 315.726562 L 285.234375 314.746094 L 286.972656 313.738281 L 288.710938 312.699219 L 290.449219 311.632812 L 292.183594 310.535156 L 293.921875 309.410156 L 295.660156 308.25 L 297.398438 307.066406 L 299.136719 305.847656 L 300.871094 304.597656 L 302.609375 303.3125 L 304.347656 302 L 306.085938 300.652344 L 307.824219 299.273438 L 309.5625 297.859375 L 311.296875 296.410156 L 311.296875 342.921875 L 90.625 342.921875 Z M 90.625 342.816406 "/>
<path fill-rule="nonzero" fill="rgb(100%, 45.490196%, 30.588235%)" fill-opacity="0.298039" d="M 737.003906 296.410156 L 738.738281 297.859375 L 740.476562 299.273438 L 742.214844 300.652344 L 743.953125 302 L 745.691406 303.3125 L 747.429688 304.597656 L 749.164062 305.847656 L 750.902344 307.066406 L 752.640625 308.25 L 754.378906 309.410156 L 756.117188 310.535156 L 757.851562 311.632812 L 759.589844 312.699219 L 761.328125 313.738281 L 763.066406 314.746094 L 764.804688 315.726562 L 766.542969 316.683594 L 768.277344 317.609375 L 770.015625 318.511719 L 771.753906 319.386719 L 773.492188 320.234375 L 775.230469 321.058594 L 776.964844 321.859375 L 778.703125 322.636719 L 780.441406 323.386719 L 782.179688 324.117188 L 783.917969 324.824219 L 785.65625 325.507812 L 787.390625 326.171875 L 789.128906 326.8125 L 790.867188 327.433594 L 792.605469 328.035156 L 794.34375 328.617188 L 796.078125 329.179688 L 797.816406 329.722656 L 799.554688 330.246094 L 801.292969 330.753906 L 803.03125 331.246094 L 804.769531 331.71875 L 806.503906 332.175781 L 808.242188 332.617188 L 809.980469 333.042969 L 811.71875 333.453125 L 813.457031 333.847656 L 815.191406 334.230469 L 816.929688 334.597656 L 818.667969 334.949219 L 820.40625 335.292969 L 822.144531 335.621094 L 823.882812 335.9375 L 825.617188 336.238281 L 827.355469 336.53125 L 829.09375 336.8125 L 830.832031 337.082031 L 832.570312 337.34375 L 834.304688 337.59375 L 836.042969 337.832031 L 837.78125 338.0625 L 839.519531 338.285156 L 841.257812 338.496094 L 842.996094 338.699219 L 844.730469 338.894531 L 846.46875 339.082031 L 848.207031 339.261719 L 849.945312 339.433594 L 851.683594 339.597656 L 853.417969 339.753906 L 855.15625 339.90625 L 856.894531 340.050781 L 858.632812 340.1875 L 860.371094 340.320312 L 862.109375 340.449219 L 863.84375 340.570312 L 865.582031 340.683594 L 869.058594 340.902344 L 870.796875 341 L 872.53125 341.097656 L 874.269531 341.191406 L 876.007812 341.277344 L 879.484375 341.441406 L 881.222656 341.515625 L 882.957031 341.589844 L 884.695312 341.660156 L 889.910156 341.847656 L 891.644531 341.902344 L 893.382812 341.957031 L 896.859375 342.058594 L 898.597656 342.105469 L 900.335938 342.148438 L 902.070312 342.191406 L 905.546875 342.269531 L 909.023438 342.339844 L 910.757812 342.371094 L 912.496094 342.402344 L 917.710938 342.484375 L 919.449219 342.507812 L 921.183594 342.535156 L 922.921875 342.554688 L 924.660156 342.578125 L 928.136719 342.617188 L 929.871094 342.632812 L 931.609375 342.648438 L 933.347656 342.667969 L 935.085938 342.679688 L 938.5625 342.710938 L 940.296875 342.722656 L 945.511719 342.757812 L 947.25 342.765625 L 948.984375 342.777344 L 955.9375 342.808594 L 957.671875 342.816406 L 957.671875 342.921875 L 737.003906 342.921875 Z M 737.003906 296.410156 "/>
<path fill="none" stroke-width="1.920561" stroke-linecap="butt" stroke-linejoin="round" stroke="rgb(20%, 20%, 20%)" stroke-opacity="1" stroke-miterlimit="10" d="M 90.625 342.816406 L 99.316406 342.777344 L 101.050781 342.765625 L 102.789062 342.757812 L 108.003906 342.722656 L 109.738281 342.710938 L 113.214844 342.679688 L 114.953125 342.667969 L 116.691406 342.648438 L 118.429688 342.632812 L 120.164062 342.617188 L 123.640625 342.578125 L 125.378906 342.554688 L 127.117188 342.535156 L 128.851562 342.507812 L 130.589844 342.484375 L 135.804688 342.402344 L 137.542969 342.371094 L 139.277344 342.339844 L 142.753906 342.269531 L 146.230469 342.191406 L 147.964844 342.148438 L 149.703125 342.105469 L 151.441406 342.058594 L 154.917969 341.957031 L 156.65625 341.902344 L 158.390625 341.847656 L 163.605469 341.660156 L 165.34375 341.589844 L 167.078125 341.515625 L 168.816406 341.441406 L 172.292969 341.277344 L 174.03125 341.191406 L 175.769531 341.097656 L 177.503906 341 L 179.242188 340.902344 L 182.71875 340.683594 L 184.457031 340.570312 L 186.191406 340.449219 L 187.929688 340.320312 L 189.667969 340.1875 L 191.40625 340.050781 L 193.144531 339.90625 L 194.882812 339.753906 L 196.617188 339.597656 L 198.355469 339.433594 L 200.09375 339.261719 L 201.832031 339.082031 L 203.570312 338.894531 L 205.304688 338.699219 L 207.042969 338.496094 L 208.78125 338.285156 L 210.519531 338.0625 L 212.257812 337.832031 L 213.996094 337.59375 L 215.730469 337.34375 L 217.46875 337.082031 L 219.207031 336.8125 L 220.945312 336.53125 L 222.683594 336.238281 L 224.417969 335.9375 L 226.15625 335.621094 L 227.894531 335.292969 L 229.632812 334.949219 L 231.371094 334.597656 L 233.109375 334.230469 L 234.84375 333.847656 L 236.582031 333.453125 L 238.320312 333.042969 L 240.058594 332.617188 L 241.796875 332.175781 L 243.53125 331.71875 L 245.269531 331.246094 L 247.007812 330.753906 L 248.746094 330.246094 L 250.484375 329.722656 L 252.222656 329.179688 L 253.957031 328.617188 L 255.695312 328.035156 L 257.433594 327.433594 L 259.171875 326.8125 L 260.910156 326.171875 L 262.644531 325.507812 L 264.382812 324.824219 L 266.121094 324.117188 L 267.859375 323.386719 L 269.597656 322.636719 L 271.335938 321.859375 L 273.070312 321.058594 L 274.808594 320.234375 L 276.546875 319.386719 L 278.285156 318.511719 L 280.023438 317.609375 L 281.757812 316.683594 L 283.496094 315.726562 L 285.234375 314.746094 L 286.972656 313.738281 L 288.710938 312.699219 L 290.449219 311.632812 L 292.183594 310.535156 L 293.921875 309.410156 L 295.660156 308.25 L 297.398438 307.066406 L 299.136719 305.847656 L 300.871094 304.597656 L 302.609375 303.3125 L 304.347656 302 L 306.085938 300.652344 L 307.824219 299.273438 L 309.5625 297.859375 L 311.296875 296.410156 L 313.035156 294.929688 L 314.773438 293.414062 L 316.511719 291.863281 L 318.25 290.277344 L 319.984375 288.65625 L 321.722656 287 L 323.460938 285.308594 L 325.199219 283.578125 L 326.9375 281.8125 L 328.675781 280.011719 L 330.410156 278.175781 L 332.148438 276.300781 L 333.886719 274.390625 L 335.625 272.445312 L 337.363281 270.460938 L 339.097656 268.441406 L 340.835938 266.382812 L 342.574219 264.289062 L 344.3125 262.160156 L 346.050781 259.992188 L 347.785156 257.789062 L 349.523438 255.550781 L 351.261719 253.277344 L 353 250.964844 L 354.738281 248.621094 L 356.476562 246.238281 L 358.210938 243.824219 L 359.949219 241.375 L 361.6875 238.890625 L 363.425781 236.375 L 365.164062 233.824219 L 366.898438 231.242188 L 368.636719 228.628906 L 370.375 225.984375 L 372.113281 223.308594 L 373.851562 220.605469 L 375.589844 217.871094 L 377.324219 215.109375 L 379.0625 212.320312 L 380.800781 209.503906 L 382.539062 206.660156 L 384.277344 203.792969 L 386.011719 200.902344 L 387.75 197.992188 L 389.488281 195.054688 L 391.226562 192.101562 L 392.964844 189.125 L 394.703125 186.132812 L 396.4375 183.121094 L 398.175781 180.09375 L 399.914062 177.050781 L 401.652344 173.996094 L 403.390625 170.929688 L 405.125 167.851562 L 406.863281 164.765625 L 408.601562 161.671875 L 410.339844 158.570312 L 412.078125 155.464844 L 413.816406 152.355469 L 415.550781 149.246094 L 417.289062 146.132812 L 419.027344 143.023438 L 420.765625 139.917969 L 422.503906 136.816406 L 424.238281 133.71875 L 425.976562 130.632812 L 427.714844 127.554688 L 429.453125 124.488281 L 431.191406 121.4375 L 432.929688 118.398438 L 434.664062 115.378906 L 436.402344 112.375 L 438.140625 109.394531 L 439.878906 106.433594 L 441.617188 103.496094 L 443.351562 100.585938 L 445.089844 97.707031 L 446.828125 94.851562 L 448.566406 92.03125 L 450.304688 89.242188 L 452.042969 86.488281 L 453.777344 83.773438 L 455.515625 81.09375 L 457.253906 78.457031 L 458.992188 75.863281 L 460.730469 73.308594 L 462.464844 70.804688 L 464.203125 68.34375 L 465.941406 65.933594 L 467.679688 63.574219 L 469.417969 61.269531 L 471.15625 59.015625 L 472.890625 56.816406 L 474.628906 54.675781 L 476.367188 52.59375 L 478.105469 50.574219 L 479.84375 48.613281 L 481.578125 46.714844 L 483.316406 44.882812 L 485.054688 43.113281 L 486.792969 41.414062 L 488.53125 39.785156 L 490.269531 38.222656 L 492.003906 36.730469 L 493.742188 35.308594 L 495.480469 33.960938 L 497.21875 32.6875 L 498.957031 31.492188 L 500.691406 30.367188 L 502.429688 29.320312 L 504.167969 28.351562 L 505.90625 27.460938 L 507.644531 26.652344 L 509.382812 25.917969 L 511.117188 25.265625 L 512.855469 24.695312 L 514.59375 24.203125 L 516.332031 23.792969 L 518.070312 23.464844 L 519.804688 23.21875 L 521.542969 23.054688 L 523.28125 22.972656 L 525.019531 22.972656 L 526.757812 23.054688 L 528.496094 23.21875 L 530.230469 23.464844 L 531.96875 23.792969 L 533.707031 24.203125 L 535.445312 24.695312 L 537.183594 25.265625 L 538.917969 25.917969 L 540.65625 26.652344 L 542.394531 27.460938 L 544.132812 28.351562 L 545.871094 29.320312 L 547.609375 30.367188 L 549.34375 31.492188 L 551.082031 32.6875 L 552.820312 33.960938 L 554.558594 35.308594 L 556.296875 36.730469 L 558.03125 38.222656 L 559.769531 39.785156 L 561.507812 41.414062 L 563.246094 43.113281 L 564.984375 44.882812 L 566.722656 46.714844 L 568.457031 48.613281 L 570.195312 50.574219 L 571.933594 52.59375 L 573.671875 54.675781 L 575.410156 56.816406 L 577.144531 59.015625 L 578.882812 61.269531 L 580.621094 63.574219 L 582.359375 65.933594 L 584.097656 68.34375 L 585.835938 70.804688 L 587.570312 73.308594 L 589.308594 75.863281 L 591.046875 78.457031 L 592.785156 81.09375 L 594.523438 83.773438 L 596.257812 86.488281 L 597.996094 89.242188 L 599.734375 92.03125 L 601.472656 94.851562 L 603.210938 97.707031 L 604.949219 100.585938 L 606.683594 103.496094 L 608.421875 106.433594 L 610.160156 109.394531 L 611.898438 112.375 L 613.636719 115.378906 L 615.371094 118.398438 L 617.109375 121.4375 L 618.847656 124.488281 L 620.585938 127.554688 L 622.324219 130.632812 L 624.0625 133.71875 L 625.796875 136.816406 L 627.535156 139.917969 L 629.273438 143.023438 L 631.011719 146.132812 L 632.75 149.246094 L 634.484375 152.355469 L 636.222656 155.464844 L 637.960938 158.570312 L 639.699219 161.671875 L 641.4375 164.765625 L 643.171875 167.851562 L 644.910156 170.929688 L 646.648438 173.996094 L 648.386719 177.050781 L 650.125 180.09375 L 651.863281 183.121094 L 653.597656 186.132812 L 655.335938 189.125 L 657.074219 192.101562 L 658.8125 195.054688 L 660.550781 197.992188 L 662.285156 200.902344 L 664.023438 203.792969 L 665.761719 206.660156 L 667.5 209.503906 L 669.238281 212.320312 L 670.976562 215.109375 L 672.710938 217.871094 L 674.449219 220.605469 L 676.1875 223.308594 L 677.925781 225.984375 L 679.664062 228.628906 L 681.398438 231.242188 L 683.136719 233.824219 L 684.875 236.375 L 686.613281 238.890625 L 688.351562 241.375 L 690.089844 243.824219 L 691.824219 246.238281 L 693.5625 248.621094 L 695.300781 250.964844 L 697.039062 253.277344 L 698.777344 255.550781 L 700.511719 257.789062 L 702.25 259.992188 L 703.988281 262.160156 L 705.726562 264.289062 L 707.464844 266.382812 L 709.203125 268.441406 L 710.9375 270.460938 L 712.675781 272.445312 L 714.414062 274.390625 L 716.152344 276.300781 L 717.890625 278.175781 L 719.625 280.011719 L 721.363281 281.8125 L 723.101562 283.578125 L 724.839844 285.308594 L 726.578125 287 L 728.316406 288.65625 L 730.050781 290.277344 L 731.789062 291.863281 L 733.527344 293.414062 L 735.265625 294.929688 L 737.003906 296.410156 L 738.738281 297.859375 L 740.476562 299.273438 L 742.214844 300.652344 L 743.953125 302 L 745.691406 303.3125 L 747.429688 304.597656 L 749.164062 305.847656 L 750.902344 307.066406 L 752.640625 308.25 L 754.378906 309.410156 L 756.117188 310.535156 L 757.851562 311.632812 L 759.589844 312.699219 L 761.328125 313.738281 L 763.066406 314.746094 L 764.804688 315.726562 L 766.542969 316.683594 L 768.277344 317.609375 L 770.015625 318.511719 L 771.753906 319.386719 L 773.492188 320.234375 L 775.230469 321.058594 L 776.964844 321.859375 L 778.703125 322.636719 L 780.441406 323.386719 L 782.179688 324.117188 L 783.917969 324.824219 L 785.65625 325.507812 L 787.390625 326.171875 L 789.128906 326.8125 L 790.867188 327.433594 L 792.605469 328.035156 L 794.34375 328.617188 L 796.078125 329.179688 L 797.816406 329.722656 L 799.554688 330.246094 L 801.292969 330.753906 L 803.03125 331.246094 L 804.769531 331.71875 L 806.503906 332.175781 L 808.242188 332.617188 L 809.980469 333.042969 L 811.71875 333.453125 L 813.457031 333.847656 L 815.191406 334.230469 L 816.929688 334.597656 L 818.667969 334.949219 L 820.40625 335.292969 L 822.144531 335.621094 L 823.882812 335.9375 L 825.617188 336.238281 L 827.355469 336.53125 L 829.09375 336.8125 L 830.832031 337.082031 L 832.570312 337.34375 L 834.304688 337.59375 L 836.042969 337.832031 L 837.78125 338.0625 L 839.519531 338.285156 L 841.257812 338.496094 L 842.996094 338.699219 L 844.730469 338.894531 L 846.46875 339.082031 L 848.207031 339.261719 L 849.945312 339.433594 L 851.683594 339.597656 L 853.417969 339.753906 L 855.15625 339.90625 L 856.894531 340.050781 L 858.632812 340.1875 L 860.371094 340.320312 L 862.109375 340.449219 L 863.84375 340.570312 L 865.582031 340.683594 L 869.058594 340.902344 L 870.796875 341 L 872.53125 341.097656 L 874.269531 341.191406 L 876.007812 341.277344 L 879.484375 341.441406 L 881.222656 341.515625 L 882.957031 341.589844 L 884.695312 341.660156 L 889.910156 341.847656 L 891.644531 341.902344 L 893.382812 341.957031 L 896.859375 342.058594 L 898.597656 342.105469 L 900.335938 342.148438 L 902.070312 342.191406 L 905.546875 342.269531 L 909.023438 342.339844 L 910.757812 342.371094 L 912.496094 342.402344 L 917.710938 342.484375 L 919.449219 342.507812 L 921.183594 342.535156 L 922.921875 342.554688 L 924.660156 342.578125 L 928.136719 342.617188 L 929.871094 342.632812 L 931.609375 342.648438 L 933.347656 342.667969 L 935.085938 342.679688 L 938.5625 342.710938 L 940.296875 342.722656 L 945.511719 342.757812 L 947.25 342.765625 L 948.984375 342.777344 L 955.9375 342.808594 L 957.671875 342.816406 "/>
<g clip-path="url(#clip-18)">
<path fill="none" stroke-width="1.49377" stroke-linecap="butt" stroke-linejoin="round" stroke="rgb(100%, 45.490196%, 30.588235%)" stroke-opacity="1" stroke-dasharray="5.975079 5.975079" stroke-miterlimit="10" d="M 311.726562 358.921875 L 311.726562 6.972656 "/>
</g>
<g clip-path="url(#clip-19)">
<path fill="none" stroke-width="1.49377" stroke-linecap="butt" stroke-linejoin="round" stroke="rgb(100%, 45.490196%, 30.588235%)" stroke-opacity="1" stroke-dasharray="5.975079 5.975079" stroke-miterlimit="10" d="M 736.574219 358.921875 L 736.574219 6.972656 "/>
</g>
<g fill="rgb(100%, 45.490196%, 30.588235%)" fill-opacity="1">
<use xlink:href="#glyph-0-0" x="742.820312" y="74.445312"/>
</g>
<g fill="rgb(100%, 45.490196%, 30.588235%)" fill-opacity="1">
<use xlink:href="#glyph-1-0" x="749.933594" y="77.640625"/>
</g>
<g fill="rgb(100%, 45.490196%, 30.588235%)" fill-opacity="1">
<use xlink:href="#glyph-1-1" x="754.914062" y="77.640625"/>
</g>
<g fill="rgb(100%, 45.490196%, 30.588235%)" fill-opacity="1">
<use xlink:href="#glyph-1-2" x="758.226562" y="77.640625"/>
</g>
<g fill="rgb(100%, 45.490196%, 30.588235%)" fill-opacity="1">
<use xlink:href="#glyph-1-3" x="760.441406" y="77.640625"/>
</g>
<g fill="rgb(100%, 45.490196%, 30.588235%)" fill-opacity="1">
<use xlink:href="#glyph-2-0" x="766.5" y="74.445312"/>
</g>
<g fill="rgb(100%, 45.490196%, 30.588235%)" fill-opacity="1">
<use xlink:href="#glyph-0-1" x="777.597656" y="74.445312"/>
<use xlink:href="#glyph-0-2" x="785.50969" y="74.445312"/>
<use xlink:href="#glyph-0-3" x="789.462233" y="74.445312"/>
<use xlink:href="#glyph-0-4" x="797.374267" y="74.445312"/>
</g>
<g fill="rgb(100%, 45.490196%, 30.588235%)" fill-opacity="1">
<use xlink:href="#glyph-0-0" x="231.449219" y="74.445312"/>
</g>
<g fill="rgb(100%, 45.490196%, 30.588235%)" fill-opacity="1">
<use xlink:href="#glyph-1-0" x="238.5625" y="77.640625"/>
</g>
<g fill="rgb(100%, 45.490196%, 30.588235%)" fill-opacity="1">
<use xlink:href="#glyph-1-1" x="243.542969" y="77.640625"/>
</g>
<g fill="rgb(100%, 45.490196%, 30.588235%)" fill-opacity="1">
<use xlink:href="#glyph-1-2" x="246.859375" y="77.640625"/>
</g>
<g fill="rgb(100%, 45.490196%, 30.588235%)" fill-opacity="1">
<use xlink:href="#glyph-1-3" x="249.070312" y="77.640625"/>
</g>
<g fill="rgb(100%, 45.490196%, 30.588235%)" fill-opacity="1">
<use xlink:href="#glyph-2-0" x="255.128906" y="74.445312"/>
</g>
<g fill="rgb(100%, 45.490196%, 30.588235%)" fill-opacity="1">
<use xlink:href="#glyph-2-1" x="266.230469" y="74.445312"/>
</g>
<g fill="rgb(100%, 45.490196%, 30.588235%)" fill-opacity="1">
<use xlink:href="#glyph-0-1" x="276.742188" y="74.445312"/>
<use xlink:href="#glyph-0-2" x="284.654221" y="74.445312"/>
<use xlink:href="#glyph-0-3" x="288.606764" y="74.445312"/>
<use xlink:href="#glyph-0-4" x="296.518798" y="74.445312"/>
</g>
<g fill="rgb(30.196078%, 30.196078%, 30.196078%)" fill-opacity="1">
<use xlink:href="#glyph-3-0" x="25.429688" y="347.433594"/>
<use xlink:href="#glyph-3-1" x="31.658594" y="347.433594"/>
<use xlink:href="#glyph-3-0" x="34.770313" y="347.433594"/>
</g>
<g fill="rgb(30.196078%, 30.196078%, 30.196078%)" fill-opacity="1">
<use xlink:href="#glyph-3-0" x="25.429688" y="267.230469"/>
<use xlink:href="#glyph-3-1" x="31.658594" y="267.230469"/>
<use xlink:href="#glyph-3-2" x="34.770313" y="267.230469"/>
</g>
<g fill="rgb(30.196078%, 30.196078%, 30.196078%)" fill-opacity="1">
<use xlink:href="#glyph-3-0" x="25.429688" y="187.027344"/>
<use xlink:href="#glyph-3-1" x="31.658594" y="187.027344"/>
<use xlink:href="#glyph-3-3" x="34.770313" y="187.027344"/>
</g>
<g fill="rgb(30.196078%, 30.196078%, 30.196078%)" fill-opacity="1">
<use xlink:href="#glyph-3-0" x="25.429688" y="106.824219"/>
<use xlink:href="#glyph-3-1" x="31.658594" y="106.824219"/>
<use xlink:href="#glyph-3-4" x="34.770313" y="106.824219"/>
</g>
<g fill="rgb(30.196078%, 30.196078%, 30.196078%)" fill-opacity="1">
<use xlink:href="#glyph-3-0" x="25.429688" y="26.621094"/>
<use xlink:href="#glyph-3-1" x="31.658594" y="26.621094"/>
<use xlink:href="#glyph-3-5" x="34.770313" y="26.621094"/>
</g>
<g fill="rgb(30.196078%, 30.196078%, 30.196078%)" fill-opacity="1">
<use xlink:href="#glyph-3-6" x="85.644531" y="374.214844"/>
<use xlink:href="#glyph-3-5" x="89.374219" y="374.214844"/>
</g>
<g fill="rgb(30.196078%, 30.196078%, 30.196078%)" fill-opacity="1">
<use xlink:href="#glyph-3-6" x="302.40625" y="374.214844"/>
<use xlink:href="#glyph-3-3" x="306.135938" y="374.214844"/>
</g>
<g fill="rgb(30.196078%, 30.196078%, 30.196078%)" fill-opacity="1">
<use xlink:href="#glyph-3-0" x="521.035156" y="374.214844"/>
</g>
<g fill="rgb(30.196078%, 30.196078%, 30.196078%)" fill-opacity="1">
<use xlink:href="#glyph-3-3" x="737.796875" y="374.214844"/>
</g>
<g fill="rgb(30.196078%, 30.196078%, 30.196078%)" fill-opacity="1">
<use xlink:href="#glyph-3-5" x="954.558594" y="374.214844"/>
</g>
<g fill="rgb(0%, 0%, 0%)" fill-opacity="1">
<use xlink:href="#glyph-4-0" x="520.648438" y="392.078125"/>
</g>
<g fill="rgb(0%, 0%, 0%)" fill-opacity="1">
<use xlink:href="#glyph-5-0" x="17.996094" y="202.789062"/>
<use xlink:href="#glyph-5-1" x="17.996094" y="192.678711"/>
<use xlink:href="#glyph-5-2" x="17.996094" y="189.568359"/>
<use xlink:href="#glyph-5-3" x="17.996094" y="182.568359"/>
<use xlink:href="#glyph-5-4" x="17.996094" y="174.782227"/>
<use xlink:href="#glyph-5-5" x="17.996094" y="170.892578"/>
</g>
</svg>
